<?xml version="1.0" encoding="UTF-8" standalone="no"?>
<!DOCTYPE svg PUBLIC "-//W3C//DTD SVG 1.1//EN"
 "http://www.w3.org/Graphics/SVG/1.1/DTD/svg11.dtd">
<!-- Generated by graphviz version 2.43.0 (0)
 -->
<!-- Title: CustomParamListener Pages: 1 -->
<svg width="224pt" height="149pt"
 viewBox="0.00 0.00 223.50 149.00" xmlns="http://www.w3.org/2000/svg" xmlns:xlink="http://www.w3.org/1999/xlink">

<svg id="main" version="1.1" xmlns="http://www.w3.org/2000/svg" xmlns:xlink="http://www.w3.org/1999/xlink" xml:space="preserve" onload="init(evt)">
<style type="text/css"><![CDATA[
.node, .edge {opacity: 0.7;}
.node.selected, .edge.selected {opacity: 1;}
.edge:hover path { stroke: red; }
.edge:hover polygon { stroke: red; fill: red; }
]]></style>
<script type="application/ecmascript" xlink:href="svg.min.js"/>
<svg id="graph" class="graph">
<g id="graph0" class="graph" transform="scale(1 1) rotate(0) translate(4 145)">
<title>CustomParamListener</title>
<!-- Node1 -->
<g id="Node000001" class="node">
<title>Node1</title>
<g id="a_Node000001"><a xlink:title="Detects changes made to a parameter by the user.">
<polygon fill="#999999" stroke="#666666" points="131.5,-19 7.5,-19 7.5,0 131.5,0 131.5,-19"/>
<text text-anchor="middle" x="69.5" y="-7" font-family="Helvetica,sans-Serif" font-size="10.00">CustomParamListener</text>
</a>
</g>
</g>
<!-- Node2 -->
<g id="Node000002" class="node">
<title>Node2</title>
<g id="a_Node000002"><a xlink:title=" ">
<polygon fill="white" stroke="#666666" points="107,-141 0,-141 0,-122 107,-122 107,-141"/>
<text text-anchor="middle" x="53.5" y="-129" font-family="Helvetica,sans-Serif" font-size="10.00">Steinberg::FObject</text>
</a>
</g>
</g>
<!-- Node2&#45;&gt;Node1 -->
<g id="edge1_Node000001_Node000002" class="edge">
<title>Node2&#45;&gt;Node1</title>
<g id="a_edge1_Node000001_Node000002"><a xlink:title=" ">
<path fill="none" stroke="#63b8ff" d="M56.01,-111.65C59.54,-85.22 65.8,-38.26 68.36,-19.05"/>
<polygon fill="#63b8ff" stroke="#63b8ff" points="52.5,-111.5 54.65,-121.87 59.44,-112.42 52.5,-111.5"/>
</a>
</g>
</g>
<!-- Node3 -->
<g id="Node000003" class="node">
<title>Node3</title>
<g id="a_Node000003"><a xlink:href="classEQCurveView.html" target="_top" xlink:title="Visualizes the current state of the EQ curve.">
<polygon fill="white" stroke="#666666" points="165,-85 82,-85 82,-66 165,-66 165,-85"/>
<text text-anchor="middle" x="123.5" y="-73" font-family="Helvetica,sans-Serif" font-size="10.00">EQCurveView</text>
</a>
</g>
</g>
<!-- Node2&#45;&gt;Node3 -->
<g id="edge4_Node000003_Node000002" class="edge">
<title>Node2&#45;&gt;Node3</title>
<g id="a_edge4_Node000003_Node000002"><a xlink:title=" ">
<path fill="none" stroke="#63b8ff" d="M72.81,-115.6C85.41,-105.88 101.43,-93.53 112.05,-85.33"/>
<polygon fill="#63b8ff" stroke="#63b8ff" points="70.53,-112.94 64.75,-121.82 74.8,-118.49 70.53,-112.94"/>
</a>
</g>
</g>
<!-- Node3&#45;&gt;Node1 -->
<g id="edge2_Node000001_Node000003" class="edge">
<title>Node3&#45;&gt;Node1</title>
<g id="a_edge2_Node000001_Node000003"><a xlink:title=" ">
<path fill="none" stroke="#9a32cd" stroke-dasharray="5,2" d="M109.68,-58.12C99.29,-45.81 85.44,-29.39 77.01,-19.41"/>
<polygon fill="#9a32cd" stroke="#9a32cd" points="107.09,-60.48 116.22,-65.87 112.44,-55.97 107.09,-60.48"/>
</a>
</g>
<text text-anchor="middle" x="116.5" y="-40" font-family="Helvetica,sans-Serif" font-size="10.00" fill="grey"> _view</text>
</g>
<!-- Node4 -->
<g id="Node000004" class="node">
<title>Node4</title>
<g id="a_Node000004"><a xlink:title=" ">
<polygon fill="white" stroke="#666666" points="215.5,-141 125.5,-141 125.5,-122 215.5,-122 215.5,-141"/>
<text text-anchor="middle" x="170.5" y="-129" font-family="Helvetica,sans-Serif" font-size="10.00">VSTGUI::CView</text>
</a>
</g>
</g>
<!-- Node4&#45;&gt;Node3 -->
<g id="edge3_Node000003_Node000004" class="edge">
<title>Node4&#45;&gt;Node3</title>
<g id="a_edge3_Node000003_Node000004"><a xlink:title=" ">
<path fill="none" stroke="#63b8ff" d="M156.08,-113.93C147.84,-104.47 137.85,-92.98 131.12,-85.25"/>
<polygon fill="#63b8ff" stroke="#63b8ff" points="153.53,-116.34 162.74,-121.58 158.81,-111.74 153.53,-116.34"/>
</a>
</g>
</g>
</g>
</svg>
</svg>

<style type='text/css'>
<![CDATA[
[data-mouse-over-selected='false'] { opacity: 0.7; }
[data-mouse-over-selected='true']  { opacity: 1.0; }
]]>
</style>
<script type="application/ecmascript"><![CDATA[
document.addEventListener('DOMContentLoaded', (event) => {
  highlightEdges();
  highlightAdjacentNodes();
});
]]></script>
</svg>
