<?xml version="1.0" encoding="UTF-8" standalone="no"?>
<!DOCTYPE svg PUBLIC "-//W3C//DTD SVG 1.1//EN"
 "http://www.w3.org/Graphics/SVG/1.1/DTD/svg11.dtd">
<!-- Generated by graphviz version 2.43.0 (0)
 -->
<!-- Title: EQCurveView::draw Pages: 1 -->
<svg width="489pt" height="162pt"
 viewBox="0.00 0.00 489.00 162.12" xmlns="http://www.w3.org/2000/svg" xmlns:xlink="http://www.w3.org/1999/xlink">

<svg id="main" version="1.1" xmlns="http://www.w3.org/2000/svg" xmlns:xlink="http://www.w3.org/1999/xlink" xml:space="preserve" onload="init(evt)">
<style type="text/css"><![CDATA[
.node, .edge {opacity: 0.7;}
.node.selected, .edge.selected {opacity: 1;}
.edge:hover path { stroke: red; }
.edge:hover polygon { stroke: red; fill: red; }
]]></style>
<script type="application/ecmascript" xlink:href="svg.min.js"/>
<svg id="graph" class="graph">
<g id="graph0" class="graph" transform="scale(1 1) rotate(0) translate(4 158.12)">
<title>EQCurveView::draw</title>
<!-- Node1 -->
<g id="Node000001" class="node">
<title>Node1</title>
<g id="a_Node000001"><a xlink:title="Core rendering method of the view.">
<polygon fill="#999999" stroke="#666666" points="112,-95 0,-95 0,-76 112,-76 112,-95"/>
<text text-anchor="middle" x="56" y="-83" font-family="Helvetica,sans-Serif" font-size="10.00">EQCurveView::draw</text>
</a>
</g>
</g>
<!-- Node2 -->
<g id="Node000002" class="node">
<title>Node2</title>
<g id="a_Node000002"><a xlink:href="classEQCurveView.html#ac59e52ff3897ed439e7ed3f030aab7ee" target="_top" xlink:title=" ">
<polygon fill="white" stroke="#666666" points="476.5,-141 360.5,-141 360.5,-122 476.5,-122 476.5,-141"/>
<text text-anchor="middle" x="418.5" y="-129" font-family="Helvetica,sans-Serif" font-size="10.00">EQCurveView::dbToY</text>
</a>
</g>
</g>
<!-- Node1&#45;&gt;Node2 -->
<g id="edge1_Node000001_Node000002" class="edge">
<title>Node1&#45;&gt;Node2</title>
<g id="a_edge1_Node000001_Node000002"><a xlink:title=" ">
<path fill="none" stroke="#63b8ff" d="M68.07,-95.2C84.29,-108.68 116.05,-132.46 148,-141.5 221.16,-162.21 309.95,-152.62 365.1,-142.84"/>
<polygon fill="#63b8ff" stroke="#63b8ff" points="365.79,-146.27 374.99,-141.02 364.52,-139.39 365.79,-146.27"/>
</a>
</g>
</g>
<!-- Node3 -->
<g id="Node000003" class="node">
<title>Node3</title>
<g id="a_Node000003"><a xlink:href="classEQCurveView.html#a4bba398cd5bd372c0f52ac40f57e8fb2" target="_top" xlink:title=" ">
<polygon fill="white" stroke="#666666" points="316,-132 152,-132 152,-113 316,-113 316,-132"/>
<text text-anchor="middle" x="234" y="-120" font-family="Helvetica,sans-Serif" font-size="10.00">EQCurveView::drawDbMarkers</text>
</a>
</g>
</g>
<!-- Node1&#45;&gt;Node3 -->
<g id="edge2_Node000001_Node000003" class="edge">
<title>Node1&#45;&gt;Node3</title>
<g id="a_edge2_Node000001_Node000003"><a xlink:title=" ">
<path fill="none" stroke="#63b8ff" d="M102.32,-95.03C125.33,-99.86 153.47,-105.78 177.74,-110.88"/>
<polygon fill="#63b8ff" stroke="#63b8ff" points="177.02,-114.31 187.52,-112.94 178.46,-107.46 177.02,-114.31"/>
</a>
</g>
</g>
<!-- Node4 -->
<g id="Node000004" class="node">
<title>Node4</title>
<g id="a_Node000004"><a xlink:href="classEQCurveView.html#a1d6f3f02d3ec78149e1228a53b2f373b" target="_top" xlink:title=" ">
<polygon fill="white" stroke="#666666" points="320,-95 148,-95 148,-76 320,-76 320,-95"/>
<text text-anchor="middle" x="234" y="-83" font-family="Helvetica,sans-Serif" font-size="10.00">EQCurveView::drawFreqMarkers</text>
</a>
</g>
</g>
<!-- Node1&#45;&gt;Node4 -->
<g id="edge4_Node000001_Node000004" class="edge">
<title>Node1&#45;&gt;Node4</title>
<g id="a_edge4_Node000001_Node000004"><a xlink:title=" ">
<path fill="none" stroke="#63b8ff" d="M112.2,-85.5C120.32,-85.5 128.87,-85.5 137.52,-85.5"/>
<polygon fill="#63b8ff" stroke="#63b8ff" points="137.69,-89 147.69,-85.5 137.69,-82 137.69,-89"/>
</a>
</g>
</g>
<!-- Node5 -->
<g id="Node000005" class="node">
<title>Node5</title>
<g id="a_Node000005"><a xlink:href="classEQCurveView.html#ad64b165e0a459d18601495af9d099ed3" target="_top" xlink:title="Helper that binds a frequency to the graph&#39;s X axis.">
<polygon fill="white" stroke="#666666" points="481,-85 356,-85 356,-66 481,-66 481,-85"/>
<text text-anchor="middle" x="418.5" y="-73" font-family="Helvetica,sans-Serif" font-size="10.00">EQCurveView::freqToX</text>
</a>
</g>
</g>
<!-- Node1&#45;&gt;Node5 -->
<g id="edge6_Node000001_Node000005" class="edge">
<title>Node1&#45;&gt;Node5</title>
<g id="a_edge6_Node000001_Node000005"><a xlink:title=" ">
<path fill="none" stroke="#63b8ff" d="M93.92,-75.99C110.35,-72.23 130.02,-68.36 148,-66.5 214.71,-59.61 291.16,-63.25 345.56,-67.79"/>
<polygon fill="#63b8ff" stroke="#63b8ff" points="345.52,-71.3 355.79,-68.68 346.13,-64.33 345.52,-71.3"/>
</a>
</g>
</g>
<!-- Node6 -->
<g id="Node000006" class="node">
<title>Node6</title>
<g id="a_Node000006"><a xlink:href="eqshape_8hpp.html#af9de620c284589a47fec7713a0ffd654" target="_top" xlink:title="Converts selected preset from EqShapePreset to a value for the purpose of drawing an EQ curve.">
<polygon fill="white" stroke="#666666" points="284.5,-19 183.5,-19 183.5,0 284.5,0 284.5,-19"/>
<text text-anchor="middle" x="234" y="-7" font-family="Helvetica,sans-Serif" font-size="10.00">shapeFromPreset</text>
</a>
</g>
</g>
<!-- Node1&#45;&gt;Node6 -->
<g id="edge7_Node000001_Node000006" class="edge">
<title>Node1&#45;&gt;Node6</title>
<g id="a_edge7_Node000001_Node000006"><a xlink:title=" ">
<path fill="none" stroke="#63b8ff" d="M71.25,-75.89C88.71,-64.47 119.47,-45.47 148,-33.5 158.61,-29.05 170.3,-25.15 181.53,-21.85"/>
<polygon fill="#63b8ff" stroke="#63b8ff" points="182.56,-25.2 191.24,-19.12 180.66,-18.46 182.56,-25.2"/>
</a>
</g>
</g>
<!-- Node3&#45;&gt;Node2 -->
<g id="edge3_Node000003_Node000002" class="edge">
<title>Node3&#45;&gt;Node2</title>
<g id="a_edge3_Node000003_Node000002"><a xlink:title=" ">
<path fill="none" stroke="#63b8ff" d="M316.11,-126.5C327.55,-127.06 339.21,-127.64 350.35,-128.19"/>
<polygon fill="#63b8ff" stroke="#63b8ff" points="350.26,-131.69 360.42,-128.69 350.6,-124.7 350.26,-131.69"/>
</a>
</g>
</g>
<!-- Node4&#45;&gt;Node5 -->
<g id="edge5_Node000004_Node000005" class="edge">
<title>Node4&#45;&gt;Node5</title>
<g id="a_edge5_Node000004_Node000005"><a xlink:title=" ">
<path fill="none" stroke="#63b8ff" d="M320.11,-80.84C328.69,-80.37 337.36,-79.89 345.78,-79.43"/>
<polygon fill="#63b8ff" stroke="#63b8ff" points="346.13,-82.92 355.93,-78.87 345.75,-75.93 346.13,-82.92"/>
</a>
</g>
</g>
</g>
</svg>
</svg>

<style type='text/css'>
<![CDATA[
[data-mouse-over-selected='false'] { opacity: 0.7; }
[data-mouse-over-selected='true']  { opacity: 1.0; }
]]>
</style>
<script type="application/ecmascript"><![CDATA[
document.addEventListener('DOMContentLoaded', (event) => {
  highlightEdges();
  highlightAdjacentNodes();
});
]]></script>
</svg>
