<?xml version="1.0" encoding="UTF-8" standalone="no"?>
<!DOCTYPE svg PUBLIC "-//W3C//DTD SVG 1.1//EN"
 "http://www.w3.org/Graphics/SVG/1.1/DTD/svg11.dtd">
<!-- Generated by graphviz version 2.43.0 (0)
 -->
<!-- Title: EQCurveView::dbToY Pages: 1 -->
<svg width="472pt" height="46pt"
 viewBox="0.00 0.00 472.00 46.00" xmlns="http://www.w3.org/2000/svg" xmlns:xlink="http://www.w3.org/1999/xlink">
<g id="graph0" class="graph" transform="scale(1 1) rotate(0) translate(4 42)">
<title>EQCurveView::dbToY</title>
<!-- Node1 -->
<g id="Node000001" class="node">
<title>Node1</title>
<g id="a_Node000001"><a xlink:title=" ">
<polygon fill="#999999" stroke="#666666" points="464,-38 348,-38 348,-19 464,-19 464,-38"/>
<text text-anchor="middle" x="406" y="-26" font-family="Helvetica,sans-Serif" font-size="10.00">EQCurveView::dbToY</text>
</a>
</g>
</g>
<!-- Node2 -->
<g id="Node000002" class="node">
<title>Node2</title>
<g id="a_Node000002"><a xlink:href="classEQCurveView.html#aac64098dd70589d822711216097e9cf5" target="_top" xlink:title="Core rendering method of the view.">
<polygon fill="white" stroke="#666666" points="112,-38 0,-38 0,-19 112,-19 112,-38"/>
<text text-anchor="middle" x="56" y="-26" font-family="Helvetica,sans-Serif" font-size="10.00">EQCurveView::draw</text>
</a>
</g>
</g>
<!-- Node1&#45;&gt;Node2 -->
<g id="edge1_Node000001_Node000002" class="edge">
<title>Node1&#45;&gt;Node2</title>
<g id="a_edge1_Node000001_Node000002"><a xlink:title=" ">
<path fill="none" stroke="#63b8ff" d="M337.68,-28.5C271.98,-28.5 173.25,-28.5 112.09,-28.5"/>
<polygon fill="#63b8ff" stroke="#63b8ff" points="337.92,-32 347.92,-28.5 337.92,-25 337.92,-32"/>
</a>
</g>
</g>
<!-- Node3 -->
<g id="Node000003" class="node">
<title>Node3</title>
<g id="a_Node000003"><a xlink:href="classEQCurveView.html#a4bba398cd5bd372c0f52ac40f57e8fb2" target="_top" xlink:title=" ">
<polygon fill="white" stroke="#666666" points="312,-19 148,-19 148,0 312,0 312,-19"/>
<text text-anchor="middle" x="230" y="-7" font-family="Helvetica,sans-Serif" font-size="10.00">EQCurveView::drawDbMarkers</text>
</a>
</g>
</g>
<!-- Node1&#45;&gt;Node3 -->
<g id="edge2_Node000001_Node000003" class="edge">
<title>Node1&#45;&gt;Node3</title>
<g id="a_edge2_Node000001_Node000003"><a xlink:title=" ">
<path fill="none" stroke="#63b8ff" d="M337.5,-21.13C329.15,-20.22 320.54,-19.28 312.01,-18.35"/>
<polygon fill="#63b8ff" stroke="#63b8ff" points="337.22,-24.62 347.54,-22.23 337.98,-17.66 337.22,-24.62"/>
</a>
</g>
</g>
<!-- Node3&#45;&gt;Node2 -->
<g id="edge3_Node000003_Node000002" class="edge">
<title>Node3&#45;&gt;Node2</title>
<g id="a_edge3_Node000003_Node000002"><a xlink:title=" ">
<path fill="none" stroke="#63b8ff" d="M137.65,-19.59C129.02,-20.54 120.47,-21.49 112.34,-22.39"/>
<polygon fill="#63b8ff" stroke="#63b8ff" points="138.23,-23.05 147.78,-18.47 137.46,-16.09 138.23,-23.05"/>
</a>
</g>
</g>
</g>
</svg>
