<?xml version="1.0" encoding="UTF-8" standalone="no"?>
<!DOCTYPE svg PUBLIC "-//W3C//DTD SVG 1.1//EN"
 "http://www.w3.org/Graphics/SVG/1.1/DTD/svg11.dtd">
<!-- Generated by graphviz version 2.43.0 (0)
 -->
<!-- Title: controller.hpp Pages: 1 -->
<svg width="649pt" height="247pt"
 viewBox="0.00 0.00 648.50 247.00" xmlns="http://www.w3.org/2000/svg" xmlns:xlink="http://www.w3.org/1999/xlink">
<g id="graph0" class="graph" transform="scale(1 1) rotate(0) translate(4 243)">
<title>controller.hpp</title>
<!-- Node1 -->
<g id="Node000001" class="node">
<title>Node1</title>
<g id="a_Node000001"><a xlink:title=" ">
<polygon fill="#999999" stroke="#666666" points="356,-239 273,-239 273,-220 356,-220 356,-239"/>
<text text-anchor="middle" x="314.5" y="-227" font-family="Helvetica,sans-Serif" font-size="10.00">controller.hpp</text>
</a>
</g>
</g>
<!-- Node2 -->
<g id="Node000002" class="node">
<title>Node2</title>
<g id="a_Node000002"><a xlink:href="controller_8cpp.html" target="_top" xlink:title=" ">
<polygon fill="white" stroke="#666666" points="83,-184 0,-184 0,-165 83,-165 83,-184"/>
<text text-anchor="middle" x="41.5" y="-172" font-family="Helvetica,sans-Serif" font-size="10.00">controller.cpp</text>
</a>
</g>
</g>
<!-- Node1&#45;&gt;Node2 -->
<g id="edge1_Node000001_Node000002" class="edge">
<title>Node1&#45;&gt;Node2</title>
<g id="a_edge1_Node000001_Node000002"><a xlink:title=" ">
<path fill="none" stroke="#63b8ff" d="M262.71,-218.45C210.66,-208.34 131.42,-192.96 83.26,-183.61"/>
<polygon fill="#63b8ff" stroke="#63b8ff" points="262.26,-221.92 272.74,-220.39 263.59,-215.05 262.26,-221.92"/>
</a>
</g>
</g>
<!-- Node3 -->
<g id="Node000003" class="node">
<title>Node3</title>
<g id="a_Node000003"><a xlink:href="eqcurveview_8cpp.html" target="_top" xlink:title=" ">
<polygon fill="white" stroke="#666666" points="199.5,-184 101.5,-184 101.5,-165 199.5,-165 199.5,-184"/>
<text text-anchor="middle" x="150.5" y="-172" font-family="Helvetica,sans-Serif" font-size="10.00">eqcurveview.cpp</text>
</a>
</g>
</g>
<!-- Node1&#45;&gt;Node3 -->
<g id="edge2_Node000001_Node000003" class="edge">
<title>Node1&#45;&gt;Node3</title>
<g id="a_edge2_Node000001_Node000003"><a xlink:title=" ">
<path fill="none" stroke="#63b8ff" d="M278.29,-216.8C247.68,-206.91 204.55,-192.97 177.06,-184.08"/>
<polygon fill="#63b8ff" stroke="#63b8ff" points="277.56,-220.24 288.15,-219.98 279.71,-213.58 277.56,-220.24"/>
</a>
</g>
</g>
<!-- Node4 -->
<g id="Node000004" class="node">
<title>Node4</title>
<g id="a_Node000004"><a xlink:href="equalizer_8hpp.html" target="_top" xlink:title=" ">
<polygon fill="white" stroke="#666666" points="399.5,-184 317.5,-184 317.5,-165 399.5,-165 399.5,-184"/>
<text text-anchor="middle" x="358.5" y="-172" font-family="Helvetica,sans-Serif" font-size="10.00">equalizer.hpp</text>
</a>
</g>
</g>
<!-- Node1&#45;&gt;Node4 -->
<g id="edge3_Node000001_Node000004" class="edge">
<title>Node1&#45;&gt;Node4</title>
<g id="a_edge3_Node000001_Node000004"><a xlink:title=" ">
<path fill="none" stroke="#63b8ff" d="M328.23,-211.96C335.9,-202.72 345.13,-191.6 351.37,-184.09"/>
<polygon fill="#63b8ff" stroke="#63b8ff" points="325.46,-209.82 321.77,-219.75 330.85,-214.29 325.46,-209.82"/>
</a>
</g>
</g>
<!-- Node9 -->
<g id="Node000009" class="node">
<title>Node9</title>
<g id="a_Node000009"><a xlink:href="pluginfactory_8cpp.html" target="_top" xlink:title="States essential plugin metadata for the host.">
<polygon fill="white" stroke="#666666" points="367.5,-19 267.5,-19 267.5,0 367.5,0 367.5,-19"/>
<text text-anchor="middle" x="317.5" y="-7" font-family="Helvetica,sans-Serif" font-size="10.00">pluginfactory.cpp</text>
</a>
</g>
</g>
<!-- Node1&#45;&gt;Node9 -->
<g id="edge11_Node000001_Node000009" class="edge">
<title>Node1&#45;&gt;Node9</title>
<g id="a_edge11_Node000001_Node000009"><a xlink:title=" ">
<path fill="none" stroke="#63b8ff" d="M295.62,-213.13C271.5,-191.49 234.24,-150.18 246.5,-110 258.26,-71.43 291.68,-35.31 308.12,-19.24"/>
<polygon fill="#63b8ff" stroke="#63b8ff" points="293.64,-216.04 303.5,-219.93 298.21,-210.74 293.64,-216.04"/>
</a>
</g>
</g>
<!-- Node10 -->
<g id="Node000010" class="node">
<title>Node10</title>
<g id="a_Node000010"><a xlink:href="processor_8cpp.html" target="_top" xlink:title=" ">
<polygon fill="white" stroke="#666666" points="523,-19 440,-19 440,0 523,0 523,-19"/>
<text text-anchor="middle" x="481.5" y="-7" font-family="Helvetica,sans-Serif" font-size="10.00">processor.cpp</text>
</a>
</g>
</g>
<!-- Node1&#45;&gt;Node10 -->
<g id="edge14_Node000001_Node000010" class="edge">
<title>Node1&#45;&gt;Node10</title>
<g id="a_edge14_Node000001_Node000010"><a xlink:title=" ">
<path fill="none" stroke="#63b8ff" d="M349.08,-216.24C386,-201.36 443.52,-172.69 475.5,-129 495.77,-101.32 503.39,-88.8 497.5,-55 495.24,-42.06 489.56,-27.91 485.61,-19.12"/>
<polygon fill="#63b8ff" stroke="#63b8ff" points="347.75,-213.01 339.7,-219.9 350.29,-219.53 347.75,-213.01"/>
</a>
</g>
</g>
<!-- Node11 -->
<g id="Node000011" class="node">
<title>Node11</title>
<g id="a_Node000011"><a xlink:href="presetmenu_8hpp.html" target="_top" xlink:title="Defines all classes related to the preset menu selector view object.">
<polygon fill="white" stroke="#666666" points="640.5,-184 544.5,-184 544.5,-165 640.5,-165 640.5,-184"/>
<text text-anchor="middle" x="592.5" y="-172" font-family="Helvetica,sans-Serif" font-size="10.00">presetmenu.hpp</text>
</a>
</g>
</g>
<!-- Node1&#45;&gt;Node11 -->
<g id="edge12_Node000001_Node000011" class="edge">
<title>Node1&#45;&gt;Node11</title>
<g id="a_edge12_Node000001_Node000011"><a xlink:title=" ">
<path fill="none" stroke="#63b8ff" d="M366.18,-218.65C418.4,-208.69 498.26,-193.47 547.83,-184.02"/>
<polygon fill="#63b8ff" stroke="#63b8ff" points="365.29,-215.25 356.12,-220.57 366.6,-222.13 365.29,-215.25"/>
</a>
</g>
</g>
<!-- Node5 -->
<g id="Node000005" class="node">
<title>Node5</title>
<g id="a_Node000005"><a xlink:href="equalizer_8cpp.html" target="_top" xlink:title=" ">
<polygon fill="white" stroke="#666666" points="337,-129 256,-129 256,-110 337,-110 337,-129"/>
<text text-anchor="middle" x="296.5" y="-117" font-family="Helvetica,sans-Serif" font-size="10.00">equalizer.cpp</text>
</a>
</g>
</g>
<!-- Node4&#45;&gt;Node5 -->
<g id="edge4_Node000004_Node000005" class="edge">
<title>Node4&#45;&gt;Node5</title>
<g id="a_edge4_Node000004_Node000005"><a xlink:title=" ">
<path fill="none" stroke="#63b8ff" d="M340.75,-158.32C329.69,-148.87 315.87,-137.06 306.64,-129.17"/>
<polygon fill="#63b8ff" stroke="#63b8ff" points="338.66,-161.15 348.54,-164.98 343.21,-155.83 338.66,-161.15"/>
</a>
</g>
</g>
<!-- Node6 -->
<g id="Node000006" class="node">
<title>Node6</title>
<g id="a_Node000006"><a xlink:href="fftprocessor_8hpp.html" target="_top" xlink:title=" ">
<polygon fill="white" stroke="#666666" points="450,-129 355,-129 355,-110 450,-110 450,-129"/>
<text text-anchor="middle" x="402.5" y="-117" font-family="Helvetica,sans-Serif" font-size="10.00">fftprocessor.hpp</text>
</a>
</g>
</g>
<!-- Node4&#45;&gt;Node6 -->
<g id="edge5_Node000004_Node000006" class="edge">
<title>Node4&#45;&gt;Node6</title>
<g id="a_edge5_Node000004_Node000006"><a xlink:title=" ">
<path fill="none" stroke="#63b8ff" d="M372.23,-156.96C379.9,-147.72 389.13,-136.6 395.37,-129.09"/>
<polygon fill="#63b8ff" stroke="#63b8ff" points="369.46,-154.82 365.77,-164.75 374.85,-159.29 369.46,-154.82"/>
</a>
</g>
</g>
<!-- Node8 -->
<g id="Node000008" class="node">
<title>Node8</title>
<g id="a_Node000008"><a xlink:href="processor_8hpp.html" target="_top" xlink:title=" ">
<polygon fill="white" stroke="#666666" points="488.5,-74 404.5,-74 404.5,-55 488.5,-55 488.5,-74"/>
<text text-anchor="middle" x="446.5" y="-62" font-family="Helvetica,sans-Serif" font-size="10.00">processor.hpp</text>
</a>
</g>
</g>
<!-- Node4&#45;&gt;Node8 -->
<g id="edge10_Node000004_Node000008" class="edge">
<title>Node4&#45;&gt;Node8</title>
<g id="a_edge10_Node000004_Node000008"><a xlink:title=" ">
<path fill="none" stroke="#63b8ff" d="M409.29,-163.5C428.37,-157 448.17,-146.37 459.5,-129 470.69,-111.85 459.4,-86.99 451.94,-74.05"/>
<polygon fill="#63b8ff" stroke="#63b8ff" points="408.25,-160.16 399.72,-166.45 410.31,-166.84 408.25,-160.16"/>
</a>
</g>
</g>
<!-- Node7 -->
<g id="Node000007" class="node">
<title>Node7</title>
<g id="a_Node000007"><a xlink:href="fftprocessor_8cpp.html" target="_top" xlink:title=" ">
<polygon fill="white" stroke="#666666" points="386.5,-74 292.5,-74 292.5,-55 386.5,-55 386.5,-74"/>
<text text-anchor="middle" x="339.5" y="-62" font-family="Helvetica,sans-Serif" font-size="10.00">fftprocessor.cpp</text>
</a>
</g>
</g>
<!-- Node6&#45;&gt;Node7 -->
<g id="edge6_Node000006_Node000007" class="edge">
<title>Node6&#45;&gt;Node7</title>
<g id="a_edge6_Node000006_Node000007"><a xlink:title=" ">
<path fill="none" stroke="#63b8ff" d="M384.46,-103.32C373.23,-93.87 359.18,-82.06 349.81,-74.17"/>
<polygon fill="#63b8ff" stroke="#63b8ff" points="382.47,-106.23 392.38,-109.98 386.98,-100.87 382.47,-106.23"/>
</a>
</g>
</g>
<!-- Node6&#45;&gt;Node8 -->
<g id="edge7_Node000006_Node000008" class="edge">
<title>Node6&#45;&gt;Node8</title>
<g id="a_edge7_Node000006_Node000008"><a xlink:title=" ">
<path fill="none" stroke="#63b8ff" d="M416.23,-101.96C423.9,-92.72 433.13,-81.6 439.37,-74.09"/>
<polygon fill="#63b8ff" stroke="#63b8ff" points="413.46,-99.82 409.77,-109.75 418.85,-104.29 413.46,-99.82"/>
</a>
</g>
</g>
<!-- Node8&#45;&gt;Node9 -->
<g id="edge8_Node000008_Node000009" class="edge">
<title>Node8&#45;&gt;Node9</title>
<g id="a_edge8_Node000008_Node000009"><a xlink:title=" ">
<path fill="none" stroke="#63b8ff" d="M416.46,-51.16C392.58,-41.35 359.78,-27.87 338.6,-19.17"/>
<polygon fill="#63b8ff" stroke="#63b8ff" points="415.19,-54.42 425.77,-54.98 417.85,-47.95 415.19,-54.42"/>
</a>
</g>
</g>
<!-- Node8&#45;&gt;Node10 -->
<g id="edge9_Node000008_Node000010" class="edge">
<title>Node8&#45;&gt;Node10</title>
<g id="a_edge9_Node000008_Node000010"><a xlink:title=" ">
<path fill="none" stroke="#63b8ff" d="M457.8,-46.39C463.82,-37.27 470.97,-26.45 475.83,-19.09"/>
<polygon fill="#63b8ff" stroke="#63b8ff" points="454.87,-44.47 452.28,-54.75 460.71,-48.33 454.87,-44.47"/>
</a>
</g>
</g>
<!-- Node12 -->
<g id="Node000012" class="node">
<title>Node12</title>
<g id="a_Node000012"><a xlink:href="presetmenu_8cpp.html" target="_top" xlink:title=" ">
<polygon fill="white" stroke="#666666" points="640,-129 545,-129 545,-110 640,-110 640,-129"/>
<text text-anchor="middle" x="592.5" y="-117" font-family="Helvetica,sans-Serif" font-size="10.00">presetmenu.cpp</text>
</a>
</g>
</g>
<!-- Node11&#45;&gt;Node12 -->
<g id="edge13_Node000011_Node000012" class="edge">
<title>Node11&#45;&gt;Node12</title>
<g id="a_edge13_Node000011_Node000012"><a xlink:title=" ">
<path fill="none" stroke="#63b8ff" d="M592.5,-154.66C592.5,-145.93 592.5,-135.99 592.5,-129.09"/>
<polygon fill="#63b8ff" stroke="#63b8ff" points="589,-154.75 592.5,-164.75 596,-154.75 589,-154.75"/>
</a>
</g>
</g>
</g>
</svg>
