<?xml version="1.0" encoding="UTF-8" standalone="no"?>
<!DOCTYPE svg PUBLIC "-//W3C//DTD SVG 1.1//EN"
 "http://www.w3.org/Graphics/SVG/1.1/DTD/svg11.dtd">
<!-- Generated by graphviz version 2.43.0 (0)
 -->
<!-- Title: controller.cpp Pages: 1 -->
<svg width="944pt" height="148pt"
 viewBox="0.00 0.00 944.00 148.00" xmlns="http://www.w3.org/2000/svg" xmlns:xlink="http://www.w3.org/1999/xlink">
<g id="graph0" class="graph" transform="scale(1 1) rotate(0) translate(4 144)">
<title>controller.cpp</title>
<!-- Node1 -->
<g id="Node000001" class="node">
<title>Node1</title>
<g id="a_Node000001"><a xlink:title=" ">
<polygon fill="#999999" stroke="#666666" points="645,-140 562,-140 562,-121 645,-121 645,-140"/>
<text text-anchor="middle" x="603.5" y="-128" font-family="Helvetica,sans-Serif" font-size="10.00">controller.cpp</text>
</a>
</g>
</g>
<!-- Node2 -->
<g id="Node000002" class="node">
<title>Node2</title>
<g id="a_Node000002"><a xlink:href="controller_8hpp.html" target="_top" xlink:title=" ">
<polygon fill="white" stroke="#666666" points="384,-85 301,-85 301,-66 384,-66 384,-85"/>
<text text-anchor="middle" x="342.5" y="-73" font-family="Helvetica,sans-Serif" font-size="10.00">controller.hpp</text>
</a>
</g>
</g>
<!-- Node1&#45;&gt;Node2 -->
<g id="edge1_Node000001_Node000002" class="edge">
<title>Node1&#45;&gt;Node2</title>
<g id="a_edge1_Node000001_Node000002"><a xlink:title=" ">
<path fill="none" stroke="#63b8ff" d="M561.86,-121.04C516.35,-111.8 443.38,-96.99 394.23,-87"/>
<polygon fill="#63b8ff" stroke="#63b8ff" points="394.93,-83.57 384.43,-85.01 393.53,-90.43 394.93,-83.57"/>
</a>
</g>
</g>
<!-- Node7 -->
<g id="Node000007" class="node">
<title>Node7</title>
<g id="a_Node000007"><a xlink:href="eqshape_8hpp.html" target="_top" xlink:title=" ">
<polygon fill="white" stroke="#666666" points="542,-85 463,-85 463,-66 542,-66 542,-85"/>
<text text-anchor="middle" x="502.5" y="-73" font-family="Helvetica,sans-Serif" font-size="10.00">eqshape.hpp</text>
</a>
</g>
</g>
<!-- Node1&#45;&gt;Node7 -->
<g id="edge6_Node000001_Node000007" class="edge">
<title>Node1&#45;&gt;Node7</title>
<g id="a_edge6_Node000001_Node000007"><a xlink:title=" ">
<path fill="none" stroke="#63b8ff" d="M587.27,-120.98C571.32,-112.61 546.72,-99.7 528.12,-89.95"/>
<polygon fill="#63b8ff" stroke="#63b8ff" points="529.5,-86.72 519.02,-85.17 526.25,-92.92 529.5,-86.72"/>
</a>
</g>
</g>
<!-- Node9 -->
<g id="Node000009" class="node">
<title>Node9</title>
<g id="a_Node000009"><a xlink:title=" ">
<polygon fill="#e0e0e0" stroke="#999999" points="646.5,-85 560.5,-85 560.5,-66 646.5,-66 646.5,-85"/>
<text text-anchor="middle" x="603.5" y="-73" font-family="Helvetica,sans-Serif" font-size="10.00">base/ustring.h</text>
</a>
</g>
</g>
<!-- Node1&#45;&gt;Node9 -->
<g id="edge8_Node000001_Node000009" class="edge">
<title>Node1&#45;&gt;Node9</title>
<g id="a_edge8_Node000001_Node000009"><a xlink:title=" ">
<path fill="none" stroke="#63b8ff" d="M603.5,-120.75C603.5,-113.8 603.5,-103.85 603.5,-95.13"/>
<polygon fill="#63b8ff" stroke="#63b8ff" points="607,-95.09 603.5,-85.09 600,-95.09 607,-95.09"/>
</a>
</g>
</g>
<!-- Node10 -->
<g id="Node000010" class="node">
<title>Node10</title>
<g id="a_Node000010"><a xlink:title=" ">
<polygon fill="#e0e0e0" stroke="#999999" points="798.5,-85 664.5,-85 664.5,-66 798.5,-66 798.5,-85"/>
<text text-anchor="middle" x="731.5" y="-73" font-family="Helvetica,sans-Serif" font-size="10.00">base/source/fstreamer.h</text>
</a>
</g>
</g>
<!-- Node1&#45;&gt;Node10 -->
<g id="edge9_Node000001_Node000010" class="edge">
<title>Node1&#45;&gt;Node10</title>
<g id="a_edge9_Node000001_Node000010"><a xlink:title=" ">
<path fill="none" stroke="#63b8ff" d="M624.07,-120.98C644.93,-112.34 677.47,-98.87 701.27,-89.02"/>
<polygon fill="#63b8ff" stroke="#63b8ff" points="702.66,-92.23 710.56,-85.17 699.98,-85.76 702.66,-92.23"/>
</a>
</g>
</g>
<!-- Node11 -->
<g id="Node000011" class="node">
<title>Node11</title>
<g id="a_Node000011"><a xlink:title=" ">
<polygon fill="#e0e0e0" stroke="#999999" points="936,-85 817,-85 817,-66 936,-66 936,-85"/>
<text text-anchor="middle" x="876.5" y="-73" font-family="Helvetica,sans-Serif" font-size="10.00">vstgui/lib/vstguiinit.h</text>
</a>
</g>
</g>
<!-- Node1&#45;&gt;Node11 -->
<g id="edge10_Node000001_Node000011" class="edge">
<title>Node1&#45;&gt;Node11</title>
<g id="a_edge10_Node000001_Node000011"><a xlink:title=" ">
<path fill="none" stroke="#63b8ff" d="M645.26,-121.39C692.73,-112.18 770.37,-97.1 822.43,-87"/>
<polygon fill="#63b8ff" stroke="#63b8ff" points="823.33,-90.39 832.48,-85.05 822,-83.52 823.33,-90.39"/>
</a>
</g>
</g>
<!-- Node3 -->
<g id="Node000003" class="node">
<title>Node3</title>
<g id="a_Node000003"><a xlink:title=" ">
<polygon fill="#e0e0e0" stroke="#999999" points="119,-30 0,-30 0,0 119,0 119,-30"/>
<text text-anchor="start" x="8" y="-18" font-family="Helvetica,sans-Serif" font-size="10.00">public.sdk/source/vst</text>
<text text-anchor="middle" x="59.5" y="-7" font-family="Helvetica,sans-Serif" font-size="10.00">/vsteditcontroller.h</text>
</a>
</g>
</g>
<!-- Node2&#45;&gt;Node3 -->
<g id="edge2_Node000002_Node000003" class="edge">
<title>Node2&#45;&gt;Node3</title>
<g id="a_edge2_Node000002_Node000003"><a xlink:title=" ">
<path fill="none" stroke="#63b8ff" d="M301.35,-65.99C256.25,-56.67 183.13,-41.56 129.08,-30.38"/>
<polygon fill="#63b8ff" stroke="#63b8ff" points="129.72,-26.94 119.22,-28.35 128.31,-33.8 129.72,-26.94"/>
</a>
</g>
</g>
<!-- Node4 -->
<g id="Node000004" class="node">
<title>Node4</title>
<g id="a_Node000004"><a xlink:title=" ">
<polygon fill="#e0e0e0" stroke="#999999" points="259.5,-30 137.5,-30 137.5,0 259.5,0 259.5,-30"/>
<text text-anchor="start" x="145.5" y="-18" font-family="Helvetica,sans-Serif" font-size="10.00">vstgui4/vstgui/plugin</text>
<text text-anchor="middle" x="198.5" y="-7" font-family="Helvetica,sans-Serif" font-size="10.00">&#45;bindings/vst3editor.h</text>
</a>
</g>
</g>
<!-- Node2&#45;&gt;Node4 -->
<g id="edge3_Node000002_Node000004" class="edge">
<title>Node2&#45;&gt;Node4</title>
<g id="a_edge3_Node000002_Node000004"><a xlink:title=" ">
<path fill="none" stroke="#63b8ff" d="M321.56,-65.99C300.93,-57.61 268.77,-44.55 242.5,-33.87"/>
<polygon fill="#63b8ff" stroke="#63b8ff" points="243.7,-30.59 233.12,-30.06 241.07,-37.07 243.7,-30.59"/>
</a>
</g>
</g>
<!-- Node5 -->
<g id="Node000005" class="node">
<title>Node5</title>
<g id="a_Node000005"><a xlink:title=" ">
<polygon fill="#e0e0e0" stroke="#999999" points="407,-30 278,-30 278,0 407,0 407,-30"/>
<text text-anchor="start" x="286" y="-18" font-family="Helvetica,sans-Serif" font-size="10.00">public.sdk/source/main</text>
<text text-anchor="middle" x="342.5" y="-7" font-family="Helvetica,sans-Serif" font-size="10.00">/moduleinit.h</text>
</a>
</g>
</g>
<!-- Node2&#45;&gt;Node5 -->
<g id="edge4_Node000002_Node000005" class="edge">
<title>Node2&#45;&gt;Node5</title>
<g id="a_edge4_Node000002_Node000005"><a xlink:title=" ">
<path fill="none" stroke="#63b8ff" d="M342.5,-65.87C342.5,-59.11 342.5,-49.35 342.5,-40.26"/>
<polygon fill="#63b8ff" stroke="#63b8ff" points="346,-40.11 342.5,-30.11 339,-40.11 346,-40.11"/>
</a>
</g>
</g>
<!-- Node6 -->
<g id="Node000006" class="node">
<title>Node6</title>
<g id="a_Node000006"><a xlink:href="eqconstants_8hpp.html" target="_top" xlink:title=" ">
<polygon fill="white" stroke="#666666" points="522,-24.5 425,-24.5 425,-5.5 522,-5.5 522,-24.5"/>
<text text-anchor="middle" x="473.5" y="-12.5" font-family="Helvetica,sans-Serif" font-size="10.00">eqconstants.hpp</text>
</a>
</g>
</g>
<!-- Node2&#45;&gt;Node6 -->
<g id="edge5_Node000002_Node000006" class="edge">
<title>Node2&#45;&gt;Node6</title>
<g id="a_edge5_Node000002_Node000006"><a xlink:title=" ">
<path fill="none" stroke="#63b8ff" d="M361.55,-65.99C383.47,-56.2 419.71,-40.02 445,-28.73"/>
<polygon fill="#63b8ff" stroke="#63b8ff" points="446.72,-31.79 454.43,-24.52 443.87,-25.4 446.72,-31.79"/>
</a>
</g>
</g>
<!-- Node8 -->
<g id="Node000008" class="node">
<title>Node8</title>
<g id="a_Node000008"><a xlink:title=" ">
<polygon fill="#e0e0e0" stroke="#999999" points="587,-24.5 540,-24.5 540,-5.5 587,-5.5 587,-24.5"/>
<text text-anchor="middle" x="563.5" y="-12.5" font-family="Helvetica,sans-Serif" font-size="10.00">cmath</text>
</a>
</g>
</g>
<!-- Node7&#45;&gt;Node8 -->
<g id="edge7_Node000007_Node000008" class="edge">
<title>Node7&#45;&gt;Node8</title>
<g id="a_edge7_Node000007_Node000008"><a xlink:title=" ">
<path fill="none" stroke="#63b8ff" d="M511.5,-65.87C520.87,-56.88 535.75,-42.61 547.2,-31.64"/>
<polygon fill="#63b8ff" stroke="#63b8ff" points="549.67,-34.12 554.46,-24.67 544.82,-29.06 549.67,-34.12"/>
</a>
</g>
</g>
</g>
</svg>
