<?xml version="1.0" encoding="UTF-8" standalone="no"?>
<!DOCTYPE svg PUBLIC "-//W3C//DTD SVG 1.1//EN"
 "http://www.w3.org/Graphics/SVG/1.1/DTD/svg11.dtd">
<!-- Generated by graphviz version 2.43.0 (0)
 -->
<!-- Title: eqconstants.hpp Pages: 1 -->
<svg width="786pt" height="302pt"
 viewBox="0.00 0.00 785.50 302.00" xmlns="http://www.w3.org/2000/svg" xmlns:xlink="http://www.w3.org/1999/xlink">
<g id="graph0" class="graph" transform="scale(1 1) rotate(0) translate(4 298)">
<title>eqconstants.hpp</title>
<!-- Node1 -->
<g id="Node000001" class="node">
<title>Node1</title>
<g id="a_Node000001"><a xlink:title=" ">
<polygon fill="#999999" stroke="#666666" points="438,-294 341,-294 341,-275 438,-275 438,-294"/>
<text text-anchor="middle" x="389.5" y="-282" font-family="Helvetica,sans-Serif" font-size="10.00">eqconstants.hpp</text>
</a>
</g>
</g>
<!-- Node2 -->
<g id="Node000002" class="node">
<title>Node2</title>
<g id="a_Node000002"><a xlink:href="controller_8hpp.html" target="_top" xlink:title=" ">
<polygon fill="white" stroke="#666666" points="431,-239 348,-239 348,-220 431,-220 431,-239"/>
<text text-anchor="middle" x="389.5" y="-227" font-family="Helvetica,sans-Serif" font-size="10.00">controller.hpp</text>
</a>
</g>
</g>
<!-- Node1&#45;&gt;Node2 -->
<g id="edge1_Node000001_Node000002" class="edge">
<title>Node1&#45;&gt;Node2</title>
<g id="a_edge1_Node000001_Node000002"><a xlink:title=" ">
<path fill="none" stroke="#63b8ff" d="M389.5,-264.66C389.5,-255.93 389.5,-245.99 389.5,-239.09"/>
<polygon fill="#63b8ff" stroke="#63b8ff" points="386,-264.75 389.5,-274.75 393,-264.75 386,-264.75"/>
</a>
</g>
</g>
<!-- Node5 -->
<g id="Node000005" class="node">
<title>Node5</title>
<g id="a_Node000005"><a xlink:href="equalizer_8hpp.html" target="_top" xlink:title=" ">
<polygon fill="white" stroke="#666666" points="247.5,-184 165.5,-184 165.5,-165 247.5,-165 247.5,-184"/>
<text text-anchor="middle" x="206.5" y="-172" font-family="Helvetica,sans-Serif" font-size="10.00">equalizer.hpp</text>
</a>
</g>
</g>
<!-- Node1&#45;&gt;Node5 -->
<g id="edge19_Node000001_Node000005" class="edge">
<title>Node1&#45;&gt;Node5</title>
<g id="a_edge19_Node000001_Node000005"><a xlink:title=" ">
<path fill="none" stroke="#63b8ff" d="M365.9,-269.57C327.46,-246.89 252.48,-202.64 220.98,-184.05"/>
<polygon fill="#63b8ff" stroke="#63b8ff" points="364.44,-272.78 374.83,-274.84 368,-266.75 364.44,-272.78"/>
</a>
</g>
</g>
<!-- Node14 -->
<g id="Node000014" class="node">
<title>Node14</title>
<g id="a_Node000014"><a xlink:href="eqcurveview_8hpp.html" target="_top" xlink:title="Declares the EQCurveView class and its helpers.">
<polygon fill="white" stroke="#666666" points="656,-239 557,-239 557,-220 656,-220 656,-239"/>
<text text-anchor="middle" x="606.5" y="-227" font-family="Helvetica,sans-Serif" font-size="10.00">eqcurveview.hpp</text>
</a>
</g>
</g>
<!-- Node1&#45;&gt;Node14 -->
<g id="edge16_Node000001_Node000014" class="edge">
<title>Node1&#45;&gt;Node14</title>
<g id="a_edge16_Node000001_Node000014"><a xlink:title=" ">
<path fill="none" stroke="#63b8ff" d="M434.27,-272.56C474.92,-262.64 534.03,-248.2 571.36,-239.08"/>
<polygon fill="#63b8ff" stroke="#63b8ff" points="433.25,-269.21 424.36,-274.98 434.91,-276.01 433.25,-269.21"/>
</a>
</g>
</g>
<!-- Node3 -->
<g id="Node000003" class="node">
<title>Node3</title>
<g id="a_Node000003"><a xlink:href="controller_8cpp.html" target="_top" xlink:title=" ">
<polygon fill="white" stroke="#666666" points="539,-184 456,-184 456,-165 539,-165 539,-184"/>
<text text-anchor="middle" x="497.5" y="-172" font-family="Helvetica,sans-Serif" font-size="10.00">controller.cpp</text>
</a>
</g>
</g>
<!-- Node2&#45;&gt;Node3 -->
<g id="edge2_Node000002_Node000003" class="edge">
<title>Node2&#45;&gt;Node3</title>
<g id="a_edge2_Node000002_Node000003"><a xlink:title=" ">
<path fill="none" stroke="#63b8ff" d="M415.99,-215.5C435.86,-205.75 462.5,-192.68 479.83,-184.17"/>
<polygon fill="#63b8ff" stroke="#63b8ff" points="414.29,-212.44 406.85,-219.98 417.37,-218.72 414.29,-212.44"/>
</a>
</g>
</g>
<!-- Node4 -->
<g id="Node000004" class="node">
<title>Node4</title>
<g id="a_Node000004"><a xlink:href="eqcurveview_8cpp.html" target="_top" xlink:title=" ">
<polygon fill="white" stroke="#666666" points="655.5,-184 557.5,-184 557.5,-165 655.5,-165 655.5,-184"/>
<text text-anchor="middle" x="606.5" y="-172" font-family="Helvetica,sans-Serif" font-size="10.00">eqcurveview.cpp</text>
</a>
</g>
</g>
<!-- Node2&#45;&gt;Node4 -->
<g id="edge3_Node000002_Node000004" class="edge">
<title>Node2&#45;&gt;Node4</title>
<g id="a_edge3_Node000002_Node000004"><a xlink:title=" ">
<path fill="none" stroke="#63b8ff" d="M434.27,-217.56C474.92,-207.64 534.03,-193.2 571.36,-184.08"/>
<polygon fill="#63b8ff" stroke="#63b8ff" points="433.25,-214.21 424.36,-219.98 434.91,-221.01 433.25,-214.21"/>
</a>
</g>
</g>
<!-- Node2&#45;&gt;Node5 -->
<g id="edge4_Node000002_Node000005" class="edge">
<title>Node2&#45;&gt;Node5</title>
<g id="a_edge4_Node000002_Node000005"><a xlink:title=" ">
<path fill="none" stroke="#63b8ff" d="M350.43,-217.18C316.2,-207.27 267.21,-193.08 236.13,-184.08"/>
<polygon fill="#63b8ff" stroke="#63b8ff" points="349.52,-220.56 360.1,-219.98 351.47,-213.84 349.52,-220.56"/>
</a>
</g>
</g>
<!-- Node10 -->
<g id="Node000010" class="node">
<title>Node10</title>
<g id="a_Node000010"><a xlink:href="pluginfactory_8cpp.html" target="_top" xlink:title="States essential plugin metadata for the host.">
<polygon fill="white" stroke="#666666" points="439.5,-19 339.5,-19 339.5,0 439.5,0 439.5,-19"/>
<text text-anchor="middle" x="389.5" y="-7" font-family="Helvetica,sans-Serif" font-size="10.00">pluginfactory.cpp</text>
</a>
</g>
</g>
<!-- Node2&#45;&gt;Node10 -->
<g id="edge12_Node000002_Node000010" class="edge">
<title>Node2&#45;&gt;Node10</title>
<g id="a_edge12_Node000002_Node000010"><a xlink:title=" ">
<path fill="none" stroke="#63b8ff" d="M398.93,-210.96C402.71,-202.97 406.61,-193.26 408.5,-184 421.25,-121.66 400.3,-44.85 392.36,-19.25"/>
<polygon fill="#63b8ff" stroke="#63b8ff" points="395.76,-209.47 394.38,-219.98 402.01,-212.63 395.76,-209.47"/>
</a>
</g>
</g>
<!-- Node11 -->
<g id="Node000011" class="node">
<title>Node11</title>
<g id="a_Node000011"><a xlink:href="processor_8cpp.html" target="_top" xlink:title=" ">
<polygon fill="white" stroke="#666666" points="282,-19 199,-19 199,0 282,0 282,-19"/>
<text text-anchor="middle" x="240.5" y="-7" font-family="Helvetica,sans-Serif" font-size="10.00">processor.cpp</text>
</a>
</g>
</g>
<!-- Node2&#45;&gt;Node11 -->
<g id="edge15_Node000002_Node000011" class="edge">
<title>Node2&#45;&gt;Node11</title>
<g id="a_edge15_Node000002_Node000011"><a xlink:title=" ">
<path fill="none" stroke="#63b8ff" d="M345.04,-216.52C327.12,-209.65 307.62,-199.27 294.5,-184 255.56,-138.66 275.06,-111.81 256.5,-55 252.42,-42.51 247.19,-28.25 243.84,-19.31"/>
<polygon fill="#63b8ff" stroke="#63b8ff" points="344.19,-219.93 354.79,-219.98 346.54,-213.33 344.19,-219.93"/>
</a>
</g>
</g>
<!-- Node12 -->
<g id="Node000012" class="node">
<title>Node12</title>
<g id="a_Node000012"><a xlink:href="presetmenu_8hpp.html" target="_top" xlink:title="Defines all classes related to the preset menu selector view object.">
<polygon fill="white" stroke="#666666" points="399.5,-184 303.5,-184 303.5,-165 399.5,-165 399.5,-184"/>
<text text-anchor="middle" x="351.5" y="-172" font-family="Helvetica,sans-Serif" font-size="10.00">presetmenu.hpp</text>
</a>
</g>
</g>
<!-- Node2&#45;&gt;Node12 -->
<g id="edge13_Node000002_Node000012" class="edge">
<title>Node2&#45;&gt;Node12</title>
<g id="a_edge13_Node000002_Node000012"><a xlink:title=" ">
<path fill="none" stroke="#63b8ff" d="M377.23,-211.39C370.69,-202.27 362.93,-191.45 357.66,-184.09"/>
<polygon fill="#63b8ff" stroke="#63b8ff" points="374.55,-213.66 383.23,-219.75 380.24,-209.58 374.55,-213.66"/>
</a>
</g>
</g>
<!-- Node6 -->
<g id="Node000006" class="node">
<title>Node6</title>
<g id="a_Node000006"><a xlink:href="equalizer_8cpp.html" target="_top" xlink:title=" ">
<polygon fill="white" stroke="#666666" points="81,-129 0,-129 0,-110 81,-110 81,-129"/>
<text text-anchor="middle" x="40.5" y="-117" font-family="Helvetica,sans-Serif" font-size="10.00">equalizer.cpp</text>
</a>
</g>
</g>
<!-- Node5&#45;&gt;Node6 -->
<g id="edge5_Node000005_Node000006" class="edge">
<title>Node5&#45;&gt;Node6</title>
<g id="a_edge5_Node000005_Node000006"><a xlink:title=" ">
<path fill="none" stroke="#63b8ff" d="M170.25,-161.93C139.25,-152.03 95.33,-138.01 67.38,-129.08"/>
<polygon fill="#63b8ff" stroke="#63b8ff" points="169.24,-165.28 179.83,-164.98 171.37,-158.61 169.24,-165.28"/>
</a>
</g>
</g>
<!-- Node7 -->
<g id="Node000007" class="node">
<title>Node7</title>
<g id="a_Node000007"><a xlink:href="fftprocessor_8hpp.html" target="_top" xlink:title=" ">
<polygon fill="white" stroke="#666666" points="194,-129 99,-129 99,-110 194,-110 194,-129"/>
<text text-anchor="middle" x="146.5" y="-117" font-family="Helvetica,sans-Serif" font-size="10.00">fftprocessor.hpp</text>
</a>
</g>
</g>
<!-- Node5&#45;&gt;Node7 -->
<g id="edge6_Node000005_Node000007" class="edge">
<title>Node5&#45;&gt;Node7</title>
<g id="a_edge6_Node000005_Node000007"><a xlink:title=" ">
<path fill="none" stroke="#63b8ff" d="M189.32,-158.32C178.62,-148.87 165.24,-137.06 156.32,-129.17"/>
<polygon fill="#63b8ff" stroke="#63b8ff" points="187.05,-160.99 196.86,-164.98 191.68,-155.74 187.05,-160.99"/>
</a>
</g>
</g>
<!-- Node9 -->
<g id="Node000009" class="node">
<title>Node9</title>
<g id="a_Node000009"><a xlink:href="processor_8hpp.html" target="_top" xlink:title=" ">
<polygon fill="white" stroke="#666666" points="247.5,-74 163.5,-74 163.5,-55 247.5,-55 247.5,-74"/>
<text text-anchor="middle" x="205.5" y="-62" font-family="Helvetica,sans-Serif" font-size="10.00">processor.hpp</text>
</a>
</g>
</g>
<!-- Node5&#45;&gt;Node9 -->
<g id="edge11_Node000005_Node000009" class="edge">
<title>Node5&#45;&gt;Node9</title>
<g id="a_edge11_Node000005_Node000009"><a xlink:title=" ">
<path fill="none" stroke="#63b8ff" d="M206.32,-154.48C206.11,-130.84 205.74,-91.5 205.58,-74.16"/>
<polygon fill="#63b8ff" stroke="#63b8ff" points="202.83,-154.69 206.42,-164.66 209.83,-154.63 202.83,-154.69"/>
</a>
</g>
</g>
<!-- Node8 -->
<g id="Node000008" class="node">
<title>Node8</title>
<g id="a_Node000008"><a xlink:href="fftprocessor_8cpp.html" target="_top" xlink:title=" ">
<polygon fill="white" stroke="#666666" points="145.5,-74 51.5,-74 51.5,-55 145.5,-55 145.5,-74"/>
<text text-anchor="middle" x="98.5" y="-62" font-family="Helvetica,sans-Serif" font-size="10.00">fftprocessor.cpp</text>
</a>
</g>
</g>
<!-- Node7&#45;&gt;Node8 -->
<g id="edge7_Node000007_Node000008" class="edge">
<title>Node7&#45;&gt;Node8</title>
<g id="a_edge7_Node000007_Node000008"><a xlink:title=" ">
<path fill="none" stroke="#63b8ff" d="M131.77,-102.24C123.36,-92.95 113.15,-81.68 106.28,-74.09"/>
<polygon fill="#63b8ff" stroke="#63b8ff" points="129.27,-104.69 138.57,-109.75 134.46,-99.99 129.27,-104.69"/>
</a>
</g>
</g>
<!-- Node7&#45;&gt;Node9 -->
<g id="edge8_Node000007_Node000009" class="edge">
<title>Node7&#45;&gt;Node9</title>
<g id="a_edge8_Node000007_Node000009"><a xlink:title=" ">
<path fill="none" stroke="#63b8ff" d="M163.7,-103.04C174.17,-93.64 187.15,-81.98 195.85,-74.17"/>
<polygon fill="#63b8ff" stroke="#63b8ff" points="161.08,-100.7 155.98,-109.98 165.76,-105.91 161.08,-100.7"/>
</a>
</g>
</g>
<!-- Node9&#45;&gt;Node10 -->
<g id="edge9_Node000009_Node000010" class="edge">
<title>Node9&#45;&gt;Node10</title>
<g id="a_edge9_Node000009_Node000010"><a xlink:title=" ">
<path fill="none" stroke="#63b8ff" d="M244.79,-52.18C279.2,-42.27 328.46,-28.08 359.71,-19.08"/>
<polygon fill="#63b8ff" stroke="#63b8ff" points="243.7,-48.85 235.06,-54.98 245.64,-55.58 243.7,-48.85"/>
</a>
</g>
</g>
<!-- Node9&#45;&gt;Node11 -->
<g id="edge10_Node000009_Node000011" class="edge">
<title>Node9&#45;&gt;Node11</title>
<g id="a_edge10_Node000009_Node000011"><a xlink:title=" ">
<path fill="none" stroke="#63b8ff" d="M216.8,-46.39C222.82,-37.27 229.97,-26.45 234.83,-19.09"/>
<polygon fill="#63b8ff" stroke="#63b8ff" points="213.87,-44.47 211.28,-54.75 219.71,-48.33 213.87,-44.47"/>
</a>
</g>
</g>
<!-- Node13 -->
<g id="Node000013" class="node">
<title>Node13</title>
<g id="a_Node000013"><a xlink:href="presetmenu_8cpp.html" target="_top" xlink:title=" ">
<polygon fill="white" stroke="#666666" points="399,-129 304,-129 304,-110 399,-110 399,-129"/>
<text text-anchor="middle" x="351.5" y="-117" font-family="Helvetica,sans-Serif" font-size="10.00">presetmenu.cpp</text>
</a>
</g>
</g>
<!-- Node12&#45;&gt;Node13 -->
<g id="edge14_Node000012_Node000013" class="edge">
<title>Node12&#45;&gt;Node13</title>
<g id="a_edge14_Node000012_Node000013"><a xlink:title=" ">
<path fill="none" stroke="#63b8ff" d="M351.5,-154.66C351.5,-145.93 351.5,-135.99 351.5,-129.09"/>
<polygon fill="#63b8ff" stroke="#63b8ff" points="348,-154.75 351.5,-164.75 355,-154.75 348,-154.75"/>
</a>
</g>
</g>
<!-- Node14&#45;&gt;Node4 -->
<g id="edge17_Node000014_Node000004" class="edge">
<title>Node14&#45;&gt;Node4</title>
<g id="a_edge17_Node000014_Node000004"><a xlink:title=" ">
<path fill="none" stroke="#63b8ff" d="M606.5,-209.66C606.5,-200.93 606.5,-190.99 606.5,-184.09"/>
<polygon fill="#63b8ff" stroke="#63b8ff" points="603,-209.75 606.5,-219.75 610,-209.75 603,-209.75"/>
</a>
</g>
</g>
<!-- Node15 -->
<g id="Node000015" class="node">
<title>Node15</title>
<g id="a_Node000015"><a xlink:href="paramlistener_8cpp.html" target="_top" xlink:title=" ">
<polygon fill="white" stroke="#666666" points="777.5,-184 673.5,-184 673.5,-165 777.5,-165 777.5,-184"/>
<text text-anchor="middle" x="725.5" y="-172" font-family="Helvetica,sans-Serif" font-size="10.00">paramlistener.cpp</text>
</a>
</g>
</g>
<!-- Node14&#45;&gt;Node15 -->
<g id="edge18_Node000014_Node000015" class="edge">
<title>Node14&#45;&gt;Node15</title>
<g id="a_edge18_Node000014_Node000015"><a xlink:title=" ">
<path fill="none" stroke="#63b8ff" d="M634.8,-215.9C656.78,-206.11 686.68,-192.79 706.03,-184.17"/>
<polygon fill="#63b8ff" stroke="#63b8ff" points="633.33,-212.72 625.62,-219.98 636.18,-219.11 633.33,-212.72"/>
</a>
</g>
</g>
</g>
</svg>
