<?xml version="1.0" encoding="UTF-8" standalone="no"?>
<!DOCTYPE svg PUBLIC "-//W3C//DTD SVG 1.1//EN"
 "http://www.w3.org/Graphics/SVG/1.1/DTD/svg11.dtd">
<!-- Generated by graphviz version 2.43.0 (0)
 -->
<!-- Title: eqcurveview.hpp Pages: 1 -->
<svg width="1759pt" height="148pt"
 viewBox="0.00 0.00 1759.00 148.00" xmlns="http://www.w3.org/2000/svg" xmlns:xlink="http://www.w3.org/1999/xlink">
<g id="graph0" class="graph" transform="scale(1 1) rotate(0) translate(4 144)">
<title>eqcurveview.hpp</title>
<!-- Node1 -->
<g id="Node000001" class="node">
<title>Node1</title>
<g id="a_Node000001"><a xlink:title="Declares the EQCurveView class and its helpers.">
<polygon fill="#999999" stroke="#666666" points="775.5,-140 676.5,-140 676.5,-121 775.5,-121 775.5,-140"/>
<text text-anchor="middle" x="726" y="-128" font-family="Helvetica,sans-Serif" font-size="10.00">eqcurveview.hpp</text>
</a>
</g>
</g>
<!-- Node2 -->
<g id="Node000002" class="node">
<title>Node2</title>
<g id="a_Node000002"><a xlink:title=" ">
<polygon fill="#e0e0e0" stroke="#999999" points="58,-79.5 0,-79.5 0,-60.5 58,-60.5 58,-79.5"/>
<text text-anchor="middle" x="29" y="-67.5" font-family="Helvetica,sans-Serif" font-size="10.00">memory</text>
</a>
</g>
</g>
<!-- Node1&#45;&gt;Node2 -->
<g id="edge1_Node000001_Node000002" class="edge">
<title>Node1&#45;&gt;Node2</title>
<g id="a_edge1_Node000001_Node000002"><a xlink:title=" ">
<path fill="none" stroke="#63b8ff" d="M676.14,-127.91C543.49,-123.41 184.14,-109.28 68,-85 65,-84.37 61.92,-83.57 58.86,-82.66"/>
<polygon fill="#63b8ff" stroke="#63b8ff" points="59.93,-79.32 49.34,-79.5 57.73,-85.97 59.93,-79.32"/>
</a>
</g>
</g>
<!-- Node3 -->
<g id="Node000003" class="node">
<title>Node3</title>
<g id="a_Node000003"><a xlink:href="eqconstants_8hpp.html" target="_top" xlink:title=" ">
<polygon fill="white" stroke="#666666" points="173.5,-79.5 76.5,-79.5 76.5,-60.5 173.5,-60.5 173.5,-79.5"/>
<text text-anchor="middle" x="125" y="-67.5" font-family="Helvetica,sans-Serif" font-size="10.00">eqconstants.hpp</text>
</a>
</g>
</g>
<!-- Node1&#45;&gt;Node3 -->
<g id="edge2_Node000001_Node000003" class="edge">
<title>Node1&#45;&gt;Node3</title>
<g id="a_edge2_Node000001_Node000003"><a xlink:title=" ">
<path fill="none" stroke="#63b8ff" d="M676.28,-128C580.34,-124.55 363.24,-113.96 183,-85 177.57,-84.13 171.89,-83.01 166.31,-81.8"/>
<polygon fill="#63b8ff" stroke="#63b8ff" points="166.96,-78.36 156.43,-79.53 165.39,-85.18 166.96,-78.36"/>
</a>
</g>
</g>
<!-- Node4 -->
<g id="Node000004" class="node">
<title>Node4</title>
<g id="a_Node000004"><a xlink:href="eqshape_8hpp.html" target="_top" xlink:title=" ">
<polygon fill="white" stroke="#666666" points="270.5,-79.5 191.5,-79.5 191.5,-60.5 270.5,-60.5 270.5,-79.5"/>
<text text-anchor="middle" x="231" y="-67.5" font-family="Helvetica,sans-Serif" font-size="10.00">eqshape.hpp</text>
</a>
</g>
</g>
<!-- Node1&#45;&gt;Node4 -->
<g id="edge3_Node000001_Node000004" class="edge">
<title>Node1&#45;&gt;Node4</title>
<g id="a_edge3_Node000001_Node000004"><a xlink:title=" ">
<path fill="none" stroke="#63b8ff" d="M676.42,-127.45C593.64,-123.38 422.35,-112.21 280,-85 275.85,-84.21 271.53,-83.22 267.27,-82.14"/>
<polygon fill="#63b8ff" stroke="#63b8ff" points="268.06,-78.73 257.49,-79.5 266.24,-85.49 268.06,-78.73"/>
</a>
</g>
</g>
<!-- Node6 -->
<g id="Node000006" class="node">
<title>Node6</title>
<g id="a_Node000006"><a xlink:title=" ">
<polygon fill="#e0e0e0" stroke="#999999" points="389.5,-79.5 288.5,-79.5 288.5,-60.5 389.5,-60.5 389.5,-79.5"/>
<text text-anchor="middle" x="339" y="-67.5" font-family="Helvetica,sans-Serif" font-size="10.00">vstgui/lib/cview.h</text>
</a>
</g>
</g>
<!-- Node1&#45;&gt;Node6 -->
<g id="edge5_Node000001_Node000006" class="edge">
<title>Node1&#45;&gt;Node6</title>
<g id="a_edge5_Node000001_Node000006"><a xlink:title=" ">
<path fill="none" stroke="#63b8ff" d="M676.47,-124.23C612.21,-117.05 496.76,-103.02 399,-85 393.87,-84.05 388.52,-82.96 383.22,-81.81"/>
<polygon fill="#63b8ff" stroke="#63b8ff" points="383.67,-78.33 373.15,-79.55 382.14,-85.16 383.67,-78.33"/>
</a>
</g>
</g>
<!-- Node7 -->
<g id="Node000007" class="node">
<title>Node7</title>
<g id="a_Node000007"><a xlink:title=" ">
<polygon fill="#e0e0e0" stroke="#999999" points="520.5,-85 407.5,-85 407.5,-55 520.5,-55 520.5,-85"/>
<text text-anchor="start" x="415.5" y="-73" font-family="Helvetica,sans-Serif" font-size="10.00">vstgui/uidescription</text>
<text text-anchor="middle" x="464" y="-62" font-family="Helvetica,sans-Serif" font-size="10.00">/iuidescription.h</text>
</a>
</g>
</g>
<!-- Node1&#45;&gt;Node7 -->
<g id="edge6_Node000001_Node000007" class="edge">
<title>Node1&#45;&gt;Node7</title>
<g id="a_edge6_Node000001_Node000007"><a xlink:title=" ">
<path fill="none" stroke="#63b8ff" d="M687.9,-120.99C646.74,-111.8 580.37,-96.98 530.56,-85.86"/>
<polygon fill="#63b8ff" stroke="#63b8ff" points="531.03,-82.38 520.51,-83.62 529.51,-89.21 531.03,-82.38"/>
</a>
</g>
</g>
<!-- Node8 -->
<g id="Node000008" class="node">
<title>Node8</title>
<g id="a_Node000008"><a xlink:title=" ">
<polygon fill="#e0e0e0" stroke="#999999" points="651.5,-85 538.5,-85 538.5,-55 651.5,-55 651.5,-85"/>
<text text-anchor="start" x="546.5" y="-73" font-family="Helvetica,sans-Serif" font-size="10.00">vstgui/uidescription</text>
<text text-anchor="middle" x="595" y="-62" font-family="Helvetica,sans-Serif" font-size="10.00">/iviewcreator.h</text>
</a>
</g>
</g>
<!-- Node1&#45;&gt;Node8 -->
<g id="edge7_Node000001_Node000008" class="edge">
<title>Node1&#45;&gt;Node8</title>
<g id="a_edge7_Node000001_Node000008"><a xlink:title=" ">
<path fill="none" stroke="#63b8ff" d="M706.95,-120.99C688.35,-112.68 659.44,-99.78 635.66,-89.16"/>
<polygon fill="#63b8ff" stroke="#63b8ff" points="637.05,-85.95 626.49,-85.06 634.2,-92.34 637.05,-85.95"/>
</a>
</g>
</g>
<!-- Node9 -->
<g id="Node000009" class="node">
<title>Node9</title>
<g id="a_Node000009"><a xlink:title=" ">
<polygon fill="#e0e0e0" stroke="#999999" points="782.5,-85 669.5,-85 669.5,-55 782.5,-55 782.5,-85"/>
<text text-anchor="start" x="677.5" y="-73" font-family="Helvetica,sans-Serif" font-size="10.00">vstgui/uidescription</text>
<text text-anchor="middle" x="726" y="-62" font-family="Helvetica,sans-Serif" font-size="10.00">/uiattributes.h</text>
</a>
</g>
</g>
<!-- Node1&#45;&gt;Node9 -->
<g id="edge8_Node000001_Node000009" class="edge">
<title>Node1&#45;&gt;Node9</title>
<g id="a_edge8_Node000001_Node000009"><a xlink:title=" ">
<path fill="none" stroke="#63b8ff" d="M726,-120.87C726,-114.11 726,-104.35 726,-95.26"/>
<polygon fill="#63b8ff" stroke="#63b8ff" points="729.5,-95.11 726,-85.11 722.5,-95.11 729.5,-95.11"/>
</a>
</g>
</g>
<!-- Node10 -->
<g id="Node000010" class="node">
<title>Node10</title>
<g id="a_Node000010"><a xlink:title=" ">
<polygon fill="#e0e0e0" stroke="#999999" points="913.5,-85 800.5,-85 800.5,-55 913.5,-55 913.5,-85"/>
<text text-anchor="start" x="808.5" y="-73" font-family="Helvetica,sans-Serif" font-size="10.00">vstgui/uidescription</text>
<text text-anchor="middle" x="857" y="-62" font-family="Helvetica,sans-Serif" font-size="10.00">/uiviewfactory.h</text>
</a>
</g>
</g>
<!-- Node1&#45;&gt;Node10 -->
<g id="edge9_Node000001_Node000010" class="edge">
<title>Node1&#45;&gt;Node10</title>
<g id="a_edge9_Node000001_Node000010"><a xlink:title=" ">
<path fill="none" stroke="#63b8ff" d="M745.05,-120.99C763.65,-112.68 792.56,-99.78 816.34,-89.16"/>
<polygon fill="#63b8ff" stroke="#63b8ff" points="817.8,-92.34 825.51,-85.06 814.95,-85.95 817.8,-92.34"/>
</a>
</g>
</g>
<!-- Node11 -->
<g id="Node000011" class="node">
<title>Node11</title>
<g id="a_Node000011"><a xlink:title=" ">
<polygon fill="#e0e0e0" stroke="#999999" points="1104.5,-85 931.5,-85 931.5,-55 1104.5,-55 1104.5,-85"/>
<text text-anchor="start" x="939.5" y="-73" font-family="Helvetica,sans-Serif" font-size="10.00">vstgui/uidescription</text>
<text text-anchor="middle" x="1018" y="-62" font-family="Helvetica,sans-Serif" font-size="10.00">/detail/uiviewcreatorattributes.h</text>
</a>
</g>
</g>
<!-- Node1&#45;&gt;Node11 -->
<g id="edge10_Node000001_Node000011" class="edge">
<title>Node1&#45;&gt;Node11</title>
<g id="a_edge10_Node000001_Node000011"><a xlink:title=" ">
<path fill="none" stroke="#63b8ff" d="M768.46,-120.99C812.76,-112.12 883.26,-97.99 938.04,-87.02"/>
<polygon fill="#63b8ff" stroke="#63b8ff" points="938.96,-90.4 948.08,-85.01 937.59,-83.54 938.96,-90.4"/>
</a>
</g>
</g>
<!-- Node12 -->
<g id="Node000012" class="node">
<title>Node12</title>
<g id="a_Node000012"><a xlink:title=" ">
<polygon fill="#e0e0e0" stroke="#999999" points="1263,-79.5 1123,-79.5 1123,-60.5 1263,-60.5 1263,-79.5"/>
<text text-anchor="middle" x="1193" y="-67.5" font-family="Helvetica,sans-Serif" font-size="10.00">vstgui/lib/cdrawcontext.h</text>
</a>
</g>
</g>
<!-- Node1&#45;&gt;Node12 -->
<g id="edge11_Node000001_Node000012" class="edge">
<title>Node1&#45;&gt;Node12</title>
<g id="a_edge11_Node000001_Node000012"><a xlink:title=" ">
<path fill="none" stroke="#63b8ff" d="M775.74,-124.78C849.68,-117.54 992.9,-102.66 1114,-85 1121.66,-83.88 1129.71,-82.59 1137.63,-81.26"/>
<polygon fill="#63b8ff" stroke="#63b8ff" points="1138.28,-84.69 1147.54,-79.55 1137.09,-77.8 1138.28,-84.69"/>
</a>
</g>
</g>
<!-- Node13 -->
<g id="Node000013" class="node">
<title>Node13</title>
<g id="a_Node000013"><a xlink:title=" ">
<polygon fill="#e0e0e0" stroke="#999999" points="1415,-79.5 1281,-79.5 1281,-60.5 1415,-60.5 1415,-79.5"/>
<text text-anchor="middle" x="1348" y="-67.5" font-family="Helvetica,sans-Serif" font-size="10.00">vstgui/lib/idependency.h</text>
</a>
</g>
</g>
<!-- Node1&#45;&gt;Node13 -->
<g id="edge12_Node000001_Node000013" class="edge">
<title>Node1&#45;&gt;Node13</title>
<g id="a_edge12_Node000001_Node000013"><a xlink:title=" ">
<path fill="none" stroke="#63b8ff" d="M775.87,-127.12C872.11,-122.16 1090.04,-109.11 1272,-85 1279.76,-83.97 1287.93,-82.68 1295.93,-81.31"/>
<polygon fill="#63b8ff" stroke="#63b8ff" points="1296.68,-84.73 1305.91,-79.54 1295.45,-77.84 1296.68,-84.73"/>
</a>
</g>
</g>
<!-- Node14 -->
<g id="Node000014" class="node">
<title>Node14</title>
<g id="a_Node000014"><a xlink:title=" ">
<polygon fill="#e0e0e0" stroke="#999999" points="1558.5,-85 1433.5,-85 1433.5,-55 1558.5,-55 1558.5,-85"/>
<text text-anchor="start" x="1441.5" y="-73" font-family="Helvetica,sans-Serif" font-size="10.00">vstgui/plugin&#45;bindings</text>
<text text-anchor="middle" x="1496" y="-62" font-family="Helvetica,sans-Serif" font-size="10.00">/vst3editor.h</text>
</a>
</g>
</g>
<!-- Node1&#45;&gt;Node14 -->
<g id="edge13_Node000001_Node000014" class="edge">
<title>Node1&#45;&gt;Node14</title>
<g id="a_edge13_Node000001_Node000014"><a xlink:title=" ">
<path fill="none" stroke="#63b8ff" d="M775.72,-128.52C888.9,-125.82 1174.56,-116.34 1423.3,-84.96"/>
<polygon fill="#63b8ff" stroke="#63b8ff" points="1423.77,-88.43 1433.25,-83.69 1422.89,-81.49 1423.77,-88.43"/>
</a>
</g>
</g>
<!-- Node15 -->
<g id="Node000015" class="node">
<title>Node15</title>
<g id="a_Node000015"><a xlink:title=" ">
<polygon fill="#e0e0e0" stroke="#999999" points="1751,-85 1577,-85 1577,-55 1751,-55 1751,-85"/>
<text text-anchor="start" x="1585" y="-73" font-family="Helvetica,sans-Serif" font-size="10.00">vstgui/uidescription</text>
<text text-anchor="middle" x="1664" y="-62" font-family="Helvetica,sans-Serif" font-size="10.00">/editing/uiviewcreatecontroller.h</text>
</a>
</g>
</g>
<!-- Node1&#45;&gt;Node15 -->
<g id="edge14_Node000001_Node000015" class="edge">
<title>Node1&#45;&gt;Node15</title>
<g id="a_edge14_Node000001_Node000015"><a xlink:title=" ">
<path fill="none" stroke="#63b8ff" d="M775.95,-128.46C905.04,-125.44 1260.54,-114.94 1566.96,-85.04"/>
<polygon fill="#63b8ff" stroke="#63b8ff" points="1567.31,-88.52 1576.92,-84.06 1566.63,-81.55 1567.31,-88.52"/>
</a>
</g>
</g>
<!-- Node5 -->
<g id="Node000005" class="node">
<title>Node5</title>
<g id="a_Node000005"><a xlink:title=" ">
<polygon fill="#e0e0e0" stroke="#999999" points="254.5,-19 207.5,-19 207.5,0 254.5,0 254.5,-19"/>
<text text-anchor="middle" x="231" y="-7" font-family="Helvetica,sans-Serif" font-size="10.00">cmath</text>
</a>
</g>
</g>
<!-- Node4&#45;&gt;Node5 -->
<g id="edge4_Node000004_Node000005" class="edge">
<title>Node4&#45;&gt;Node5</title>
<g id="a_edge4_Node000004_Node000005"><a xlink:title=" ">
<path fill="none" stroke="#63b8ff" d="M231,-60.37C231,-52.25 231,-39.81 231,-29.39"/>
<polygon fill="#63b8ff" stroke="#63b8ff" points="234.5,-29.17 231,-19.17 227.5,-29.17 234.5,-29.17"/>
</a>
</g>
</g>
</g>
</svg>
