<?xml version="1.0" encoding="UTF-8" standalone="no"?>
<!DOCTYPE svg PUBLIC "-//W3C//DTD SVG 1.1//EN"
 "http://www.w3.org/Graphics/SVG/1.1/DTD/svg11.dtd">
<!-- Generated by graphviz version 2.43.0 (0)
 -->
<!-- Title: eqcurveview.cpp Pages: 1 -->
<svg width="2185pt" height="203pt"
 viewBox="0.00 0.00 2184.50 203.00" xmlns="http://www.w3.org/2000/svg" xmlns:xlink="http://www.w3.org/1999/xlink">
<g id="graph0" class="graph" transform="scale(1 1) rotate(0) translate(4 199)">
<title>eqcurveview.cpp</title>
<!-- Node1 -->
<g id="Node000001" class="node">
<title>Node1</title>
<g id="a_Node000001"><a xlink:title=" ">
<polygon fill="#999999" stroke="#666666" points="1335,-195 1237,-195 1237,-176 1335,-176 1335,-195"/>
<text text-anchor="middle" x="1286" y="-183" font-family="Helvetica,sans-Serif" font-size="10.00">eqcurveview.cpp</text>
</a>
</g>
</g>
<!-- Node2 -->
<g id="Node000002" class="node">
<title>Node2</title>
<g id="a_Node000002"><a xlink:href="eqcurveview_8hpp.html" target="_top" xlink:title="Declares the EQCurveView class and its helpers.">
<polygon fill="white" stroke="#666666" points="872.5,-140 773.5,-140 773.5,-121 872.5,-121 872.5,-140"/>
<text text-anchor="middle" x="823" y="-128" font-family="Helvetica,sans-Serif" font-size="10.00">eqcurveview.hpp</text>
</a>
</g>
</g>
<!-- Node1&#45;&gt;Node2 -->
<g id="edge1_Node000001_Node000002" class="edge">
<title>Node1&#45;&gt;Node2</title>
<g id="a_edge1_Node000001_Node000002"><a xlink:title=" ">
<path fill="none" stroke="#63b8ff" d="M1236.89,-178.88C1151.31,-169.08 975.17,-148.92 882.69,-138.33"/>
<polygon fill="#63b8ff" stroke="#63b8ff" points="882.99,-134.84 872.65,-137.18 882.19,-141.8 882.99,-134.84"/>
</a>
</g>
</g>
<!-- Node17 -->
<g id="Node000017" class="node">
<title>Node17</title>
<g id="a_Node000017"><a xlink:href="controller_8hpp.html" target="_top" xlink:title=" ">
<polygon fill="white" stroke="#666666" points="1870.5,-140 1787.5,-140 1787.5,-121 1870.5,-121 1870.5,-140"/>
<text text-anchor="middle" x="1829" y="-128" font-family="Helvetica,sans-Serif" font-size="10.00">controller.hpp</text>
</a>
</g>
</g>
<!-- Node1&#45;&gt;Node17 -->
<g id="edge16_Node000001_Node000017" class="edge">
<title>Node1&#45;&gt;Node17</title>
<g id="a_edge16_Node000001_Node000017"><a xlink:title=" ">
<path fill="none" stroke="#63b8ff" d="M1335.15,-179.7C1437.47,-169.72 1672.54,-146.77 1777.15,-136.56"/>
<polygon fill="#63b8ff" stroke="#63b8ff" points="1777.55,-140.04 1787.16,-135.58 1776.87,-133.07 1777.55,-140.04"/>
</a>
</g>
</g>
<!-- Node3 -->
<g id="Node000003" class="node">
<title>Node3</title>
<g id="a_Node000003"><a xlink:title=" ">
<polygon fill="#e0e0e0" stroke="#999999" points="58,-79.5 0,-79.5 0,-60.5 58,-60.5 58,-79.5"/>
<text text-anchor="middle" x="29" y="-67.5" font-family="Helvetica,sans-Serif" font-size="10.00">memory</text>
</a>
</g>
</g>
<!-- Node2&#45;&gt;Node3 -->
<g id="edge2_Node000002_Node000003" class="edge">
<title>Node2&#45;&gt;Node3</title>
<g id="a_edge2_Node000002_Node000003"><a xlink:title=" ">
<path fill="none" stroke="#63b8ff" d="M773.46,-128.48C627.81,-125.19 202.7,-113.34 67,-85 64.16,-84.41 61.25,-83.64 58.36,-82.77"/>
<polygon fill="#63b8ff" stroke="#63b8ff" points="59.39,-79.43 48.79,-79.54 57.14,-86.06 59.39,-79.43"/>
</a>
</g>
</g>
<!-- Node4 -->
<g id="Node000004" class="node">
<title>Node4</title>
<g id="a_Node000004"><a xlink:href="eqconstants_8hpp.html" target="_top" xlink:title=" ">
<polygon fill="white" stroke="#666666" points="1751.5,-79.5 1654.5,-79.5 1654.5,-60.5 1751.5,-60.5 1751.5,-79.5"/>
<text text-anchor="middle" x="1703" y="-67.5" font-family="Helvetica,sans-Serif" font-size="10.00">eqconstants.hpp</text>
</a>
</g>
</g>
<!-- Node2&#45;&gt;Node4 -->
<g id="edge3_Node000002_Node000004" class="edge">
<title>Node2&#45;&gt;Node4</title>
<g id="a_edge3_Node000002_Node000004"><a xlink:title=" ">
<path fill="none" stroke="#63b8ff" d="M872.89,-129.96C1001.53,-130.46 1354.76,-127.52 1645,-85 1650.57,-84.18 1656.4,-83.08 1662.11,-81.85"/>
<polygon fill="#63b8ff" stroke="#63b8ff" points="1663.24,-85.19 1672.2,-79.54 1661.67,-78.36 1663.24,-85.19"/>
</a>
</g>
</g>
<!-- Node5 -->
<g id="Node000005" class="node">
<title>Node5</title>
<g id="a_Node000005"><a xlink:href="eqshape_8hpp.html" target="_top" xlink:title=" ">
<polygon fill="white" stroke="#666666" points="155.5,-79.5 76.5,-79.5 76.5,-60.5 155.5,-60.5 155.5,-79.5"/>
<text text-anchor="middle" x="116" y="-67.5" font-family="Helvetica,sans-Serif" font-size="10.00">eqshape.hpp</text>
</a>
</g>
</g>
<!-- Node2&#45;&gt;Node5 -->
<g id="edge4_Node000002_Node000005" class="edge">
<title>Node2&#45;&gt;Node5</title>
<g id="a_edge4_Node000002_Node000005"><a xlink:title=" ">
<path fill="none" stroke="#63b8ff" d="M773.46,-129.7C663.24,-129.36 389.73,-124.25 165,-85 160.73,-84.26 156.31,-83.28 151.94,-82.2"/>
<polygon fill="#63b8ff" stroke="#63b8ff" points="152.52,-78.73 141.96,-79.52 150.71,-85.49 152.52,-78.73"/>
</a>
</g>
</g>
<!-- Node7 -->
<g id="Node000007" class="node">
<title>Node7</title>
<g id="a_Node000007"><a xlink:title=" ">
<polygon fill="#e0e0e0" stroke="#999999" points="274.5,-79.5 173.5,-79.5 173.5,-60.5 274.5,-60.5 274.5,-79.5"/>
<text text-anchor="middle" x="224" y="-67.5" font-family="Helvetica,sans-Serif" font-size="10.00">vstgui/lib/cview.h</text>
</a>
</g>
</g>
<!-- Node2&#45;&gt;Node7 -->
<g id="edge6_Node000002_Node000007" class="edge">
<title>Node2&#45;&gt;Node7</title>
<g id="a_edge6_Node000002_Node000007"><a xlink:title=" ">
<path fill="none" stroke="#63b8ff" d="M773.29,-127.84C677.91,-124.1 462.79,-113.08 284,-85 278.25,-84.1 272.23,-82.94 266.31,-81.69"/>
<polygon fill="#63b8ff" stroke="#63b8ff" points="267.05,-78.27 256.53,-79.51 265.52,-85.1 267.05,-78.27"/>
</a>
</g>
</g>
<!-- Node8 -->
<g id="Node000008" class="node">
<title>Node8</title>
<g id="a_Node000008"><a xlink:title=" ">
<polygon fill="#e0e0e0" stroke="#999999" points="405.5,-85 292.5,-85 292.5,-55 405.5,-55 405.5,-85"/>
<text text-anchor="start" x="300.5" y="-73" font-family="Helvetica,sans-Serif" font-size="10.00">vstgui/uidescription</text>
<text text-anchor="middle" x="349" y="-62" font-family="Helvetica,sans-Serif" font-size="10.00">/iuidescription.h</text>
</a>
</g>
</g>
<!-- Node2&#45;&gt;Node8 -->
<g id="edge7_Node000002_Node000008" class="edge">
<title>Node2&#45;&gt;Node8</title>
<g id="a_edge7_Node000002_Node000008"><a xlink:title=" ">
<path fill="none" stroke="#63b8ff" d="M773.48,-125.71C698.38,-119.62 551,-106.27 415.93,-85.04"/>
<polygon fill="#63b8ff" stroke="#63b8ff" points="416.24,-81.54 405.81,-83.43 415.14,-88.46 416.24,-81.54"/>
</a>
</g>
</g>
<!-- Node9 -->
<g id="Node000009" class="node">
<title>Node9</title>
<g id="a_Node000009"><a xlink:title=" ">
<polygon fill="#e0e0e0" stroke="#999999" points="536.5,-85 423.5,-85 423.5,-55 536.5,-55 536.5,-85"/>
<text text-anchor="start" x="431.5" y="-73" font-family="Helvetica,sans-Serif" font-size="10.00">vstgui/uidescription</text>
<text text-anchor="middle" x="480" y="-62" font-family="Helvetica,sans-Serif" font-size="10.00">/iviewcreator.h</text>
</a>
</g>
</g>
<!-- Node2&#45;&gt;Node9 -->
<g id="edge8_Node000002_Node000009" class="edge">
<title>Node2&#45;&gt;Node9</title>
<g id="a_edge8_Node000002_Node000009"><a xlink:title=" ">
<path fill="none" stroke="#63b8ff" d="M773.33,-122.28C719.86,-114.34 632.07,-100.81 546.7,-85.07"/>
<polygon fill="#63b8ff" stroke="#63b8ff" points="547.32,-81.63 536.85,-83.25 546.04,-88.51 547.32,-81.63"/>
</a>
</g>
</g>
<!-- Node10 -->
<g id="Node000010" class="node">
<title>Node10</title>
<g id="a_Node000010"><a xlink:title=" ">
<polygon fill="#e0e0e0" stroke="#999999" points="667.5,-85 554.5,-85 554.5,-55 667.5,-55 667.5,-85"/>
<text text-anchor="start" x="562.5" y="-73" font-family="Helvetica,sans-Serif" font-size="10.00">vstgui/uidescription</text>
<text text-anchor="middle" x="611" y="-62" font-family="Helvetica,sans-Serif" font-size="10.00">/uiattributes.h</text>
</a>
</g>
</g>
<!-- Node2&#45;&gt;Node10 -->
<g id="edge9_Node000002_Node000010" class="edge">
<title>Node2&#45;&gt;Node10</title>
<g id="a_edge9_Node000002_Node000010"><a xlink:title=" ">
<path fill="none" stroke="#63b8ff" d="M792.17,-120.99C760.73,-112.32 711.11,-98.62 671.74,-87.76"/>
<polygon fill="#63b8ff" stroke="#63b8ff" points="672.54,-84.35 661.97,-85.06 670.68,-91.1 672.54,-84.35"/>
</a>
</g>
</g>
<!-- Node11 -->
<g id="Node000011" class="node">
<title>Node11</title>
<g id="a_Node000011"><a xlink:title=" ">
<polygon fill="#e0e0e0" stroke="#999999" points="798.5,-85 685.5,-85 685.5,-55 798.5,-55 798.5,-85"/>
<text text-anchor="start" x="693.5" y="-73" font-family="Helvetica,sans-Serif" font-size="10.00">vstgui/uidescription</text>
<text text-anchor="middle" x="742" y="-62" font-family="Helvetica,sans-Serif" font-size="10.00">/uiviewfactory.h</text>
</a>
</g>
</g>
<!-- Node2&#45;&gt;Node11 -->
<g id="edge10_Node000002_Node000011" class="edge">
<title>Node2&#45;&gt;Node11</title>
<g id="a_edge10_Node000002_Node000011"><a xlink:title=" ">
<path fill="none" stroke="#63b8ff" d="M811.05,-120.87C800.26,-113.08 783.98,-101.32 769.93,-91.17"/>
<polygon fill="#63b8ff" stroke="#63b8ff" points="771.7,-88.13 761.54,-85.11 767.6,-93.81 771.7,-88.13"/>
</a>
</g>
</g>
<!-- Node12 -->
<g id="Node000012" class="node">
<title>Node12</title>
<g id="a_Node000012"><a xlink:title=" ">
<polygon fill="#e0e0e0" stroke="#999999" points="989.5,-85 816.5,-85 816.5,-55 989.5,-55 989.5,-85"/>
<text text-anchor="start" x="824.5" y="-73" font-family="Helvetica,sans-Serif" font-size="10.00">vstgui/uidescription</text>
<text text-anchor="middle" x="903" y="-62" font-family="Helvetica,sans-Serif" font-size="10.00">/detail/uiviewcreatorattributes.h</text>
</a>
</g>
</g>
<!-- Node2&#45;&gt;Node12 -->
<g id="edge11_Node000002_Node000012" class="edge">
<title>Node2&#45;&gt;Node12</title>
<g id="a_edge11_Node000002_Node000012"><a xlink:title=" ">
<path fill="none" stroke="#63b8ff" d="M834.8,-120.87C845.46,-113.08 861.54,-101.32 875.41,-91.17"/>
<polygon fill="#63b8ff" stroke="#63b8ff" points="877.69,-93.84 883.7,-85.11 873.56,-88.19 877.69,-93.84"/>
</a>
</g>
</g>
<!-- Node13 -->
<g id="Node000013" class="node">
<title>Node13</title>
<g id="a_Node000013"><a xlink:title=" ">
<polygon fill="#e0e0e0" stroke="#999999" points="1148,-79.5 1008,-79.5 1008,-60.5 1148,-60.5 1148,-79.5"/>
<text text-anchor="middle" x="1078" y="-67.5" font-family="Helvetica,sans-Serif" font-size="10.00">vstgui/lib/cdrawcontext.h</text>
</a>
</g>
</g>
<!-- Node2&#45;&gt;Node13 -->
<g id="edge12_Node000002_Node000013" class="edge">
<title>Node2&#45;&gt;Node13</title>
<g id="a_edge12_Node000002_Node000013"><a xlink:title=" ">
<path fill="none" stroke="#63b8ff" d="M860.08,-120.99C905.31,-110.62 981.82,-93.07 1031.1,-81.76"/>
<polygon fill="#63b8ff" stroke="#63b8ff" points="1031.91,-85.16 1040.88,-79.52 1030.35,-78.34 1031.91,-85.16"/>
</a>
</g>
</g>
<!-- Node14 -->
<g id="Node000014" class="node">
<title>Node14</title>
<g id="a_Node000014"><a xlink:title=" ">
<polygon fill="#e0e0e0" stroke="#999999" points="1300,-79.5 1166,-79.5 1166,-60.5 1300,-60.5 1300,-79.5"/>
<text text-anchor="middle" x="1233" y="-67.5" font-family="Helvetica,sans-Serif" font-size="10.00">vstgui/lib/idependency.h</text>
</a>
</g>
</g>
<!-- Node2&#45;&gt;Node14 -->
<g id="edge13_Node000002_Node000014" class="edge">
<title>Node2&#45;&gt;Node14</title>
<g id="a_edge13_Node000002_Node000014"><a xlink:title=" ">
<path fill="none" stroke="#63b8ff" d="M872.63,-123.67C937.96,-115.82 1056.33,-100.97 1157,-85 1164.11,-83.87 1171.57,-82.6 1178.93,-81.3"/>
<polygon fill="#63b8ff" stroke="#63b8ff" points="1179.64,-84.73 1188.86,-79.52 1178.4,-77.84 1179.64,-84.73"/>
</a>
</g>
</g>
<!-- Node15 -->
<g id="Node000015" class="node">
<title>Node15</title>
<g id="a_Node000015"><a xlink:title=" ">
<polygon fill="#e0e0e0" stroke="#999999" points="1443.5,-85 1318.5,-85 1318.5,-55 1443.5,-55 1443.5,-85"/>
<text text-anchor="start" x="1326.5" y="-73" font-family="Helvetica,sans-Serif" font-size="10.00">vstgui/plugin&#45;bindings</text>
<text text-anchor="middle" x="1381" y="-62" font-family="Helvetica,sans-Serif" font-size="10.00">/vst3editor.h</text>
</a>
</g>
</g>
<!-- Node2&#45;&gt;Node15 -->
<g id="edge14_Node000002_Node000015" class="edge">
<title>Node2&#45;&gt;Node15</title>
<g id="a_edge14_Node000002_Node000015"><a xlink:title=" ">
<path fill="none" stroke="#63b8ff" d="M872.52,-126.62C958.81,-121.24 1142.52,-108.19 1307.87,-85.06"/>
<polygon fill="#63b8ff" stroke="#63b8ff" points="1308.82,-88.46 1318.23,-83.59 1307.84,-81.53 1308.82,-88.46"/>
</a>
</g>
</g>
<!-- Node16 -->
<g id="Node000016" class="node">
<title>Node16</title>
<g id="a_Node000016"><a xlink:title=" ">
<polygon fill="#e0e0e0" stroke="#999999" points="1636,-85 1462,-85 1462,-55 1636,-55 1636,-85"/>
<text text-anchor="start" x="1470" y="-73" font-family="Helvetica,sans-Serif" font-size="10.00">vstgui/uidescription</text>
<text text-anchor="middle" x="1549" y="-62" font-family="Helvetica,sans-Serif" font-size="10.00">/editing/uiviewcreatecontroller.h</text>
</a>
</g>
</g>
<!-- Node2&#45;&gt;Node16 -->
<g id="edge15_Node000002_Node000016" class="edge">
<title>Node2&#45;&gt;Node16</title>
<g id="a_edge15_Node000002_Node000016"><a xlink:title=" ">
<path fill="none" stroke="#63b8ff" d="M872.53,-127.26C977.37,-122.23 1229.64,-108.72 1451.7,-85.08"/>
<polygon fill="#63b8ff" stroke="#63b8ff" points="1452.35,-88.54 1461.91,-83.99 1451.6,-81.58 1452.35,-88.54"/>
</a>
</g>
</g>
<!-- Node6 -->
<g id="Node000006" class="node">
<title>Node6</title>
<g id="a_Node000006"><a xlink:title=" ">
<polygon fill="#e0e0e0" stroke="#999999" points="139.5,-19 92.5,-19 92.5,0 139.5,0 139.5,-19"/>
<text text-anchor="middle" x="116" y="-7" font-family="Helvetica,sans-Serif" font-size="10.00">cmath</text>
</a>
</g>
</g>
<!-- Node5&#45;&gt;Node6 -->
<g id="edge5_Node000005_Node000006" class="edge">
<title>Node5&#45;&gt;Node6</title>
<g id="a_edge5_Node000005_Node000006"><a xlink:title=" ">
<path fill="none" stroke="#63b8ff" d="M116,-60.37C116,-52.25 116,-39.81 116,-29.39"/>
<polygon fill="#63b8ff" stroke="#63b8ff" points="119.5,-29.17 116,-19.17 112.5,-29.17 119.5,-29.17"/>
</a>
</g>
</g>
<!-- Node17&#45;&gt;Node4 -->
<g id="edge20_Node000017_Node000004" class="edge">
<title>Node17&#45;&gt;Node4</title>
<g id="a_edge20_Node000017_Node000004"><a xlink:title=" ">
<path fill="none" stroke="#63b8ff" d="M1810.68,-120.99C1789.59,-111.2 1754.74,-95.02 1730.42,-83.73"/>
<polygon fill="#63b8ff" stroke="#63b8ff" points="1731.89,-80.55 1721.34,-79.52 1728.94,-86.9 1731.89,-80.55"/>
</a>
</g>
</g>
<!-- Node18 -->
<g id="Node000018" class="node">
<title>Node18</title>
<g id="a_Node000018"><a xlink:title=" ">
<polygon fill="#e0e0e0" stroke="#999999" points="1888.5,-85 1769.5,-85 1769.5,-55 1888.5,-55 1888.5,-85"/>
<text text-anchor="start" x="1777.5" y="-73" font-family="Helvetica,sans-Serif" font-size="10.00">public.sdk/source/vst</text>
<text text-anchor="middle" x="1829" y="-62" font-family="Helvetica,sans-Serif" font-size="10.00">/vsteditcontroller.h</text>
</a>
</g>
</g>
<!-- Node17&#45;&gt;Node18 -->
<g id="edge17_Node000017_Node000018" class="edge">
<title>Node17&#45;&gt;Node18</title>
<g id="a_edge17_Node000017_Node000018"><a xlink:title=" ">
<path fill="none" stroke="#63b8ff" d="M1829,-120.87C1829,-114.11 1829,-104.35 1829,-95.26"/>
<polygon fill="#63b8ff" stroke="#63b8ff" points="1832.5,-95.11 1829,-85.11 1825.5,-95.11 1832.5,-95.11"/>
</a>
</g>
</g>
<!-- Node19 -->
<g id="Node000019" class="node">
<title>Node19</title>
<g id="a_Node000019"><a xlink:title=" ">
<polygon fill="#e0e0e0" stroke="#999999" points="2029,-85 1907,-85 1907,-55 2029,-55 2029,-85"/>
<text text-anchor="start" x="1915" y="-73" font-family="Helvetica,sans-Serif" font-size="10.00">vstgui4/vstgui/plugin</text>
<text text-anchor="middle" x="1968" y="-62" font-family="Helvetica,sans-Serif" font-size="10.00">&#45;bindings/vst3editor.h</text>
</a>
</g>
</g>
<!-- Node17&#45;&gt;Node19 -->
<g id="edge18_Node000017_Node000019" class="edge">
<title>Node17&#45;&gt;Node19</title>
<g id="a_edge18_Node000017_Node000019"><a xlink:title=" ">
<path fill="none" stroke="#63b8ff" d="M1849.21,-120.99C1869.04,-112.65 1899.9,-99.66 1925.19,-89.02"/>
<polygon fill="#63b8ff" stroke="#63b8ff" points="1926.72,-92.17 1934.58,-85.06 1924.01,-85.72 1926.72,-92.17"/>
</a>
</g>
</g>
<!-- Node20 -->
<g id="Node000020" class="node">
<title>Node20</title>
<g id="a_Node000020"><a xlink:title=" ">
<polygon fill="#e0e0e0" stroke="#999999" points="2176.5,-85 2047.5,-85 2047.5,-55 2176.5,-55 2176.5,-85"/>
<text text-anchor="start" x="2055.5" y="-73" font-family="Helvetica,sans-Serif" font-size="10.00">public.sdk/source/main</text>
<text text-anchor="middle" x="2112" y="-62" font-family="Helvetica,sans-Serif" font-size="10.00">/moduleinit.h</text>
</a>
</g>
</g>
<!-- Node17&#45;&gt;Node20 -->
<g id="edge19_Node000017_Node000020" class="edge">
<title>Node17&#45;&gt;Node20</title>
<g id="a_edge19_Node000017_Node000020"><a xlink:title=" ">
<path fill="none" stroke="#63b8ff" d="M1870.15,-120.99C1913.86,-111.96 1983.89,-97.48 2037.37,-86.43"/>
<polygon fill="#63b8ff" stroke="#63b8ff" points="2038.41,-89.79 2047.49,-84.33 2036.99,-82.93 2038.41,-89.79"/>
</a>
</g>
</g>
</g>
</svg>
