<?xml version="1.0" encoding="UTF-8" standalone="no"?>
<!DOCTYPE svg PUBLIC "-//W3C//DTD SVG 1.1//EN"
 "http://www.w3.org/Graphics/SVG/1.1/DTD/svg11.dtd">
<!-- Generated by graphviz version 2.43.0 (0)
 -->
<!-- Title: eqshape.hpp Pages: 1 -->
<svg width="566pt" height="247pt"
 viewBox="0.00 0.00 565.50 247.00" xmlns="http://www.w3.org/2000/svg" xmlns:xlink="http://www.w3.org/1999/xlink">
<g id="graph0" class="graph" transform="scale(1 1) rotate(0) translate(4 243)">
<title>eqshape.hpp</title>
<!-- Node1 -->
<g id="Node000001" class="node">
<title>Node1</title>
<g id="a_Node000001"><a xlink:title=" ">
<polygon fill="#999999" stroke="#666666" points="263.5,-239 184.5,-239 184.5,-220 263.5,-220 263.5,-239"/>
<text text-anchor="middle" x="224" y="-227" font-family="Helvetica,sans-Serif" font-size="10.00">eqshape.hpp</text>
</a>
</g>
</g>
<!-- Node2 -->
<g id="Node000002" class="node">
<title>Node2</title>
<g id="a_Node000002"><a xlink:href="controller_8cpp.html" target="_top" xlink:title=" ">
<polygon fill="white" stroke="#666666" points="101.5,-184 18.5,-184 18.5,-165 101.5,-165 101.5,-184"/>
<text text-anchor="middle" x="60" y="-172" font-family="Helvetica,sans-Serif" font-size="10.00">controller.cpp</text>
</a>
</g>
</g>
<!-- Node1&#45;&gt;Node2 -->
<g id="edge1_Node000001_Node000002" class="edge">
<title>Node1&#45;&gt;Node2</title>
<g id="a_edge1_Node000001_Node000002"><a xlink:title=" ">
<path fill="none" stroke="#63b8ff" d="M187.79,-216.8C157.18,-206.91 114.05,-192.97 86.56,-184.08"/>
<polygon fill="#63b8ff" stroke="#63b8ff" points="187.06,-220.24 197.65,-219.98 189.21,-213.58 187.06,-220.24"/>
</a>
</g>
</g>
<!-- Node3 -->
<g id="Node000003" class="node">
<title>Node3</title>
<g id="a_Node000003"><a xlink:href="eqcurveview_8hpp.html" target="_top" xlink:title="Declares the EQCurveView class and its helpers.">
<polygon fill="white" stroke="#666666" points="218.5,-184 119.5,-184 119.5,-165 218.5,-165 218.5,-184"/>
<text text-anchor="middle" x="169" y="-172" font-family="Helvetica,sans-Serif" font-size="10.00">eqcurveview.hpp</text>
</a>
</g>
</g>
<!-- Node1&#45;&gt;Node3 -->
<g id="edge2_Node000001_Node000003" class="edge">
<title>Node1&#45;&gt;Node3</title>
<g id="a_edge2_Node000001_Node000003"><a xlink:title=" ">
<path fill="none" stroke="#63b8ff" d="M207.71,-212.8C197.96,-203.41 185.95,-191.83 177.91,-184.09"/>
<polygon fill="#63b8ff" stroke="#63b8ff" points="205.29,-215.33 214.92,-219.75 210.15,-210.29 205.29,-215.33"/>
</a>
</g>
</g>
<!-- Node6 -->
<g id="Node000006" class="node">
<title>Node6</title>
<g id="a_Node000006"><a xlink:href="equalizer_8hpp.html" target="_top" xlink:title=" ">
<polygon fill="white" stroke="#666666" points="320,-184 238,-184 238,-165 320,-165 320,-184"/>
<text text-anchor="middle" x="279" y="-172" font-family="Helvetica,sans-Serif" font-size="10.00">equalizer.hpp</text>
</a>
</g>
</g>
<!-- Node1&#45;&gt;Node6 -->
<g id="edge5_Node000001_Node000006" class="edge">
<title>Node1&#45;&gt;Node6</title>
<g id="a_edge5_Node000001_Node000006"><a xlink:title=" ">
<path fill="none" stroke="#63b8ff" d="M240.29,-212.8C250.04,-203.41 262.05,-191.83 270.09,-184.09"/>
<polygon fill="#63b8ff" stroke="#63b8ff" points="237.85,-210.29 233.08,-219.75 242.71,-215.33 237.85,-210.29"/>
</a>
</g>
</g>
<!-- Node13 -->
<g id="Node000013" class="node">
<title>Node13</title>
<g id="a_Node000013"><a xlink:href="presetmenu_8cpp.html" target="_top" xlink:title=" ">
<polygon fill="white" stroke="#666666" points="433.5,-184 338.5,-184 338.5,-165 433.5,-165 433.5,-184"/>
<text text-anchor="middle" x="386" y="-172" font-family="Helvetica,sans-Serif" font-size="10.00">presetmenu.cpp</text>
</a>
</g>
</g>
<!-- Node1&#45;&gt;Node13 -->
<g id="edge13_Node000001_Node000013" class="edge">
<title>Node1&#45;&gt;Node13</title>
<g id="a_edge13_Node000001_Node000013"><a xlink:title=" ">
<path fill="none" stroke="#63b8ff" d="M259.77,-216.8C290,-206.91 332.61,-192.97 359.77,-184.08"/>
<polygon fill="#63b8ff" stroke="#63b8ff" points="258.44,-213.55 250.03,-219.98 260.62,-220.2 258.44,-213.55"/>
</a>
</g>
</g>
<!-- Node4 -->
<g id="Node000004" class="node">
<title>Node4</title>
<g id="a_Node000004"><a xlink:href="eqcurveview_8cpp.html" target="_top" xlink:title=" ">
<polygon fill="white" stroke="#666666" points="98,-129 0,-129 0,-110 98,-110 98,-129"/>
<text text-anchor="middle" x="49" y="-117" font-family="Helvetica,sans-Serif" font-size="10.00">eqcurveview.cpp</text>
</a>
</g>
</g>
<!-- Node3&#45;&gt;Node4 -->
<g id="edge3_Node000003_Node000004" class="edge">
<title>Node3&#45;&gt;Node4</title>
<g id="a_edge3_Node000003_Node000004"><a xlink:title=" ">
<path fill="none" stroke="#63b8ff" d="M140.47,-160.9C118.3,-151.11 88.15,-137.79 68.63,-129.17"/>
<polygon fill="#63b8ff" stroke="#63b8ff" points="139.16,-164.15 149.72,-164.98 141.99,-157.74 139.16,-164.15"/>
</a>
</g>
</g>
<!-- Node5 -->
<g id="Node000005" class="node">
<title>Node5</title>
<g id="a_Node000005"><a xlink:href="paramlistener_8cpp.html" target="_top" xlink:title=" ">
<polygon fill="white" stroke="#666666" points="220,-129 116,-129 116,-110 220,-110 220,-129"/>
<text text-anchor="middle" x="168" y="-117" font-family="Helvetica,sans-Serif" font-size="10.00">paramlistener.cpp</text>
</a>
</g>
</g>
<!-- Node3&#45;&gt;Node5 -->
<g id="edge4_Node000003_Node000005" class="edge">
<title>Node3&#45;&gt;Node5</title>
<g id="a_edge4_Node000003_Node000005"><a xlink:title=" ">
<path fill="none" stroke="#63b8ff" d="M168.64,-154.66C168.48,-145.93 168.29,-135.99 168.16,-129.09"/>
<polygon fill="#63b8ff" stroke="#63b8ff" points="165.15,-154.82 168.83,-164.75 172.15,-154.68 165.15,-154.82"/>
</a>
</g>
</g>
<!-- Node7 -->
<g id="Node000007" class="node">
<title>Node7</title>
<g id="a_Node000007"><a xlink:href="equalizer_8cpp.html" target="_top" xlink:title=" ">
<polygon fill="white" stroke="#666666" points="319.5,-129 238.5,-129 238.5,-110 319.5,-110 319.5,-129"/>
<text text-anchor="middle" x="279" y="-117" font-family="Helvetica,sans-Serif" font-size="10.00">equalizer.cpp</text>
</a>
</g>
</g>
<!-- Node6&#45;&gt;Node7 -->
<g id="edge6_Node000006_Node000007" class="edge">
<title>Node6&#45;&gt;Node7</title>
<g id="a_edge6_Node000006_Node000007"><a xlink:title=" ">
<path fill="none" stroke="#63b8ff" d="M279,-154.66C279,-145.93 279,-135.99 279,-129.09"/>
<polygon fill="#63b8ff" stroke="#63b8ff" points="275.5,-154.75 279,-164.75 282.5,-154.75 275.5,-154.75"/>
</a>
</g>
</g>
<!-- Node8 -->
<g id="Node000008" class="node">
<title>Node8</title>
<g id="a_Node000008"><a xlink:href="fftprocessor_8hpp.html" target="_top" xlink:title=" ">
<polygon fill="white" stroke="#666666" points="432.5,-129 337.5,-129 337.5,-110 432.5,-110 432.5,-129"/>
<text text-anchor="middle" x="385" y="-117" font-family="Helvetica,sans-Serif" font-size="10.00">fftprocessor.hpp</text>
</a>
</g>
</g>
<!-- Node6&#45;&gt;Node8 -->
<g id="edge7_Node000006_Node000008" class="edge">
<title>Node6&#45;&gt;Node8</title>
<g id="a_edge7_Node000006_Node000008"><a xlink:title=" ">
<path fill="none" stroke="#63b8ff" d="M305,-160.5C324.5,-150.75 350.65,-137.68 367.66,-129.17"/>
<polygon fill="#63b8ff" stroke="#63b8ff" points="303.41,-157.38 296.03,-164.98 306.54,-163.64 303.41,-157.38"/>
</a>
</g>
</g>
<!-- Node10 -->
<g id="Node000010" class="node">
<title>Node10</title>
<g id="a_Node000010"><a xlink:href="processor_8hpp.html" target="_top" xlink:title=" ">
<polygon fill="white" stroke="#666666" points="503,-74 419,-74 419,-55 503,-55 503,-74"/>
<text text-anchor="middle" x="461" y="-62" font-family="Helvetica,sans-Serif" font-size="10.00">processor.hpp</text>
</a>
</g>
</g>
<!-- Node6&#45;&gt;Node10 -->
<g id="edge12_Node000006_Node000010" class="edge">
<title>Node6&#45;&gt;Node10</title>
<g id="a_edge12_Node000006_Node000010"><a xlink:title=" ">
<path fill="none" stroke="#63b8ff" d="M327.18,-162.73C371.84,-152.35 432.63,-137.07 441,-129 456.31,-114.24 459.95,-87.9 460.78,-74.24"/>
<polygon fill="#63b8ff" stroke="#63b8ff" points="326.31,-159.33 317.36,-164.99 327.89,-166.16 326.31,-159.33"/>
</a>
</g>
</g>
<!-- Node9 -->
<g id="Node000009" class="node">
<title>Node9</title>
<g id="a_Node000009"><a xlink:href="fftprocessor_8cpp.html" target="_top" xlink:title=" ">
<polygon fill="white" stroke="#666666" points="401,-74 307,-74 307,-55 401,-55 401,-74"/>
<text text-anchor="middle" x="354" y="-62" font-family="Helvetica,sans-Serif" font-size="10.00">fftprocessor.cpp</text>
</a>
</g>
</g>
<!-- Node8&#45;&gt;Node9 -->
<g id="edge8_Node000008_Node000009" class="edge">
<title>Node8&#45;&gt;Node9</title>
<g id="a_edge8_Node000008_Node000009"><a xlink:title=" ">
<path fill="none" stroke="#63b8ff" d="M374.82,-101.1C369.53,-92.04 363.28,-81.37 359.02,-74.09"/>
<polygon fill="#63b8ff" stroke="#63b8ff" points="371.81,-102.88 379.88,-109.75 377.85,-99.35 371.81,-102.88"/>
</a>
</g>
</g>
<!-- Node8&#45;&gt;Node10 -->
<g id="edge9_Node000008_Node000010" class="edge">
<title>Node8&#45;&gt;Node10</title>
<g id="a_edge9_Node000008_Node000010"><a xlink:title=" ">
<path fill="none" stroke="#63b8ff" d="M405.58,-104.15C419.31,-94.57 436.93,-82.29 448.57,-74.17"/>
<polygon fill="#63b8ff" stroke="#63b8ff" points="403.41,-101.39 397.21,-109.98 407.42,-107.14 403.41,-101.39"/>
</a>
</g>
</g>
<!-- Node11 -->
<g id="Node000011" class="node">
<title>Node11</title>
<g id="a_Node000011"><a xlink:href="pluginfactory_8cpp.html" target="_top" xlink:title="States essential plugin metadata for the host.">
<polygon fill="white" stroke="#666666" points="456,-19 356,-19 356,0 456,0 456,-19"/>
<text text-anchor="middle" x="406" y="-7" font-family="Helvetica,sans-Serif" font-size="10.00">pluginfactory.cpp</text>
</a>
</g>
</g>
<!-- Node10&#45;&gt;Node11 -->
<g id="edge10_Node000010_Node000011" class="edge">
<title>Node10&#45;&gt;Node11</title>
<g id="a_edge10_Node000010_Node000011"><a xlink:title=" ">
<path fill="none" stroke="#63b8ff" d="M444.71,-47.8C434.96,-38.41 422.95,-26.83 414.91,-19.09"/>
<polygon fill="#63b8ff" stroke="#63b8ff" points="442.29,-50.33 451.92,-54.75 447.15,-45.29 442.29,-50.33"/>
</a>
</g>
</g>
<!-- Node12 -->
<g id="Node000012" class="node">
<title>Node12</title>
<g id="a_Node000012"><a xlink:href="processor_8cpp.html" target="_top" xlink:title=" ">
<polygon fill="white" stroke="#666666" points="557.5,-19 474.5,-19 474.5,0 557.5,0 557.5,-19"/>
<text text-anchor="middle" x="516" y="-7" font-family="Helvetica,sans-Serif" font-size="10.00">processor.cpp</text>
</a>
</g>
</g>
<!-- Node10&#45;&gt;Node12 -->
<g id="edge11_Node000010_Node000012" class="edge">
<title>Node10&#45;&gt;Node12</title>
<g id="a_edge11_Node000010_Node000012"><a xlink:title=" ">
<path fill="none" stroke="#63b8ff" d="M477.29,-47.8C487.04,-38.41 499.05,-26.83 507.09,-19.09"/>
<polygon fill="#63b8ff" stroke="#63b8ff" points="474.85,-45.29 470.08,-54.75 479.71,-50.33 474.85,-45.29"/>
</a>
</g>
</g>
</g>
</svg>
