<?xml version="1.0" encoding="UTF-8" standalone="no"?>
<!DOCTYPE svg PUBLIC "-//W3C//DTD SVG 1.1//EN"
 "http://www.w3.org/Graphics/SVG/1.1/DTD/svg11.dtd">
<!-- Generated by graphviz version 2.43.0 (0)
 -->
<!-- Title: shapeFromPreset Pages: 1 -->
<svg width="261pt" height="76pt"
 viewBox="0.00 0.00 261.00 75.50" xmlns="http://www.w3.org/2000/svg" xmlns:xlink="http://www.w3.org/1999/xlink">
<g id="graph0" class="graph" transform="scale(1 1) rotate(0) translate(4 71.5)">
<title>shapeFromPreset</title>
<!-- Node1 -->
<g id="Node000001" class="node">
<title>Node1</title>
<g id="a_Node000001"><a xlink:title="Converts selected preset from EqShapePreset to a value for the purpose of drawing an EQ curve.">
<polygon fill="#999999" stroke="#666666" points="253,-45.5 152,-45.5 152,-26.5 253,-26.5 253,-45.5"/>
<text text-anchor="middle" x="202.5" y="-33.5" font-family="Helvetica,sans-Serif" font-size="10.00">shapeFromPreset</text>
</a>
</g>
</g>
<!-- Node2 -->
<g id="Node000002" class="node">
<title>Node2</title>
<g id="a_Node000002"><a xlink:href="classEQCurveView.html#aac64098dd70589d822711216097e9cf5" target="_top" xlink:title="Core rendering method of the view.">
<polygon fill="white" stroke="#666666" points="114,-67.5 2,-67.5 2,-48.5 114,-48.5 114,-67.5"/>
<text text-anchor="middle" x="58" y="-55.5" font-family="Helvetica,sans-Serif" font-size="10.00">EQCurveView::draw</text>
</a>
</g>
</g>
<!-- Node1&#45;&gt;Node2 -->
<g id="edge1_Node000001_Node000002" class="edge">
<title>Node1&#45;&gt;Node2</title>
<g id="a_edge1_Node000001_Node000002"><a xlink:title=" ">
<path fill="none" stroke="#63b8ff" d="M141.61,-45.25C132.6,-46.64 123.33,-48.07 114.41,-49.45"/>
<polygon fill="#63b8ff" stroke="#63b8ff" points="142.31,-48.68 151.66,-43.69 141.24,-41.76 142.31,-48.68"/>
</a>
</g>
</g>
<!-- Node3 -->
<g id="Node000003" class="node">
<title>Node3</title>
<g id="a_Node000003"><a xlink:href="classPolynomialEqualizer.html#a13d00fa8c0589e9d61176efbea4c3875" target="_top" xlink:title=" ">
<polygon fill="white" stroke="#666666" points="116,-30 0,-30 0,0 116,0 116,-30"/>
<text text-anchor="start" x="8" y="-18" font-family="Helvetica,sans-Serif" font-size="10.00">PolynomialEqualizer</text>
<text text-anchor="middle" x="58" y="-7" font-family="Helvetica,sans-Serif" font-size="10.00">::modulate</text>
</a>
</g>
</g>
<!-- Node1&#45;&gt;Node3 -->
<g id="edge2_Node000001_Node000003" class="edge">
<title>Node1&#45;&gt;Node3</title>
<g id="a_edge2_Node000001_Node000003"><a xlink:title=" ">
<path fill="none" stroke="#63b8ff" d="M141.61,-27.17C133.25,-25.94 124.68,-24.68 116.38,-23.46"/>
<polygon fill="#63b8ff" stroke="#63b8ff" points="141.26,-30.66 151.66,-28.66 142.28,-23.73 141.26,-30.66"/>
</a>
</g>
</g>
</g>
</svg>
