<?xml version="1.0" encoding="UTF-8" standalone="no"?>
<!DOCTYPE svg PUBLIC "-//W3C//DTD SVG 1.1//EN"
 "http://www.w3.org/Graphics/SVG/1.1/DTD/svg11.dtd">
<!-- Generated by graphviz version 2.43.0 (0)
 -->
<!-- Title: equalizer.hpp Pages: 1 -->
<svg width="852pt" height="159pt"
 viewBox="0.00 0.00 851.50 159.00" xmlns="http://www.w3.org/2000/svg" xmlns:xlink="http://www.w3.org/1999/xlink">
<g id="graph0" class="graph" transform="scale(1 1) rotate(0) translate(4 155)">
<title>equalizer.hpp</title>
<!-- Node1 -->
<g id="Node000001" class="node">
<title>Node1</title>
<g id="a_Node000001"><a xlink:title=" ">
<polygon fill="#999999" stroke="#666666" points="499,-151 417,-151 417,-132 499,-132 499,-151"/>
<text text-anchor="middle" x="458" y="-139" font-family="Helvetica,sans-Serif" font-size="10.00">equalizer.hpp</text>
</a>
</g>
</g>
<!-- Node2 -->
<g id="Node000002" class="node">
<title>Node2</title>
<g id="a_Node000002"><a xlink:title=" ">
<polygon fill="#e0e0e0" stroke="#999999" points="50,-90.5 0,-90.5 0,-71.5 50,-71.5 50,-90.5"/>
<text text-anchor="middle" x="25" y="-78.5" font-family="Helvetica,sans-Serif" font-size="10.00">fftw3.h</text>
</a>
</g>
</g>
<!-- Node1&#45;&gt;Node2 -->
<g id="edge1_Node000001_Node000002" class="edge">
<title>Node1&#45;&gt;Node2</title>
<g id="a_edge1_Node000001_Node000002"><a xlink:title=" ">
<path fill="none" stroke="#63b8ff" d="M416.83,-139.68C343.69,-137.39 186.78,-128.74 59,-96 56.84,-95.45 54.64,-94.78 52.44,-94.05"/>
<polygon fill="#63b8ff" stroke="#63b8ff" points="53.62,-90.76 43.03,-90.52 51.16,-97.31 53.62,-90.76"/>
</a>
</g>
</g>
<!-- Node3 -->
<g id="Node000003" class="node">
<title>Node3</title>
<g id="a_Node000003"><a xlink:title=" ">
<polygon fill="#e0e0e0" stroke="#999999" points="150,-90.5 68,-90.5 68,-71.5 150,-71.5 150,-90.5"/>
<text text-anchor="middle" x="109" y="-78.5" font-family="Helvetica,sans-Serif" font-size="10.00">base/ftypes.h</text>
</a>
</g>
</g>
<!-- Node1&#45;&gt;Node3 -->
<g id="edge2_Node000001_Node000003" class="edge">
<title>Node1&#45;&gt;Node3</title>
<g id="a_edge2_Node000001_Node000003"><a xlink:title=" ">
<path fill="none" stroke="#63b8ff" d="M416.6,-136C358.61,-129.32 250.1,-115.45 159,-96 155.09,-95.17 151.04,-94.2 147.02,-93.18"/>
<polygon fill="#63b8ff" stroke="#63b8ff" points="147.7,-89.74 137.14,-90.54 145.9,-96.5 147.7,-89.74"/>
</a>
</g>
</g>
<!-- Node4 -->
<g id="Node000004" class="node">
<title>Node4</title>
<g id="a_Node000004"><a xlink:title=" ">
<polygon fill="#e0e0e0" stroke="#999999" points="321.5,-90.5 168.5,-90.5 168.5,-71.5 321.5,-71.5 321.5,-90.5"/>
<text text-anchor="middle" x="245" y="-78.5" font-family="Helvetica,sans-Serif" font-size="10.00">vst/ivstparameterchanges.h</text>
</a>
</g>
</g>
<!-- Node1&#45;&gt;Node4 -->
<g id="edge3_Node000001_Node000004" class="edge">
<title>Node1&#45;&gt;Node4</title>
<g id="a_edge3_Node000001_Node000004"><a xlink:title=" ">
<path fill="none" stroke="#63b8ff" d="M427.03,-131.99C389.72,-121.75 326.94,-104.5 285.73,-93.19"/>
<polygon fill="#63b8ff" stroke="#63b8ff" points="286.58,-89.79 276.01,-90.52 284.73,-96.54 286.58,-89.79"/>
</a>
</g>
</g>
<!-- Node5 -->
<g id="Node000005" class="node">
<title>Node5</title>
<g id="a_Node000005"><a xlink:title=" ">
<polygon fill="#e0e0e0" stroke="#999999" points="458.5,-96 339.5,-96 339.5,-66 458.5,-66 458.5,-96"/>
<text text-anchor="start" x="347.5" y="-84" font-family="Helvetica,sans-Serif" font-size="10.00">public.sdk/source/vst</text>
<text text-anchor="middle" x="399" y="-73" font-family="Helvetica,sans-Serif" font-size="10.00">/vstaudioeffect.h</text>
</a>
</g>
</g>
<!-- Node1&#45;&gt;Node5 -->
<g id="edge4_Node000001_Node000005" class="edge">
<title>Node1&#45;&gt;Node5</title>
<g id="a_edge4_Node000001_Node000005"><a xlink:title=" ">
<path fill="none" stroke="#63b8ff" d="M449.29,-131.87C441.73,-124.37 430.46,-113.2 420.51,-103.33"/>
<polygon fill="#63b8ff" stroke="#63b8ff" points="422.8,-100.67 413.24,-96.11 417.87,-105.64 422.8,-100.67"/>
</a>
</g>
</g>
<!-- Node6 -->
<g id="Node000006" class="node">
<title>Node6</title>
<g id="a_Node000006"><a xlink:href="controller_8hpp.html" target="_top" xlink:title=" ">
<polygon fill="white" stroke="#666666" points="559.5,-90.5 476.5,-90.5 476.5,-71.5 559.5,-71.5 559.5,-90.5"/>
<text text-anchor="middle" x="518" y="-78.5" font-family="Helvetica,sans-Serif" font-size="10.00">controller.hpp</text>
</a>
</g>
</g>
<!-- Node1&#45;&gt;Node6 -->
<g id="edge5_Node000001_Node000006" class="edge">
<title>Node1&#45;&gt;Node6</title>
<g id="a_edge5_Node000001_Node000006"><a xlink:title=" ">
<path fill="none" stroke="#63b8ff" d="M466.85,-131.87C475.98,-122.97 490.42,-108.89 501.64,-97.95"/>
<polygon fill="#63b8ff" stroke="#63b8ff" points="504.39,-100.15 509.11,-90.67 499.51,-95.14 504.39,-100.15"/>
</a>
</g>
</g>
<!-- Node10 -->
<g id="Node000010" class="node">
<title>Node10</title>
<g id="a_Node000010"><a xlink:href="eqconstants_8hpp.html" target="_top" xlink:title=" ">
<polygon fill="white" stroke="#666666" points="636.5,-24.5 539.5,-24.5 539.5,-5.5 636.5,-5.5 636.5,-24.5"/>
<text text-anchor="middle" x="588" y="-12.5" font-family="Helvetica,sans-Serif" font-size="10.00">eqconstants.hpp</text>
</a>
</g>
</g>
<!-- Node1&#45;&gt;Node10 -->
<g id="edge13_Node000001_Node000010" class="edge">
<title>Node1&#45;&gt;Node10</title>
<g id="a_edge13_Node000001_Node000010"><a xlink:title=" ">
<path fill="none" stroke="#63b8ff" d="M499.21,-133.39C522.55,-127.28 550.5,-116.13 568,-96 582.79,-78.98 586.96,-52.62 587.97,-34.86"/>
<polygon fill="#63b8ff" stroke="#63b8ff" points="591.47,-34.71 588.26,-24.61 584.48,-34.51 591.47,-34.71"/>
</a>
</g>
</g>
<!-- Node11 -->
<g id="Node000011" class="node">
<title>Node11</title>
<g id="a_Node000011"><a xlink:href="utils_8hpp.html" target="_top" xlink:title=" ">
<polygon fill="white" stroke="#666666" points="711.5,-90.5 652.5,-90.5 652.5,-71.5 711.5,-71.5 711.5,-90.5"/>
<text text-anchor="middle" x="682" y="-78.5" font-family="Helvetica,sans-Serif" font-size="10.00">utils.hpp</text>
</a>
</g>
</g>
<!-- Node1&#45;&gt;Node11 -->
<g id="edge10_Node000001_Node000011" class="edge">
<title>Node1&#45;&gt;Node11</title>
<g id="a_edge10_Node000001_Node000011"><a xlink:title=" ">
<path fill="none" stroke="#63b8ff" d="M490.57,-131.99C530.79,-121.49 599.15,-103.64 642.37,-92.35"/>
<polygon fill="#63b8ff" stroke="#63b8ff" points="643.46,-95.68 652.25,-89.77 641.69,-88.91 643.46,-95.68"/>
</a>
</g>
</g>
<!-- Node14 -->
<g id="Node000014" class="node">
<title>Node14</title>
<g id="a_Node000014"><a xlink:href="eqshape_8hpp.html" target="_top" xlink:title=" ">
<polygon fill="white" stroke="#666666" points="834.5,-90.5 755.5,-90.5 755.5,-71.5 834.5,-71.5 834.5,-90.5"/>
<text text-anchor="middle" x="795" y="-78.5" font-family="Helvetica,sans-Serif" font-size="10.00">eqshape.hpp</text>
</a>
</g>
</g>
<!-- Node1&#45;&gt;Node14 -->
<g id="edge14_Node000001_Node000014" class="edge">
<title>Node1&#45;&gt;Node14</title>
<g id="a_edge14_Node000001_Node000014"><a xlink:title=" ">
<path fill="none" stroke="#63b8ff" d="M499.04,-133.81C550.83,-125.31 642.6,-110.05 721,-96 728.96,-94.57 737.39,-93.02 745.61,-91.48"/>
<polygon fill="#63b8ff" stroke="#63b8ff" points="746.29,-94.92 755.47,-89.63 744.99,-88.04 746.29,-94.92"/>
</a>
</g>
</g>
<!-- Node7 -->
<g id="Node000007" class="node">
<title>Node7</title>
<g id="a_Node000007"><a xlink:title=" ">
<polygon fill="#e0e0e0" stroke="#999999" points="233.5,-30 114.5,-30 114.5,0 233.5,0 233.5,-30"/>
<text text-anchor="start" x="122.5" y="-18" font-family="Helvetica,sans-Serif" font-size="10.00">public.sdk/source/vst</text>
<text text-anchor="middle" x="174" y="-7" font-family="Helvetica,sans-Serif" font-size="10.00">/vsteditcontroller.h</text>
</a>
</g>
</g>
<!-- Node6&#45;&gt;Node7 -->
<g id="edge6_Node000006_Node000007" class="edge">
<title>Node6&#45;&gt;Node7</title>
<g id="a_edge6_Node000006_Node000007"><a xlink:title=" ">
<path fill="none" stroke="#63b8ff" d="M489.01,-71.46C481.85,-69.51 474.18,-67.56 467,-66 371.54,-45.29 343.92,-47.84 243.74,-30.08"/>
<polygon fill="#63b8ff" stroke="#63b8ff" points="244.27,-26.62 233.81,-28.29 243.03,-33.5 244.27,-26.62"/>
</a>
</g>
</g>
<!-- Node8 -->
<g id="Node000008" class="node">
<title>Node8</title>
<g id="a_Node000008"><a xlink:title=" ">
<polygon fill="#e0e0e0" stroke="#999999" points="374,-30 252,-30 252,0 374,0 374,-30"/>
<text text-anchor="start" x="260" y="-18" font-family="Helvetica,sans-Serif" font-size="10.00">vstgui4/vstgui/plugin</text>
<text text-anchor="middle" x="313" y="-7" font-family="Helvetica,sans-Serif" font-size="10.00">&#45;bindings/vst3editor.h</text>
</a>
</g>
</g>
<!-- Node6&#45;&gt;Node8 -->
<g id="edge7_Node000006_Node000008" class="edge">
<title>Node6&#45;&gt;Node8</title>
<g id="a_edge7_Node000006_Node000008"><a xlink:title=" ">
<path fill="none" stroke="#63b8ff" d="M490.35,-71.37C459.12,-61.62 407.5,-45.5 367.98,-33.16"/>
<polygon fill="#63b8ff" stroke="#63b8ff" points="368.8,-29.75 358.21,-30.12 366.72,-36.44 368.8,-29.75"/>
</a>
</g>
</g>
<!-- Node9 -->
<g id="Node000009" class="node">
<title>Node9</title>
<g id="a_Node000009"><a xlink:title=" ">
<polygon fill="#e0e0e0" stroke="#999999" points="521.5,-30 392.5,-30 392.5,0 521.5,0 521.5,-30"/>
<text text-anchor="start" x="400.5" y="-18" font-family="Helvetica,sans-Serif" font-size="10.00">public.sdk/source/main</text>
<text text-anchor="middle" x="457" y="-7" font-family="Helvetica,sans-Serif" font-size="10.00">/moduleinit.h</text>
</a>
</g>
</g>
<!-- Node6&#45;&gt;Node9 -->
<g id="edge8_Node000006_Node000009" class="edge">
<title>Node6&#45;&gt;Node9</title>
<g id="a_edge8_Node000006_Node000009"><a xlink:title=" ">
<path fill="none" stroke="#63b8ff" d="M509.77,-71.37C501.64,-62.83 488.84,-49.41 477.89,-37.92"/>
<polygon fill="#63b8ff" stroke="#63b8ff" points="480.12,-35.18 470.69,-30.36 475.05,-40.01 480.12,-35.18"/>
</a>
</g>
</g>
<!-- Node6&#45;&gt;Node10 -->
<g id="edge9_Node000006_Node000010" class="edge">
<title>Node6&#45;&gt;Node10</title>
<g id="a_edge9_Node000006_Node000010"><a xlink:title=" ">
<path fill="none" stroke="#63b8ff" d="M527.44,-71.37C538.55,-61.21 557.2,-44.16 570.88,-31.65"/>
<polygon fill="#63b8ff" stroke="#63b8ff" points="573.24,-34.24 578.26,-24.91 568.52,-29.07 573.24,-34.24"/>
</a>
</g>
</g>
<!-- Node12 -->
<g id="Node000012" class="node">
<title>Node12</title>
<g id="a_Node000012"><a xlink:title=" ">
<polygon fill="#e0e0e0" stroke="#999999" points="709.5,-24.5 654.5,-24.5 654.5,-5.5 709.5,-5.5 709.5,-24.5"/>
<text text-anchor="middle" x="682" y="-12.5" font-family="Helvetica,sans-Serif" font-size="10.00">fstream</text>
</a>
</g>
</g>
<!-- Node11&#45;&gt;Node12 -->
<g id="edge11_Node000011_Node000012" class="edge">
<title>Node11&#45;&gt;Node12</title>
<g id="a_edge11_Node000011_Node000012"><a xlink:title=" ">
<path fill="none" stroke="#63b8ff" d="M682,-71.37C682,-62.16 682,-47.29 682,-35.27"/>
<polygon fill="#63b8ff" stroke="#63b8ff" points="685.5,-34.91 682,-24.91 678.5,-34.91 685.5,-34.91"/>
</a>
</g>
</g>
<!-- Node13 -->
<g id="Node000013" class="node">
<title>Node13</title>
<g id="a_Node000013"><a xlink:title=" ">
<polygon fill="#e0e0e0" stroke="#999999" points="778,-24.5 728,-24.5 728,-5.5 778,-5.5 778,-24.5"/>
<text text-anchor="middle" x="753" y="-12.5" font-family="Helvetica,sans-Serif" font-size="10.00">chrono</text>
</a>
</g>
</g>
<!-- Node11&#45;&gt;Node13 -->
<g id="edge12_Node000011_Node000013" class="edge">
<title>Node11&#45;&gt;Node13</title>
<g id="a_edge12_Node000011_Node000013"><a xlink:title=" ">
<path fill="none" stroke="#63b8ff" d="M691.58,-71.37C702.84,-61.21 721.76,-44.16 735.63,-31.65"/>
<polygon fill="#63b8ff" stroke="#63b8ff" points="738.04,-34.2 743.12,-24.91 733.35,-29 738.04,-34.2"/>
</a>
</g>
</g>
<!-- Node15 -->
<g id="Node000015" class="node">
<title>Node15</title>
<g id="a_Node000015"><a xlink:title=" ">
<polygon fill="#e0e0e0" stroke="#999999" points="843.5,-24.5 796.5,-24.5 796.5,-5.5 843.5,-5.5 843.5,-24.5"/>
<text text-anchor="middle" x="820" y="-12.5" font-family="Helvetica,sans-Serif" font-size="10.00">cmath</text>
</a>
</g>
</g>
<!-- Node14&#45;&gt;Node15 -->
<g id="edge15_Node000014_Node000015" class="edge">
<title>Node14&#45;&gt;Node15</title>
<g id="a_edge15_Node000014_Node000015"><a xlink:title=" ">
<path fill="none" stroke="#63b8ff" d="M798.37,-71.37C802.04,-61.97 808.02,-46.67 812.76,-34.53"/>
<polygon fill="#63b8ff" stroke="#63b8ff" points="816.14,-35.49 816.52,-24.91 809.62,-32.95 816.14,-35.49"/>
</a>
</g>
</g>
</g>
</svg>
