<?xml version="1.0" encoding="UTF-8" standalone="no"?>
<!DOCTYPE svg PUBLIC "-//W3C//DTD SVG 1.1//EN"
 "http://www.w3.org/Graphics/SVG/1.1/DTD/svg11.dtd">
<!-- Generated by graphviz version 2.43.0 (0)
 -->
<!-- Title: fftprocessor.hpp Pages: 1 -->
<svg width="852pt" height="214pt"
 viewBox="0.00 0.00 851.50 214.00" xmlns="http://www.w3.org/2000/svg" xmlns:xlink="http://www.w3.org/1999/xlink">
<g id="graph0" class="graph" transform="scale(1 1) rotate(0) translate(4 210)">
<title>fftprocessor.hpp</title>
<!-- Node1 -->
<g id="Node000001" class="node">
<title>Node1</title>
<g id="a_Node000001"><a xlink:title=" ">
<polygon fill="#999999" stroke="#666666" points="369.5,-206 274.5,-206 274.5,-187 369.5,-187 369.5,-206"/>
<text text-anchor="middle" x="322" y="-194" font-family="Helvetica,sans-Serif" font-size="10.00">fftprocessor.hpp</text>
</a>
</g>
</g>
<!-- Node2 -->
<g id="Node000002" class="node">
<title>Node2</title>
<g id="a_Node000002"><a xlink:title=" ">
<polygon fill="#e0e0e0" stroke="#999999" points="50,-90.5 0,-90.5 0,-71.5 50,-71.5 50,-90.5"/>
<text text-anchor="middle" x="25" y="-78.5" font-family="Helvetica,sans-Serif" font-size="10.00">fftw3.h</text>
</a>
</g>
</g>
<!-- Node1&#45;&gt;Node2 -->
<g id="edge1_Node000001_Node000002" class="edge">
<title>Node1&#45;&gt;Node2</title>
<g id="a_edge1_Node000001_Node000002"><a xlink:title=" ">
<path fill="none" stroke="#63b8ff" d="M298.69,-186.94C252.7,-169.99 147.09,-130.79 59,-96 57.63,-95.46 56.22,-94.9 54.81,-94.33"/>
<polygon fill="#63b8ff" stroke="#63b8ff" points="56.04,-91.05 45.46,-90.54 53.41,-97.54 56.04,-91.05"/>
</a>
</g>
</g>
<!-- Node3 -->
<g id="Node000003" class="node">
<title>Node3</title>
<g id="a_Node000003"><a xlink:title=" ">
<polygon fill="#e0e0e0" stroke="#999999" points="445,-151 381,-151 381,-132 445,-132 445,-151"/>
<text text-anchor="middle" x="413" y="-139" font-family="Helvetica,sans-Serif" font-size="10.00">algorithm</text>
</a>
</g>
</g>
<!-- Node1&#45;&gt;Node3 -->
<g id="edge2_Node000001_Node000003" class="edge">
<title>Node1&#45;&gt;Node3</title>
<g id="a_edge2_Node000001_Node000003"><a xlink:title=" ">
<path fill="none" stroke="#63b8ff" d="M336.62,-186.98C350.86,-178.69 372.75,-165.94 389.45,-156.22"/>
<polygon fill="#63b8ff" stroke="#63b8ff" points="391.23,-159.23 398.11,-151.17 387.71,-153.18 391.23,-159.23"/>
</a>
</g>
</g>
<!-- Node4 -->
<g id="Node000004" class="node">
<title>Node4</title>
<g id="a_Node000004"><a xlink:title=" ">
<polygon fill="#e0e0e0" stroke="#999999" points="510.5,-151 463.5,-151 463.5,-132 510.5,-132 510.5,-151"/>
<text text-anchor="middle" x="487" y="-139" font-family="Helvetica,sans-Serif" font-size="10.00">vector</text>
</a>
</g>
</g>
<!-- Node1&#45;&gt;Node4 -->
<g id="edge3_Node000001_Node000004" class="edge">
<title>Node1&#45;&gt;Node4</title>
<g id="a_edge3_Node000001_Node000004"><a xlink:title=" ">
<path fill="none" stroke="#63b8ff" d="M348.51,-186.98C377.07,-177.81 422.59,-163.19 453.59,-153.23"/>
<polygon fill="#63b8ff" stroke="#63b8ff" points="455.04,-156.44 463.5,-150.05 452.9,-149.78 455.04,-156.44"/>
</a>
</g>
</g>
<!-- Node5 -->
<g id="Node000005" class="node">
<title>Node5</title>
<g id="a_Node000005"><a xlink:title=" ">
<polygon fill="#e0e0e0" stroke="#999999" points="150,-90.5 68,-90.5 68,-71.5 150,-71.5 150,-90.5"/>
<text text-anchor="middle" x="109" y="-78.5" font-family="Helvetica,sans-Serif" font-size="10.00">base/ftypes.h</text>
</a>
</g>
</g>
<!-- Node1&#45;&gt;Node5 -->
<g id="edge4_Node000001_Node000005" class="edge">
<title>Node1&#45;&gt;Node5</title>
<g id="a_edge4_Node000001_Node000005"><a xlink:title=" ">
<path fill="none" stroke="#63b8ff" d="M305.99,-186.97C269.22,-167.37 178.47,-119.02 134.16,-95.41"/>
<polygon fill="#63b8ff" stroke="#63b8ff" points="135.67,-92.24 125.2,-90.63 132.37,-98.42 135.67,-92.24"/>
</a>
</g>
</g>
<!-- Node6 -->
<g id="Node000006" class="node">
<title>Node6</title>
<g id="a_Node000006"><a xlink:href="equalizer_8hpp.html" target="_top" xlink:title=" ">
<polygon fill="white" stroke="#666666" points="363,-151 281,-151 281,-132 363,-132 363,-151"/>
<text text-anchor="middle" x="322" y="-139" font-family="Helvetica,sans-Serif" font-size="10.00">equalizer.hpp</text>
</a>
</g>
</g>
<!-- Node1&#45;&gt;Node6 -->
<g id="edge5_Node000001_Node000006" class="edge">
<title>Node1&#45;&gt;Node6</title>
<g id="a_edge5_Node000001_Node000006"><a xlink:title=" ">
<path fill="none" stroke="#63b8ff" d="M322,-186.75C322,-179.8 322,-169.85 322,-161.13"/>
<polygon fill="#63b8ff" stroke="#63b8ff" points="325.5,-161.09 322,-151.09 318.5,-161.09 325.5,-161.09"/>
</a>
</g>
</g>
<!-- Node6&#45;&gt;Node2 -->
<g id="edge6_Node000006_Node000002" class="edge">
<title>Node6&#45;&gt;Node2</title>
<g id="a_edge6_Node000006_Node000002"><a xlink:title=" ">
<path fill="none" stroke="#63b8ff" d="M280.82,-136.41C228.51,-130.56 135.79,-118.01 59,-96 57.11,-95.46 55.19,-94.85 53.26,-94.19"/>
<polygon fill="#63b8ff" stroke="#63b8ff" points="54.39,-90.87 43.8,-90.61 51.92,-97.42 54.39,-90.87"/>
</a>
</g>
</g>
<!-- Node6&#45;&gt;Node5 -->
<g id="edge7_Node000006_Node000005" class="edge">
<title>Node6&#45;&gt;Node5</title>
<g id="a_edge7_Node000006_Node000005"><a xlink:title=" ">
<path fill="none" stroke="#63b8ff" d="M290.43,-131.95C257.58,-123.03 204.66,-108.63 159,-96 155.83,-95.12 152.55,-94.21 149.25,-93.29"/>
<polygon fill="#63b8ff" stroke="#63b8ff" points="149.97,-89.86 139.4,-90.55 148.09,-96.6 149.97,-89.86"/>
</a>
</g>
</g>
<!-- Node7 -->
<g id="Node000007" class="node">
<title>Node7</title>
<g id="a_Node000007"><a xlink:title=" ">
<polygon fill="#e0e0e0" stroke="#999999" points="321.5,-90.5 168.5,-90.5 168.5,-71.5 321.5,-71.5 321.5,-90.5"/>
<text text-anchor="middle" x="245" y="-78.5" font-family="Helvetica,sans-Serif" font-size="10.00">vst/ivstparameterchanges.h</text>
</a>
</g>
</g>
<!-- Node6&#45;&gt;Node7 -->
<g id="edge8_Node000006_Node000007" class="edge">
<title>Node6&#45;&gt;Node7</title>
<g id="a_edge8_Node000006_Node000007"><a xlink:title=" ">
<path fill="none" stroke="#63b8ff" d="M310.64,-131.87C298.58,-122.71 279.3,-108.06 264.75,-97.01"/>
<polygon fill="#63b8ff" stroke="#63b8ff" points="266.49,-93.93 256.41,-90.67 262.25,-99.5 266.49,-93.93"/>
</a>
</g>
</g>
<!-- Node8 -->
<g id="Node000008" class="node">
<title>Node8</title>
<g id="a_Node000008"><a xlink:title=" ">
<polygon fill="#e0e0e0" stroke="#999999" points="458.5,-96 339.5,-96 339.5,-66 458.5,-66 458.5,-96"/>
<text text-anchor="start" x="347.5" y="-84" font-family="Helvetica,sans-Serif" font-size="10.00">public.sdk/source/vst</text>
<text text-anchor="middle" x="399" y="-73" font-family="Helvetica,sans-Serif" font-size="10.00">/vstaudioeffect.h</text>
</a>
</g>
</g>
<!-- Node6&#45;&gt;Node8 -->
<g id="edge9_Node000006_Node000008" class="edge">
<title>Node6&#45;&gt;Node8</title>
<g id="a_edge9_Node000006_Node000008"><a xlink:title=" ">
<path fill="none" stroke="#63b8ff" d="M333.36,-131.87C343.62,-124.08 359.1,-112.32 372.45,-102.17"/>
<polygon fill="#63b8ff" stroke="#63b8ff" points="374.58,-104.95 380.42,-96.11 370.34,-99.38 374.58,-104.95"/>
</a>
</g>
</g>
<!-- Node9 -->
<g id="Node000009" class="node">
<title>Node9</title>
<g id="a_Node000009"><a xlink:href="controller_8hpp.html" target="_top" xlink:title=" ">
<polygon fill="white" stroke="#666666" points="559.5,-90.5 476.5,-90.5 476.5,-71.5 559.5,-71.5 559.5,-90.5"/>
<text text-anchor="middle" x="518" y="-78.5" font-family="Helvetica,sans-Serif" font-size="10.00">controller.hpp</text>
</a>
</g>
</g>
<!-- Node6&#45;&gt;Node9 -->
<g id="edge10_Node000006_Node000009" class="edge">
<title>Node6&#45;&gt;Node9</title>
<g id="a_edge10_Node000006_Node000009"><a xlink:title=" ">
<path fill="none" stroke="#63b8ff" d="M350.5,-131.99C384.61,-121.81 441.87,-104.72 479.79,-93.4"/>
<polygon fill="#63b8ff" stroke="#63b8ff" points="480.88,-96.73 489.47,-90.52 478.88,-90.02 480.88,-96.73"/>
</a>
</g>
</g>
<!-- Node13 -->
<g id="Node000013" class="node">
<title>Node13</title>
<g id="a_Node000013"><a xlink:href="eqconstants_8hpp.html" target="_top" xlink:title=" ">
<polygon fill="white" stroke="#666666" points="636.5,-24.5 539.5,-24.5 539.5,-5.5 636.5,-5.5 636.5,-24.5"/>
<text text-anchor="middle" x="588" y="-12.5" font-family="Helvetica,sans-Serif" font-size="10.00">eqconstants.hpp</text>
</a>
</g>
</g>
<!-- Node6&#45;&gt;Node13 -->
<g id="edge18_Node000006_Node000013" class="edge">
<title>Node6&#45;&gt;Node13</title>
<g id="a_edge18_Node000006_Node000013"><a xlink:title=" ">
<path fill="none" stroke="#63b8ff" d="M363.07,-133.36C432.58,-121.23 566.13,-97.75 568,-96 584.7,-80.36 588.35,-53.07 588.73,-34.77"/>
<polygon fill="#63b8ff" stroke="#63b8ff" points="592.23,-34.68 588.63,-24.72 585.23,-34.75 592.23,-34.68"/>
</a>
</g>
</g>
<!-- Node14 -->
<g id="Node000014" class="node">
<title>Node14</title>
<g id="a_Node000014"><a xlink:href="utils_8hpp.html" target="_top" xlink:title=" ">
<polygon fill="white" stroke="#666666" points="709.5,-90.5 650.5,-90.5 650.5,-71.5 709.5,-71.5 709.5,-90.5"/>
<text text-anchor="middle" x="680" y="-78.5" font-family="Helvetica,sans-Serif" font-size="10.00">utils.hpp</text>
</a>
</g>
</g>
<!-- Node6&#45;&gt;Node14 -->
<g id="edge15_Node000006_Node000014" class="edge">
<title>Node6&#45;&gt;Node14</title>
<g id="a_edge15_Node000006_Node000014"><a xlink:title=" ">
<path fill="none" stroke="#63b8ff" d="M363.19,-133.45C366.17,-132.96 369.13,-132.47 372,-132 474.11,-115.33 499.96,-113.14 602,-96 614.51,-93.9 628.12,-91.5 640.42,-89.28"/>
<polygon fill="#63b8ff" stroke="#63b8ff" points="641.18,-92.7 650.4,-87.47 639.93,-85.81 641.18,-92.7"/>
</a>
</g>
</g>
<!-- Node17 -->
<g id="Node000017" class="node">
<title>Node17</title>
<g id="a_Node000017"><a xlink:href="eqshape_8hpp.html" target="_top" xlink:title=" ">
<polygon fill="white" stroke="#666666" points="833.5,-90.5 754.5,-90.5 754.5,-71.5 833.5,-71.5 833.5,-90.5"/>
<text text-anchor="middle" x="794" y="-78.5" font-family="Helvetica,sans-Serif" font-size="10.00">eqshape.hpp</text>
</a>
</g>
</g>
<!-- Node6&#45;&gt;Node17 -->
<g id="edge19_Node000006_Node000017" class="edge">
<title>Node6&#45;&gt;Node17</title>
<g id="a_edge19_Node000006_Node000017"><a xlink:title=" ">
<path fill="none" stroke="#63b8ff" d="M363.17,-133.28C366.15,-132.83 369.12,-132.39 372,-132 525.62,-111 565.55,-118.24 719,-96 727.2,-94.81 735.87,-93.37 744.3,-91.86"/>
<polygon fill="#63b8ff" stroke="#63b8ff" points="745.19,-95.26 754.4,-90.01 743.93,-88.37 745.19,-95.26"/>
</a>
</g>
</g>
<!-- Node10 -->
<g id="Node000010" class="node">
<title>Node10</title>
<g id="a_Node000010"><a xlink:title=" ">
<polygon fill="#e0e0e0" stroke="#999999" points="233.5,-30 114.5,-30 114.5,0 233.5,0 233.5,-30"/>
<text text-anchor="start" x="122.5" y="-18" font-family="Helvetica,sans-Serif" font-size="10.00">public.sdk/source/vst</text>
<text text-anchor="middle" x="174" y="-7" font-family="Helvetica,sans-Serif" font-size="10.00">/vsteditcontroller.h</text>
</a>
</g>
</g>
<!-- Node9&#45;&gt;Node10 -->
<g id="edge11_Node000009_Node000010" class="edge">
<title>Node9&#45;&gt;Node10</title>
<g id="a_edge11_Node000009_Node000010"><a xlink:title=" ">
<path fill="none" stroke="#63b8ff" d="M489.01,-71.46C481.85,-69.51 474.18,-67.56 467,-66 371.54,-45.29 343.92,-47.84 243.74,-30.08"/>
<polygon fill="#63b8ff" stroke="#63b8ff" points="244.27,-26.62 233.81,-28.29 243.03,-33.5 244.27,-26.62"/>
</a>
</g>
</g>
<!-- Node11 -->
<g id="Node000011" class="node">
<title>Node11</title>
<g id="a_Node000011"><a xlink:title=" ">
<polygon fill="#e0e0e0" stroke="#999999" points="374,-30 252,-30 252,0 374,0 374,-30"/>
<text text-anchor="start" x="260" y="-18" font-family="Helvetica,sans-Serif" font-size="10.00">vstgui4/vstgui/plugin</text>
<text text-anchor="middle" x="313" y="-7" font-family="Helvetica,sans-Serif" font-size="10.00">&#45;bindings/vst3editor.h</text>
</a>
</g>
</g>
<!-- Node9&#45;&gt;Node11 -->
<g id="edge12_Node000009_Node000011" class="edge">
<title>Node9&#45;&gt;Node11</title>
<g id="a_edge12_Node000009_Node000011"><a xlink:title=" ">
<path fill="none" stroke="#63b8ff" d="M490.35,-71.37C459.12,-61.62 407.5,-45.5 367.98,-33.16"/>
<polygon fill="#63b8ff" stroke="#63b8ff" points="368.8,-29.75 358.21,-30.12 366.72,-36.44 368.8,-29.75"/>
</a>
</g>
</g>
<!-- Node12 -->
<g id="Node000012" class="node">
<title>Node12</title>
<g id="a_Node000012"><a xlink:title=" ">
<polygon fill="#e0e0e0" stroke="#999999" points="521.5,-30 392.5,-30 392.5,0 521.5,0 521.5,-30"/>
<text text-anchor="start" x="400.5" y="-18" font-family="Helvetica,sans-Serif" font-size="10.00">public.sdk/source/main</text>
<text text-anchor="middle" x="457" y="-7" font-family="Helvetica,sans-Serif" font-size="10.00">/moduleinit.h</text>
</a>
</g>
</g>
<!-- Node9&#45;&gt;Node12 -->
<g id="edge13_Node000009_Node000012" class="edge">
<title>Node9&#45;&gt;Node12</title>
<g id="a_edge13_Node000009_Node000012"><a xlink:title=" ">
<path fill="none" stroke="#63b8ff" d="M509.77,-71.37C501.64,-62.83 488.84,-49.41 477.89,-37.92"/>
<polygon fill="#63b8ff" stroke="#63b8ff" points="480.12,-35.18 470.69,-30.36 475.05,-40.01 480.12,-35.18"/>
</a>
</g>
</g>
<!-- Node9&#45;&gt;Node13 -->
<g id="edge14_Node000009_Node000013" class="edge">
<title>Node9&#45;&gt;Node13</title>
<g id="a_edge14_Node000009_Node000013"><a xlink:title=" ">
<path fill="none" stroke="#63b8ff" d="M527.44,-71.37C538.55,-61.21 557.2,-44.16 570.88,-31.65"/>
<polygon fill="#63b8ff" stroke="#63b8ff" points="573.24,-34.24 578.26,-24.91 568.52,-29.07 573.24,-34.24"/>
</a>
</g>
</g>
<!-- Node15 -->
<g id="Node000015" class="node">
<title>Node15</title>
<g id="a_Node000015"><a xlink:title=" ">
<polygon fill="#e0e0e0" stroke="#999999" points="778.5,-24.5 723.5,-24.5 723.5,-5.5 778.5,-5.5 778.5,-24.5"/>
<text text-anchor="middle" x="751" y="-12.5" font-family="Helvetica,sans-Serif" font-size="10.00">fstream</text>
</a>
</g>
</g>
<!-- Node14&#45;&gt;Node15 -->
<g id="edge16_Node000014_Node000015" class="edge">
<title>Node14&#45;&gt;Node15</title>
<g id="a_edge16_Node000014_Node000015"><a xlink:title=" ">
<path fill="none" stroke="#63b8ff" d="M689.58,-71.37C700.84,-61.21 719.76,-44.16 733.63,-31.65"/>
<polygon fill="#63b8ff" stroke="#63b8ff" points="736.04,-34.2 741.12,-24.91 731.35,-29 736.04,-34.2"/>
</a>
</g>
</g>
<!-- Node16 -->
<g id="Node000016" class="node">
<title>Node16</title>
<g id="a_Node000016"><a xlink:title=" ">
<polygon fill="#e0e0e0" stroke="#999999" points="705,-24.5 655,-24.5 655,-5.5 705,-5.5 705,-24.5"/>
<text text-anchor="middle" x="680" y="-12.5" font-family="Helvetica,sans-Serif" font-size="10.00">chrono</text>
</a>
</g>
</g>
<!-- Node14&#45;&gt;Node16 -->
<g id="edge17_Node000014_Node000016" class="edge">
<title>Node14&#45;&gt;Node16</title>
<g id="a_edge17_Node000014_Node000016"><a xlink:title=" ">
<path fill="none" stroke="#63b8ff" d="M680,-71.37C680,-62.16 680,-47.29 680,-35.27"/>
<polygon fill="#63b8ff" stroke="#63b8ff" points="683.5,-34.91 680,-24.91 676.5,-34.91 683.5,-34.91"/>
</a>
</g>
</g>
<!-- Node18 -->
<g id="Node000018" class="node">
<title>Node18</title>
<g id="a_Node000018"><a xlink:title=" ">
<polygon fill="#e0e0e0" stroke="#999999" points="843.5,-24.5 796.5,-24.5 796.5,-5.5 843.5,-5.5 843.5,-24.5"/>
<text text-anchor="middle" x="820" y="-12.5" font-family="Helvetica,sans-Serif" font-size="10.00">cmath</text>
</a>
</g>
</g>
<!-- Node17&#45;&gt;Node18 -->
<g id="edge20_Node000017_Node000018" class="edge">
<title>Node17&#45;&gt;Node18</title>
<g id="a_edge20_Node000017_Node000018"><a xlink:title=" ">
<path fill="none" stroke="#63b8ff" d="M797.51,-71.37C801.32,-61.97 807.54,-46.67 812.47,-34.53"/>
<polygon fill="#63b8ff" stroke="#63b8ff" points="815.86,-35.49 816.38,-24.91 809.38,-32.85 815.86,-35.49"/>
</a>
</g>
</g>
</g>
</svg>
