<?xml version="1.0" encoding="UTF-8" standalone="no"?>
<!DOCTYPE svg PUBLIC "-//W3C//DTD SVG 1.1//EN"
 "http://www.w3.org/Graphics/SVG/1.1/DTD/svg11.dtd">
<!-- Generated by graphviz version 2.43.0 (0)
 -->
<!-- Title: pluginfactory.cpp Pages: 1 -->
<!--zoomable 346 -->

<svg id="main" version="1.1" xmlns="http://www.w3.org/2000/svg" xmlns:xlink="http://www.w3.org/1999/xlink" xml:space="preserve" onload="init(evt)">
<style type="text/css"><![CDATA[
.node, .edge {opacity: 0.7;}
.node.selected, .edge.selected {opacity: 1;}
.edge:hover path { stroke: red; }
.edge:hover polygon { stroke: red; fill: red; }
]]></style>

<defs>
  <circle id="rim" cx="0" cy="0" r="7"/>
  <circle id="rim2" cx="0" cy="0" r="3.5"/>
  <g id="zoomPlus">
    <use xlink:href="#rim" fill="#404040"><set attributeName="fill" to="#808080" begin="zoomplus.mouseover" end="zoomplus.mouseout"/></use>
    <path d="M-4,0h8M0,-4v8" fill="none" stroke="white" stroke-width="1.5" pointer-events="none"/>
  </g>
  <g id="zoomMin">
    <use xlink:href="#rim" fill="#404040"><set attributeName="fill" to="#808080" begin="zoomminus.mouseover" end="zoomminus.mouseout"/></use>
    <path d="M-4,0h8" fill="none" stroke="white" stroke-width="1.5" pointer-events="none"/>
  </g>
  <g id="arrowUp" transform="translate(30 24)">
    <use xlink:href="#rim"/>
    <path pointer-events="none" fill="none" stroke="white" stroke-width="1.5" d="M0,-3.0v7 M-2.5,-0.5L0,-3.0L2.5,-0.5"/>
  </g>
  <g id="arrowRight" transform="rotate(90) translate(36 -43)">
    <use xlink:href="#rim"/>
    <path pointer-events="none" fill="none" stroke="white" stroke-width="1.5" d="M0,-3.0v7 M-2.5,-0.5L0,-3.0L2.5,-0.5"/>
  </g>
  <g id="arrowDown" transform="rotate(180) translate(-30 -48)">
    <use xlink:href="#rim"/>
    <path pointer-events="none" fill="none" stroke="white" stroke-width="1.5" d="M0,-3.0v7 M-2.5,-0.5L0,-3.0L2.5,-0.5"/>
  </g>
  <g id="arrowLeft" transform="rotate(270) translate(-36 17)">
    <use xlink:href="#rim"/>
    <path pointer-events="none" fill="none" stroke="white" stroke-width="1.5" d="M0,-3.0v7 M-2.5,-0.5L0,-3.0L2.5,-0.5"/>
  </g>
  <g id="resetDef">
    <use xlink:href="#rim2" fill="#404040"><set attributeName="fill" to="#808080" begin="reset.mouseover" end="reset.mouseout"/></use>
  </g>
</defs>
<script type="application/ecmascript">
var viewWidth = 1191;
var viewHeight = 346;
var sectionId = 'dynsection-0';
</script>
<script type="application/ecmascript" xlink:href="svg.min.js"/>
<svg id="graph" class="graph">
<g id="viewport">
<title>pluginfactory.cpp</title>
<!-- Node1 -->
<g id="Node000001" class="node">
<title>Node1</title>
<g id="a_Node000001"><a xlink:title="States essential plugin metadata for the host.">
<polygon fill="#999999" stroke="#666666" points="584.5,-338 484.5,-338 484.5,-319 584.5,-319 584.5,-338"/>
<text text-anchor="middle" x="534.5" y="-326" font-family="Helvetica,sans-Serif" font-size="10.00">pluginfactory.cpp</text>
</a>
</g>
</g>
<!-- Node2 -->
<g id="Node000002" class="node">
<title>Node2</title>
<g id="a_Node000002"><a xlink:title=" ">
<polygon fill="#e0e0e0" stroke="#999999" points="129,-283 0,-283 0,-253 129,-253 129,-283"/>
<text text-anchor="start" x="8" y="-271" font-family="Helvetica,sans-Serif" font-size="10.00">public.sdk/source/main</text>
<text text-anchor="middle" x="64.5" y="-260" font-family="Helvetica,sans-Serif" font-size="10.00">/pluginfactory.h</text>
</a>
</g>
</g>
<!-- Node1&#45;&gt;Node2 -->
<g id="edge1_Node000001_Node000002" class="edge">
<title>Node1&#45;&gt;Node2</title>
<g id="a_edge1_Node000001_Node000002"><a xlink:title=" ">
<path fill="none" stroke="#63b8ff" d="M484.2,-323.13C410.6,-316.45 269.04,-302.56 139.44,-283.23"/>
<polygon fill="#63b8ff" stroke="#63b8ff" points="139.74,-279.73 129.33,-281.71 138.7,-286.66 139.74,-279.73"/>
</a>
</g>
</g>
<!-- Node3 -->
<g id="Node000003" class="node">
<title>Node3</title>
<g id="a_Node000003"><a xlink:title=" ">
<polygon fill="#e0e0e0" stroke="#999999" points="272,-283 147,-283 147,-253 272,-253 272,-283"/>
<text text-anchor="start" x="155" y="-271" font-family="Helvetica,sans-Serif" font-size="10.00">public.sdk/source/vst</text>
<text text-anchor="middle" x="209.5" y="-260" font-family="Helvetica,sans-Serif" font-size="10.00">/utility/stringconvert.h</text>
</a>
</g>
</g>
<!-- Node1&#45;&gt;Node3 -->
<g id="edge2_Node000001_Node000003" class="edge">
<title>Node1&#45;&gt;Node3</title>
<g id="a_edge2_Node000001_Node000003"><a xlink:title=" ">
<path fill="none" stroke="#63b8ff" d="M484.32,-319.03C435.25,-310.68 358.12,-297.36 282.39,-283.33"/>
<polygon fill="#63b8ff" stroke="#63b8ff" points="282.68,-279.83 272.21,-281.44 281.4,-286.71 282.68,-279.83"/>
</a>
</g>
</g>
<!-- Node4 -->
<g id="Node000004" class="node">
<title>Node4</title>
<g id="a_Node000004"><a xlink:title=" ">
<polygon fill="#e0e0e0" stroke="#999999" points="409,-283 290,-283 290,-253 409,-253 409,-283"/>
<text text-anchor="start" x="298" y="-271" font-family="Helvetica,sans-Serif" font-size="10.00">public.sdk/source/vst</text>
<text text-anchor="middle" x="349.5" y="-260" font-family="Helvetica,sans-Serif" font-size="10.00">/vstcomponent.h</text>
</a>
</g>
</g>
<!-- Node1&#45;&gt;Node4 -->
<g id="edge3_Node000001_Node000004" class="edge">
<title>Node1&#45;&gt;Node4</title>
<g id="a_edge3_Node000001_Node000004"><a xlink:title=" ">
<path fill="none" stroke="#63b8ff" d="M507.6,-318.99C480.51,-310.43 437.96,-296.97 403.82,-286.18"/>
<polygon fill="#63b8ff" stroke="#63b8ff" points="404.57,-282.74 393.98,-283.06 402.46,-289.42 404.57,-282.74"/>
</a>
</g>
</g>
<!-- Node5 -->
<g id="Node000005" class="node">
<title>Node5</title>
<g id="a_Node000005"><a xlink:title=" ">
<polygon fill="#e0e0e0" stroke="#999999" points="338,-30 219,-30 219,0 338,0 338,-30"/>
<text text-anchor="start" x="227" y="-18" font-family="Helvetica,sans-Serif" font-size="10.00">public.sdk/source/vst</text>
<text text-anchor="middle" x="278.5" y="-7" font-family="Helvetica,sans-Serif" font-size="10.00">/vsteditcontroller.h</text>
</a>
</g>
</g>
<!-- Node1&#45;&gt;Node5 -->
<g id="edge4_Node000001_Node000005" class="edge">
<title>Node1&#45;&gt;Node5</title>
<g id="a_edge4_Node000001_Node000005"><a xlink:title=" ">
<path fill="none" stroke="#63b8ff" d="M527.39,-318.84C493.53,-277.64 348.22,-100.83 296.7,-38.15"/>
<polygon fill="#63b8ff" stroke="#63b8ff" points="299.13,-35.59 290.07,-30.08 293.72,-40.03 299.13,-35.59"/>
</a>
</g>
</g>
<!-- Node6 -->
<g id="Node000006" class="node">
<title>Node6</title>
<g id="a_Node000006"><a xlink:title=" ">
<polygon fill="#e0e0e0" stroke="#999999" points="782,-283 669,-283 669,-253 782,-253 782,-283"/>
<text text-anchor="start" x="677" y="-271" font-family="Helvetica,sans-Serif" font-size="10.00">pluginterfaces/base</text>
<text text-anchor="middle" x="725.5" y="-260" font-family="Helvetica,sans-Serif" font-size="10.00">/funknown.h</text>
</a>
</g>
</g>
<!-- Node1&#45;&gt;Node6 -->
<g id="edge5_Node000001_Node000006" class="edge">
<title>Node1&#45;&gt;Node6</title>
<g id="a_edge5_Node000001_Node000006"><a xlink:title=" ">
<path fill="none" stroke="#63b8ff" d="M562.27,-318.99C590.36,-310.39 634.55,-296.86 669.87,-286.04"/>
<polygon fill="#63b8ff" stroke="#63b8ff" points="671.04,-289.34 679.58,-283.06 668.99,-282.65 671.04,-289.34"/>
</a>
</g>
</g>
<!-- Node7 -->
<g id="Node000007" class="node">
<title>Node7</title>
<g id="a_Node000007"><a xlink:title=" ">
<polygon fill="#e0e0e0" stroke="#999999" points="934,-217 821,-217 821,-187 934,-187 934,-217"/>
<text text-anchor="start" x="829" y="-205" font-family="Helvetica,sans-Serif" font-size="10.00">pluginterfaces/base</text>
<text text-anchor="middle" x="877.5" y="-194" font-family="Helvetica,sans-Serif" font-size="10.00">/ustring.h</text>
</a>
</g>
</g>
<!-- Node1&#45;&gt;Node7 -->
<g id="edge6_Node000001_Node000007" class="edge">
<title>Node1&#45;&gt;Node7</title>
<g id="a_edge6_Node000001_Node000007"><a xlink:title=" ">
<path fill="none" stroke="#63b8ff" d="M553.72,-318.91C571.72,-310.58 599.14,-297.15 621.5,-283 639.98,-271.31 640.72,-262.34 660.5,-253 674.17,-246.54 752.18,-229.31 810.78,-216.87"/>
<polygon fill="#63b8ff" stroke="#63b8ff" points="811.68,-220.26 820.74,-214.77 810.23,-213.41 811.68,-220.26"/>
</a>
</g>
</g>
<!-- Node8 -->
<g id="Node000008" class="node">
<title>Node8</title>
<g id="a_Node000008"><a xlink:title=" ">
<polygon fill="#e0e0e0" stroke="#999999" points="920.5,-283 800.5,-283 800.5,-253 920.5,-253 920.5,-283"/>
<text text-anchor="start" x="808.5" y="-271" font-family="Helvetica,sans-Serif" font-size="10.00">pluginterfaces/vst</text>
<text text-anchor="middle" x="860.5" y="-260" font-family="Helvetica,sans-Serif" font-size="10.00">/ivstaudioprocessor.h</text>
</a>
</g>
</g>
<!-- Node1&#45;&gt;Node8 -->
<g id="edge7_Node000001_Node000008" class="edge">
<title>Node1&#45;&gt;Node8</title>
<g id="a_edge7_Node000001_Node000008"><a xlink:title=" ">
<path fill="none" stroke="#63b8ff" d="M584.81,-319.23C634.55,-310.95 713.08,-297.62 790.4,-283.18"/>
<polygon fill="#63b8ff" stroke="#63b8ff" points="791.13,-286.6 800.31,-281.32 789.84,-279.72 791.13,-286.6"/>
</a>
</g>
</g>
<!-- Node9 -->
<g id="Node000009" class="node">
<title>Node9</title>
<g id="a_Node000009"><a xlink:title=" ">
<polygon fill="#e0e0e0" stroke="#999999" points="1050,-283 939,-283 939,-253 1050,-253 1050,-283"/>
<text text-anchor="start" x="947" y="-271" font-family="Helvetica,sans-Serif" font-size="10.00">pluginterfaces/vst</text>
<text text-anchor="middle" x="994.5" y="-260" font-family="Helvetica,sans-Serif" font-size="10.00">/ivsteditcontroller.h</text>
</a>
</g>
</g>
<!-- Node1&#45;&gt;Node9 -->
<g id="edge8_Node000001_Node000009" class="edge">
<title>Node1&#45;&gt;Node9</title>
<g id="a_edge8_Node000001_Node000009"><a xlink:title=" ">
<path fill="none" stroke="#63b8ff" d="M584.6,-323.47C657.9,-317.22 798.84,-303.87 928.77,-283"/>
<polygon fill="#63b8ff" stroke="#63b8ff" points="929.59,-286.42 938.9,-281.36 928.47,-279.51 929.59,-286.42"/>
</a>
</g>
</g>
<!-- Node10 -->
<g id="Node000010" class="node">
<title>Node10</title>
<g id="a_Node000010"><a xlink:href="processor_8hpp.html" target="_top" xlink:title=" ">
<polygon fill="white" stroke="#666666" points="612.5,-277.5 528.5,-277.5 528.5,-258.5 612.5,-258.5 612.5,-277.5"/>
<text text-anchor="middle" x="570.5" y="-265.5" font-family="Helvetica,sans-Serif" font-size="10.00">processor.hpp</text>
</a>
</g>
</g>
<!-- Node1&#45;&gt;Node10 -->
<g id="edge9_Node000001_Node000010" class="edge">
<title>Node1&#45;&gt;Node10</title>
<g id="a_edge9_Node000001_Node000010"><a xlink:title=" ">
<path fill="none" stroke="#63b8ff" d="M539.81,-318.87C545.08,-310.31 553.29,-296.97 559.89,-286.24"/>
<polygon fill="#63b8ff" stroke="#63b8ff" points="562.91,-288.02 565.17,-277.67 556.94,-284.35 562.91,-288.02"/>
</a>
</g>
</g>
<!-- Node16 -->
<g id="Node000016" class="node">
<title>Node16</title>
<g id="a_Node000016"><a xlink:href="controller_8hpp.html" target="_top" xlink:title=" ">
<polygon fill="white" stroke="#666666" points="493,-90.5 410,-90.5 410,-71.5 493,-71.5 493,-90.5"/>
<text text-anchor="middle" x="451.5" y="-78.5" font-family="Helvetica,sans-Serif" font-size="10.00">controller.hpp</text>
</a>
</g>
</g>
<!-- Node1&#45;&gt;Node16 -->
<g id="edge35_Node000001_Node000016" class="edge">
<title>Node1&#45;&gt;Node16</title>
<g id="a_edge35_Node000001_Node000016"><a xlink:title=" ">
<path fill="none" stroke="#63b8ff" d="M531.55,-318.76C519.55,-283.27 474.29,-149.41 457.67,-100.25"/>
<polygon fill="#63b8ff" stroke="#63b8ff" points="460.94,-98.99 454.42,-90.63 454.31,-101.23 460.94,-98.99"/>
</a>
</g>
</g>
<!-- Node10&#45;&gt;Node7 -->
<g id="edge11_Node000010_Node000007" class="edge">
<title>Node10&#45;&gt;Node7</title>
<g id="a_edge11_Node000010_Node000007"><a xlink:title=" ">
<path fill="none" stroke="#63b8ff" d="M603.6,-258.44C611.11,-256.58 619.07,-254.67 626.5,-253 635.56,-250.97 739.78,-230.28 811.04,-216.16"/>
<polygon fill="#63b8ff" stroke="#63b8ff" points="811.74,-219.59 820.86,-214.21 810.38,-212.72 811.74,-219.59"/>
</a>
</g>
</g>
<!-- Node11 -->
<g id="Node000011" class="node">
<title>Node11</title>
<g id="a_Node000011"><a xlink:title=" ">
<polygon fill="#e0e0e0" stroke="#999999" points="630,-96 511,-96 511,-66 630,-66 630,-96"/>
<text text-anchor="start" x="519" y="-84" font-family="Helvetica,sans-Serif" font-size="10.00">public.sdk/source/vst</text>
<text text-anchor="middle" x="570.5" y="-73" font-family="Helvetica,sans-Serif" font-size="10.00">/vstaudioeffect.h</text>
</a>
</g>
</g>
<!-- Node10&#45;&gt;Node11 -->
<g id="edge10_Node000010_Node000011" class="edge">
<title>Node10&#45;&gt;Node11</title>
<g id="a_edge10_Node000010_Node000011"><a xlink:title=" ">
<path fill="none" stroke="#63b8ff" d="M570.5,-258.08C570.5,-230.78 570.5,-147.73 570.5,-106.2"/>
<polygon fill="#63b8ff" stroke="#63b8ff" points="574,-106.12 570.5,-96.12 567,-106.12 574,-106.12"/>
</a>
</g>
</g>
<!-- Node12 -->
<g id="Node000012" class="node">
<title>Node12</title>
<g id="a_Node000012"><a xlink:href="equalizer_8hpp.html" target="_top" xlink:title=" ">
<polygon fill="white" stroke="#666666" points="699.5,-151 617.5,-151 617.5,-132 699.5,-132 699.5,-151"/>
<text text-anchor="middle" x="658.5" y="-139" font-family="Helvetica,sans-Serif" font-size="10.00">equalizer.hpp</text>
</a>
</g>
</g>
<!-- Node10&#45;&gt;Node12 -->
<g id="edge12_Node000010_Node000012" class="edge">
<title>Node10&#45;&gt;Node12</title>
<g id="a_edge12_Node000010_Node000012"><a xlink:title=" ">
<path fill="none" stroke="#63b8ff" d="M576.55,-258.44C590.93,-238.1 627.38,-186.53 646.45,-159.54"/>
<polygon fill="#63b8ff" stroke="#63b8ff" points="649.5,-161.3 652.41,-151.12 643.78,-157.26 649.5,-161.3"/>
</a>
</g>
</g>
<!-- Node25 -->
<g id="Node000025" class="node">
<title>Node25</title>
<g id="a_Node000025"><a xlink:href="fftprocessor_8hpp.html" target="_top" xlink:title=" ">
<polygon fill="white" stroke="#666666" points="764,-211.5 669,-211.5 669,-192.5 764,-192.5 764,-211.5"/>
<text text-anchor="middle" x="716.5" y="-199.5" font-family="Helvetica,sans-Serif" font-size="10.00">fftprocessor.hpp</text>
</a>
</g>
</g>
<!-- Node10&#45;&gt;Node25 -->
<g id="edge28_Node000010_Node000025" class="edge">
<title>Node10&#45;&gt;Node25</title>
<g id="a_edge28_Node000010_Node000025"><a xlink:title=" ">
<path fill="none" stroke="#63b8ff" d="M590.19,-258.37C615.23,-247.39 658.65,-228.36 687.48,-215.72"/>
<polygon fill="#63b8ff" stroke="#63b8ff" points="688.9,-218.92 696.66,-211.7 686.09,-212.51 688.9,-218.92"/>
</a>
</g>
</g>
<!-- Node27 -->
<g id="Node000027" class="node">
<title>Node27</title>
<g id="a_Node000027"><a xlink:title=" ">
<polygon fill="#e0e0e0" stroke="#999999" points="923,-151 876,-151 876,-132 923,-132 923,-151"/>
<text text-anchor="middle" x="899.5" y="-139" font-family="Helvetica,sans-Serif" font-size="10.00">vector</text>
</a>
</g>
</g>
<!-- Node10&#45;&gt;Node27 -->
<g id="edge34_Node000010_Node000027" class="edge">
<title>Node10&#45;&gt;Node27</title>
<g id="a_edge34_Node000010_Node000027"><a xlink:title=" ">
<path fill="none" stroke="#63b8ff" d="M604.55,-258.46C611.79,-256.65 619.4,-254.76 626.5,-253 691.79,-236.84 712.87,-246.13 773.5,-217 793.21,-207.53 794.02,-198.69 812.5,-187 831.37,-175.06 853.83,-163.63 871.21,-155.35"/>
<polygon fill="#63b8ff" stroke="#63b8ff" points="872.72,-158.51 880.28,-151.09 869.74,-152.17 872.72,-158.51"/>
</a>
</g>
</g>
<!-- Node12&#45;&gt;Node11 -->
<g id="edge16_Node000012_Node000011" class="edge">
<title>Node12&#45;&gt;Node11</title>
<g id="a_edge16_Node000012_Node000011"><a xlink:title=" ">
<path fill="none" stroke="#63b8ff" d="M645.52,-131.87C633.69,-124 615.77,-112.09 600.41,-101.89"/>
<polygon fill="#63b8ff" stroke="#63b8ff" points="602,-98.74 591.73,-96.11 598.12,-104.57 602,-98.74"/>
</a>
</g>
</g>
<!-- Node13 -->
<g id="Node000013" class="node">
<title>Node13</title>
<g id="a_Node000013"><a xlink:title=" ">
<polygon fill="#e0e0e0" stroke="#999999" points="1082.5,-90.5 1032.5,-90.5 1032.5,-71.5 1082.5,-71.5 1082.5,-90.5"/>
<text text-anchor="middle" x="1057.5" y="-78.5" font-family="Helvetica,sans-Serif" font-size="10.00">fftw3.h</text>
</a>
</g>
</g>
<!-- Node12&#45;&gt;Node13 -->
<g id="edge13_Node000012_Node000013" class="edge">
<title>Node12&#45;&gt;Node13</title>
<g id="a_edge13_Node000012_Node000013"><a xlink:title=" ">
<path fill="none" stroke="#63b8ff" d="M699.62,-133.97C704.3,-133.28 709,-132.61 713.5,-132 850.95,-113.4 889.22,-130.73 1023.5,-96 1025.66,-95.44 1027.86,-94.77 1030.06,-94.04"/>
<polygon fill="#63b8ff" stroke="#63b8ff" points="1031.34,-97.3 1039.46,-90.5 1028.87,-90.75 1031.34,-97.3"/>
</a>
</g>
</g>
<!-- Node14 -->
<g id="Node000014" class="node">
<title>Node14</title>
<g id="a_Node000014"><a xlink:title=" ">
<polygon fill="#e0e0e0" stroke="#999999" points="1182.5,-90.5 1100.5,-90.5 1100.5,-71.5 1182.5,-71.5 1182.5,-90.5"/>
<text text-anchor="middle" x="1141.5" y="-78.5" font-family="Helvetica,sans-Serif" font-size="10.00">base/ftypes.h</text>
</a>
</g>
</g>
<!-- Node12&#45;&gt;Node14 -->
<g id="edge14_Node000012_Node000014" class="edge">
<title>Node12&#45;&gt;Node14</title>
<g id="a_edge14_Node000012_Node000014"><a xlink:title=" ">
<path fill="none" stroke="#63b8ff" d="M699.78,-136.66C800.54,-127.24 1053.59,-103.2 1091.5,-96 1095.68,-95.21 1100.03,-94.23 1104.33,-93.16"/>
<polygon fill="#63b8ff" stroke="#63b8ff" points="1105.42,-96.49 1114.19,-90.55 1103.63,-89.72 1105.42,-96.49"/>
</a>
</g>
</g>
<!-- Node15 -->
<g id="Node000015" class="node">
<title>Node15</title>
<g id="a_Node000015"><a xlink:title=" ">
<polygon fill="#e0e0e0" stroke="#999999" points="840,-90.5 687,-90.5 687,-71.5 840,-71.5 840,-90.5"/>
<text text-anchor="middle" x="763.5" y="-78.5" font-family="Helvetica,sans-Serif" font-size="10.00">vst/ivstparameterchanges.h</text>
</a>
</g>
</g>
<!-- Node12&#45;&gt;Node15 -->
<g id="edge15_Node000012_Node000015" class="edge">
<title>Node12&#45;&gt;Node15</title>
<g id="a_edge15_Node000012_Node000015"><a xlink:title=" ">
<path fill="none" stroke="#63b8ff" d="M673.99,-131.87C691.13,-122.32 718.97,-106.81 739.06,-95.62"/>
<polygon fill="#63b8ff" stroke="#63b8ff" points="740.91,-98.59 747.94,-90.67 737.5,-92.48 740.91,-98.59"/>
</a>
</g>
</g>
<!-- Node12&#45;&gt;Node16 -->
<g id="edge17_Node000012_Node000016" class="edge">
<title>Node12&#45;&gt;Node16</title>
<g id="a_edge17_Node000012_Node000016"><a xlink:title=" ">
<path fill="none" stroke="#63b8ff" d="M628.4,-131.99C592.22,-121.77 531.39,-104.58 491.34,-93.26"/>
<polygon fill="#63b8ff" stroke="#63b8ff" points="492.21,-89.87 481.64,-90.52 490.31,-96.6 492.21,-89.87"/>
</a>
</g>
</g>
<!-- Node19 -->
<g id="Node000019" class="node">
<title>Node19</title>
<g id="a_Node000019"><a xlink:href="eqconstants_8hpp.html" target="_top" xlink:title=" ">
<polygon fill="white" stroke="#666666" points="741,-24.5 644,-24.5 644,-5.5 741,-5.5 741,-24.5"/>
<text text-anchor="middle" x="692.5" y="-12.5" font-family="Helvetica,sans-Serif" font-size="10.00">eqconstants.hpp</text>
</a>
</g>
</g>
<!-- Node12&#45;&gt;Node19 -->
<g id="edge25_Node000012_Node000019" class="edge">
<title>Node12&#45;&gt;Node19</title>
<g id="a_edge25_Node000012_Node000019"><a xlink:title=" ">
<path fill="none" stroke="#63b8ff" d="M660.81,-131.77C664.5,-117.85 671.98,-89.76 678.5,-66 681.34,-55.63 684.58,-44.06 687.22,-34.67"/>
<polygon fill="#63b8ff" stroke="#63b8ff" points="690.65,-35.42 689.99,-24.84 683.91,-33.52 690.65,-35.42"/>
</a>
</g>
</g>
<!-- Node20 -->
<g id="Node000020" class="node">
<title>Node20</title>
<g id="a_Node000020"><a xlink:href="utils_8hpp.html" target="_top" xlink:title=" ">
<polygon fill="white" stroke="#666666" points="917,-90.5 858,-90.5 858,-71.5 917,-71.5 917,-90.5"/>
<text text-anchor="middle" x="887.5" y="-78.5" font-family="Helvetica,sans-Serif" font-size="10.00">utils.hpp</text>
</a>
</g>
</g>
<!-- Node12&#45;&gt;Node20 -->
<g id="edge22_Node000012_Node000020" class="edge">
<title>Node12&#45;&gt;Node20</title>
<g id="a_edge22_Node000012_Node000020"><a xlink:title=" ">
<path fill="none" stroke="#63b8ff" d="M699.87,-132.41C738.82,-124.43 798.62,-111.24 849.5,-96 851.63,-95.36 853.82,-94.67 856.02,-93.94"/>
<polygon fill="#63b8ff" stroke="#63b8ff" points="857.26,-97.21 865.55,-90.61 854.96,-90.6 857.26,-97.21"/>
</a>
</g>
</g>
<!-- Node23 -->
<g id="Node000023" class="node">
<title>Node23</title>
<g id="a_Node000023"><a xlink:href="eqshape_8hpp.html" target="_top" xlink:title=" ">
<polygon fill="white" stroke="#666666" points="1014,-90.5 935,-90.5 935,-71.5 1014,-71.5 1014,-90.5"/>
<text text-anchor="middle" x="974.5" y="-78.5" font-family="Helvetica,sans-Serif" font-size="10.00">eqshape.hpp</text>
</a>
</g>
</g>
<!-- Node12&#45;&gt;Node23 -->
<g id="edge26_Node000012_Node000023" class="edge">
<title>Node12&#45;&gt;Node23</title>
<g id="a_edge26_Node000012_Node000023"><a xlink:title=" ">
<path fill="none" stroke="#63b8ff" d="M699.77,-133.92C769.41,-122.79 904.8,-100.95 926.5,-96 930.1,-95.18 933.82,-94.25 937.53,-93.26"/>
<polygon fill="#63b8ff" stroke="#63b8ff" points="938.54,-96.61 947.23,-90.56 936.66,-89.87 938.54,-96.61"/>
</a>
</g>
</g>
<!-- Node16&#45;&gt;Node5 -->
<g id="edge18_Node000016_Node000005" class="edge">
<title>Node16&#45;&gt;Node5</title>
<g id="a_edge18_Node000016_Node000005"><a xlink:title=" ">
<path fill="none" stroke="#63b8ff" d="M428.17,-71.37C402.15,-61.74 359.35,-45.91 326.18,-33.64"/>
<polygon fill="#63b8ff" stroke="#63b8ff" points="327.25,-30.3 316.66,-30.12 324.82,-36.87 327.25,-30.3"/>
</a>
</g>
</g>
<!-- Node17 -->
<g id="Node000017" class="node">
<title>Node17</title>
<g id="a_Node000017"><a xlink:title=" ">
<polygon fill="#e0e0e0" stroke="#999999" points="478.5,-30 356.5,-30 356.5,0 478.5,0 478.5,-30"/>
<text text-anchor="start" x="364.5" y="-18" font-family="Helvetica,sans-Serif" font-size="10.00">vstgui4/vstgui/plugin</text>
<text text-anchor="middle" x="417.5" y="-7" font-family="Helvetica,sans-Serif" font-size="10.00">&#45;bindings/vst3editor.h</text>
</a>
</g>
</g>
<!-- Node16&#45;&gt;Node17 -->
<g id="edge19_Node000016_Node000017" class="edge">
<title>Node16&#45;&gt;Node17</title>
<g id="a_edge19_Node000016_Node000017"><a xlink:title=" ">
<path fill="none" stroke="#63b8ff" d="M446.91,-71.37C442.55,-63.16 435.79,-50.44 429.85,-39.26"/>
<polygon fill="#63b8ff" stroke="#63b8ff" points="432.91,-37.55 425.13,-30.36 426.73,-40.83 432.91,-37.55"/>
</a>
</g>
</g>
<!-- Node18 -->
<g id="Node000018" class="node">
<title>Node18</title>
<g id="a_Node000018"><a xlink:title=" ">
<polygon fill="#e0e0e0" stroke="#999999" points="626,-30 497,-30 497,0 626,0 626,-30"/>
<text text-anchor="start" x="505" y="-18" font-family="Helvetica,sans-Serif" font-size="10.00">public.sdk/source/main</text>
<text text-anchor="middle" x="561.5" y="-7" font-family="Helvetica,sans-Serif" font-size="10.00">/moduleinit.h</text>
</a>
</g>
</g>
<!-- Node16&#45;&gt;Node18 -->
<g id="edge20_Node000016_Node000018" class="edge">
<title>Node16&#45;&gt;Node18</title>
<g id="a_edge20_Node000016_Node000018"><a xlink:title=" ">
<path fill="none" stroke="#63b8ff" d="M466.34,-71.37C482.17,-62.16 507.77,-47.26 528.44,-35.24"/>
<polygon fill="#63b8ff" stroke="#63b8ff" points="530.36,-38.17 537.24,-30.12 526.84,-32.12 530.36,-38.17"/>
</a>
</g>
</g>
<!-- Node16&#45;&gt;Node19 -->
<g id="edge21_Node000016_Node000019" class="edge">
<title>Node16&#45;&gt;Node19</title>
<g id="a_edge21_Node000016_Node000019"><a xlink:title=" ">
<path fill="none" stroke="#63b8ff" d="M482.5,-71.43C489.1,-69.63 496.03,-67.74 502.5,-66 553,-52.43 611.15,-37.18 649.68,-27.13"/>
<polygon fill="#63b8ff" stroke="#63b8ff" points="650.73,-30.47 659.52,-24.57 648.96,-23.7 650.73,-30.47"/>
</a>
</g>
</g>
<!-- Node21 -->
<g id="Node000021" class="node">
<title>Node21</title>
<g id="a_Node000021"><a xlink:title=" ">
<polygon fill="#e0e0e0" stroke="#999999" points="856,-24.5 801,-24.5 801,-5.5 856,-5.5 856,-24.5"/>
<text text-anchor="middle" x="828.5" y="-12.5" font-family="Helvetica,sans-Serif" font-size="10.00">fstream</text>
</a>
</g>
</g>
<!-- Node20&#45;&gt;Node21 -->
<g id="edge23_Node000020_Node000021" class="edge">
<title>Node20&#45;&gt;Node21</title>
<g id="a_edge23_Node000020_Node000021"><a xlink:title=" ">
<path fill="none" stroke="#63b8ff" d="M879.54,-71.37C870.36,-61.4 855.04,-44.79 843.58,-32.36"/>
<polygon fill="#63b8ff" stroke="#63b8ff" points="846.06,-29.89 836.71,-24.91 840.91,-34.63 846.06,-29.89"/>
</a>
</g>
</g>
<!-- Node22 -->
<g id="Node000022" class="node">
<title>Node22</title>
<g id="a_Node000022"><a xlink:title=" ">
<polygon fill="#e0e0e0" stroke="#999999" points="924.5,-24.5 874.5,-24.5 874.5,-5.5 924.5,-5.5 924.5,-24.5"/>
<text text-anchor="middle" x="899.5" y="-12.5" font-family="Helvetica,sans-Serif" font-size="10.00">chrono</text>
</a>
</g>
</g>
<!-- Node20&#45;&gt;Node22 -->
<g id="edge24_Node000020_Node000022" class="edge">
<title>Node20&#45;&gt;Node22</title>
<g id="a_edge24_Node000020_Node000022"><a xlink:title=" ">
<path fill="none" stroke="#63b8ff" d="M889.12,-71.37C890.86,-62.07 893.69,-46.98 895.96,-34.9"/>
<polygon fill="#63b8ff" stroke="#63b8ff" points="899.43,-35.38 897.83,-24.91 892.55,-34.09 899.43,-35.38"/>
</a>
</g>
</g>
<!-- Node24 -->
<g id="Node000024" class="node">
<title>Node24</title>
<g id="a_Node000024"><a xlink:title=" ">
<polygon fill="#e0e0e0" stroke="#999999" points="998,-24.5 951,-24.5 951,-5.5 998,-5.5 998,-24.5"/>
<text text-anchor="middle" x="974.5" y="-12.5" font-family="Helvetica,sans-Serif" font-size="10.00">cmath</text>
</a>
</g>
</g>
<!-- Node23&#45;&gt;Node24 -->
<g id="edge27_Node000023_Node000024" class="edge">
<title>Node23&#45;&gt;Node24</title>
<g id="a_edge27_Node000023_Node000024"><a xlink:title=" ">
<path fill="none" stroke="#63b8ff" d="M974.5,-71.37C974.5,-62.16 974.5,-47.29 974.5,-35.27"/>
<polygon fill="#63b8ff" stroke="#63b8ff" points="978,-34.91 974.5,-24.91 971,-34.91 978,-34.91"/>
</a>
</g>
</g>
<!-- Node25&#45;&gt;Node12 -->
<g id="edge33_Node000025_Node000012" class="edge">
<title>Node25&#45;&gt;Node12</title>
<g id="a_edge33_Node000025_Node000012"><a xlink:title=" ">
<path fill="none" stroke="#63b8ff" d="M707.94,-192.37C699.12,-183.47 685.16,-169.39 674.32,-158.45"/>
<polygon fill="#63b8ff" stroke="#63b8ff" points="676.62,-155.8 667.09,-151.17 671.65,-160.73 676.62,-155.8"/>
</a>
</g>
</g>
<!-- Node25&#45;&gt;Node13 -->
<g id="edge29_Node000025_Node000013" class="edge">
<title>Node25&#45;&gt;Node13</title>
<g id="a_edge29_Node000025_Node000013"><a xlink:title=" ">
<path fill="none" stroke="#63b8ff" d="M718.24,-192.07C721.68,-176.97 730.9,-146.6 751.5,-132 851,-61.5 905.69,-127.48 1023.5,-96 1025.44,-95.48 1027.42,-94.88 1029.4,-94.22"/>
<polygon fill="#63b8ff" stroke="#63b8ff" points="1030.95,-97.37 1039.1,-90.59 1028.5,-90.82 1030.95,-97.37"/>
</a>
</g>
</g>
<!-- Node25&#45;&gt;Node14 -->
<g id="edge32_Node000025_Node000014" class="edge">
<title>Node25&#45;&gt;Node14</title>
<g id="a_edge32_Node000025_Node000014"><a xlink:title=" ">
<path fill="none" stroke="#63b8ff" d="M722,-192.4C732.24,-177.24 755.79,-146.04 784.5,-132 907.92,-71.66 956.72,-122.6 1091.5,-96 1095.63,-95.19 1099.91,-94.2 1104.16,-93.14"/>
<polygon fill="#63b8ff" stroke="#63b8ff" points="1105.15,-96.5 1113.92,-90.55 1103.35,-89.73 1105.15,-96.5"/>
</a>
</g>
</g>
<!-- Node26 -->
<g id="Node000026" class="node">
<title>Node26</title>
<g id="a_Node000026"><a xlink:title=" ">
<polygon fill="#e0e0e0" stroke="#999999" points="857.5,-151 793.5,-151 793.5,-132 857.5,-132 857.5,-151"/>
<text text-anchor="middle" x="825.5" y="-139" font-family="Helvetica,sans-Serif" font-size="10.00">algorithm</text>
</a>
</g>
</g>
<!-- Node25&#45;&gt;Node26 -->
<g id="edge30_Node000025_Node000026" class="edge">
<title>Node25&#45;&gt;Node26</title>
<g id="a_edge30_Node000025_Node000026"><a xlink:title=" ">
<path fill="none" stroke="#63b8ff" d="M732.58,-192.37C750.45,-182.78 779.54,-167.17 800.41,-155.97"/>
<polygon fill="#63b8ff" stroke="#63b8ff" points="802.19,-158.98 809.35,-151.17 798.88,-152.81 802.19,-158.98"/>
</a>
</g>
</g>
<!-- Node25&#45;&gt;Node27 -->
<g id="edge31_Node000025_Node000027" class="edge">
<title>Node25&#45;&gt;Node27</title>
<g id="a_edge31_Node000025_Node000027"><a xlink:title=" ">
<path fill="none" stroke="#63b8ff" d="M743.11,-192.49C775.59,-182.11 830.55,-164.54 865.91,-153.24"/>
<polygon fill="#63b8ff" stroke="#63b8ff" points="867.31,-156.46 875.77,-150.09 865.18,-149.8 867.31,-156.46"/>
</a>
</g>
</g>
</g>
</svg>

<g id="navigator" transform="translate(0 0)" fill="#404254">
  <rect fill="#f2f5e9" fill-opacity="0.5" stroke="#606060" stroke-width=".5" x="0" y="0" width="60" height="60"/>
  <use id="zoomplus" xlink:href="#zoomPlus" x="17" y="9" onmousedown="handleZoom(evt,'in')"/>
  <use id="zoomminus" xlink:href="#zoomMin" x="42" y="9" onmousedown="handleZoom(evt,'out')"/>
  <use id="reset" xlink:href="#resetDef" x="30" y="36" onmousedown="handleReset()"/>
   <use id="arrowup" xlink:href="#arrowUp" x="0" y="0" onmousedown="handlePan(0,-1)"/>
  <use id="arrowright" xlink:href="#arrowRight" x="0" y="0" onmousedown="handlePan(1,0)"/>
  <use id="arrowdown" xlink:href="#arrowDown" x="0" y="0" onmousedown="handlePan(0,1)"/>
  <use id="arrowleft" xlink:href="#arrowLeft" x="0" y="0" onmousedown="handlePan(-1,0)"/>
</g>
<svg viewBox="0 0 15 15" width="100%" height="30px" preserveAspectRatio="xMaxYMin meet">
 <g id="arrow_out" transform="scale(0.3 0.3)">
  <a xlink:href="pluginfactory_8cpp__incl_org.svg" target="_base">
   <rect id="button" ry="5" rx="5" y="6" x="6" height="38" width="38"
        fill="#f2f5e9" fill-opacity="0.5" stroke="#606060" stroke-width="1.0"/>
   <path id="arrow"
     d="M 11.500037,31.436501 C 11.940474,20.09759 22.043105,11.32322 32.158766,21.979434 L 37.068811,17.246167 C 37.068811,17.246167 37.088388,32 37.088388,32 L 22.160133,31.978069 C 22.160133,31.978069 26.997745,27.140456 26.997745,27.140456 C 18.528582,18.264221 13.291696,25.230495 11.500037,31.436501 z"
     style="fill:#404040;"/>
  </a>
 </g>
</svg>

<style type='text/css'>
<![CDATA[
[data-mouse-over-selected='false'] { opacity: 0.7; }
[data-mouse-over-selected='true']  { opacity: 1.0; }
]]>
</style>
<script type="application/ecmascript"><![CDATA[
document.addEventListener('DOMContentLoaded', (event) => {
  highlightEdges();
  highlightAdjacentNodes();
});
]]></script>
</svg>
