<?xml version="1.0" encoding="UTF-8" standalone="no"?>
<!DOCTYPE svg PUBLIC "-//W3C//DTD SVG 1.1//EN"
 "http://www.w3.org/Graphics/SVG/1.1/DTD/svg11.dtd">
<!-- Generated by graphviz version 2.43.0 (0)
 -->
<!-- Title: presetmenu.cpp Pages: 1 -->
<svg width="961pt" height="214pt"
 viewBox="0.00 0.00 961.00 214.00" xmlns="http://www.w3.org/2000/svg" xmlns:xlink="http://www.w3.org/1999/xlink">
<g id="graph0" class="graph" transform="scale(1 1) rotate(0) translate(4 210)">
<title>presetmenu.cpp</title>
<!-- Node1 -->
<g id="Node000001" class="node">
<title>Node1</title>
<g id="a_Node000001"><a xlink:title=" ">
<polygon fill="#999999" stroke="#666666" points="675,-206 580,-206 580,-187 675,-187 675,-206"/>
<text text-anchor="middle" x="627.5" y="-194" font-family="Helvetica,sans-Serif" font-size="10.00">presetmenu.cpp</text>
</a>
</g>
</g>
<!-- Node2 -->
<g id="Node000002" class="node">
<title>Node2</title>
<g id="a_Node000002"><a xlink:href="presetmenu_8hpp.html" target="_top" xlink:title="Defines all classes related to the preset menu selector view object.">
<polygon fill="white" stroke="#666666" points="622.5,-151 526.5,-151 526.5,-132 622.5,-132 622.5,-151"/>
<text text-anchor="middle" x="574.5" y="-139" font-family="Helvetica,sans-Serif" font-size="10.00">presetmenu.hpp</text>
</a>
</g>
</g>
<!-- Node1&#45;&gt;Node2 -->
<g id="edge1_Node000001_Node000002" class="edge">
<title>Node1&#45;&gt;Node2</title>
<g id="a_edge1_Node000001_Node000002"><a xlink:title=" ">
<path fill="none" stroke="#63b8ff" d="M618.75,-186.75C611.03,-179.03 599.6,-167.6 590.28,-158.28"/>
<polygon fill="#63b8ff" stroke="#63b8ff" points="592.64,-155.69 583.09,-151.09 587.69,-160.64 592.64,-155.69"/>
</a>
</g>
</g>
<!-- Node12 -->
<g id="Node000012" class="node">
<title>Node12</title>
<g id="a_Node000012"><a xlink:href="eqshape_8hpp.html" target="_top" xlink:title=" ">
<polygon fill="white" stroke="#666666" points="844,-151 765,-151 765,-132 844,-132 844,-151"/>
<text text-anchor="middle" x="804.5" y="-139" font-family="Helvetica,sans-Serif" font-size="10.00">eqshape.hpp</text>
</a>
</g>
</g>
<!-- Node1&#45;&gt;Node12 -->
<g id="edge11_Node000001_Node000012" class="edge">
<title>Node1&#45;&gt;Node12</title>
<g id="a_edge11_Node000001_Node000012"><a xlink:title=" ">
<path fill="none" stroke="#63b8ff" d="M655.94,-186.98C685.78,-178.05 732.88,-163.94 766.03,-154.02"/>
<polygon fill="#63b8ff" stroke="#63b8ff" points="767.26,-157.3 775.84,-151.08 765.26,-150.6 767.26,-157.3"/>
</a>
</g>
</g>
<!-- Node3 -->
<g id="Node000003" class="node">
<title>Node3</title>
<g id="a_Node000003"><a xlink:href="controller_8hpp.html" target="_top" xlink:title=" ">
<polygon fill="white" stroke="#666666" points="312,-90.5 229,-90.5 229,-71.5 312,-71.5 312,-90.5"/>
<text text-anchor="middle" x="270.5" y="-78.5" font-family="Helvetica,sans-Serif" font-size="10.00">controller.hpp</text>
</a>
</g>
</g>
<!-- Node2&#45;&gt;Node3 -->
<g id="edge2_Node000002_Node000003" class="edge">
<title>Node2&#45;&gt;Node3</title>
<g id="a_edge2_Node000002_Node000003"><a xlink:title=" ">
<path fill="none" stroke="#63b8ff" d="M526.2,-133.39C475.09,-125.54 392.21,-111.89 321.5,-96 317.63,-95.13 313.61,-94.16 309.61,-93.14"/>
<polygon fill="#63b8ff" stroke="#63b8ff" points="310.34,-89.71 299.78,-90.54 308.55,-96.48 310.34,-89.71"/>
</a>
</g>
</g>
<!-- Node8 -->
<g id="Node000008" class="node">
<title>Node8</title>
<g id="a_Node000008"><a xlink:title=" ">
<polygon fill="#e0e0e0" stroke="#999999" points="434.5,-96 330.5,-96 330.5,-66 434.5,-66 434.5,-96"/>
<text text-anchor="start" x="338.5" y="-84" font-family="Helvetica,sans-Serif" font-size="10.00">vstgui/lib/controls</text>
<text text-anchor="middle" x="382.5" y="-73" font-family="Helvetica,sans-Serif" font-size="10.00">/coptionmenu.h</text>
</a>
</g>
</g>
<!-- Node2&#45;&gt;Node8 -->
<g id="edge7_Node000002_Node000008" class="edge">
<title>Node2&#45;&gt;Node8</title>
<g id="a_edge7_Node000002_Node000008"><a xlink:title=" ">
<path fill="none" stroke="#63b8ff" d="M546.58,-131.99C518.35,-123.39 473.92,-109.86 438.42,-99.04"/>
<polygon fill="#63b8ff" stroke="#63b8ff" points="439.25,-95.63 428.66,-96.06 437.21,-102.33 439.25,-95.63"/>
</a>
</g>
</g>
<!-- Node9 -->
<g id="Node000009" class="node">
<title>Node9</title>
<g id="a_Node000009"><a xlink:title=" ">
<polygon fill="#e0e0e0" stroke="#999999" points="566,-96 453,-96 453,-66 566,-66 566,-96"/>
<text text-anchor="start" x="461" y="-84" font-family="Helvetica,sans-Serif" font-size="10.00">vstgui/uidescription</text>
<text text-anchor="middle" x="509.5" y="-73" font-family="Helvetica,sans-Serif" font-size="10.00">/iviewcreator.h</text>
</a>
</g>
</g>
<!-- Node2&#45;&gt;Node9 -->
<g id="edge8_Node000002_Node000009" class="edge">
<title>Node2&#45;&gt;Node9</title>
<g id="a_edge8_Node000002_Node000009"><a xlink:title=" ">
<path fill="none" stroke="#63b8ff" d="M564.91,-131.87C556.5,-124.3 543.92,-112.98 532.87,-103.04"/>
<polygon fill="#63b8ff" stroke="#63b8ff" points="534.96,-100.2 525.18,-96.11 530.27,-105.41 534.96,-100.2"/>
</a>
</g>
</g>
<!-- Node10 -->
<g id="Node000010" class="node">
<title>Node10</title>
<g id="a_Node000010"><a xlink:title=" ">
<polygon fill="#e0e0e0" stroke="#999999" points="697,-96 584,-96 584,-66 697,-66 697,-96"/>
<text text-anchor="start" x="592" y="-84" font-family="Helvetica,sans-Serif" font-size="10.00">vstgui/uidescription</text>
<text text-anchor="middle" x="640.5" y="-73" font-family="Helvetica,sans-Serif" font-size="10.00">/uiviewfactory.h</text>
</a>
</g>
</g>
<!-- Node2&#45;&gt;Node10 -->
<g id="edge9_Node000002_Node000010" class="edge">
<title>Node2&#45;&gt;Node10</title>
<g id="a_edge9_Node000002_Node000010"><a xlink:title=" ">
<path fill="none" stroke="#63b8ff" d="M584.24,-131.87C592.86,-124.22 605.8,-112.76 617.09,-102.75"/>
<polygon fill="#63b8ff" stroke="#63b8ff" points="619.41,-105.37 624.58,-96.11 614.77,-100.13 619.41,-105.37"/>
</a>
</g>
</g>
<!-- Node11 -->
<g id="Node000011" class="node">
<title>Node11</title>
<g id="a_Node000011"><a xlink:title=" ">
<polygon fill="#e0e0e0" stroke="#999999" points="888,-96 715,-96 715,-66 888,-66 888,-96"/>
<text text-anchor="start" x="723" y="-84" font-family="Helvetica,sans-Serif" font-size="10.00">vstgui/uidescription</text>
<text text-anchor="middle" x="801.5" y="-73" font-family="Helvetica,sans-Serif" font-size="10.00">/detail/uiviewcreatorattributes.h</text>
</a>
</g>
</g>
<!-- Node2&#45;&gt;Node11 -->
<g id="edge10_Node000002_Node000011" class="edge">
<title>Node2&#45;&gt;Node11</title>
<g id="a_edge10_Node000002_Node000011"><a xlink:title=" ">
<path fill="none" stroke="#63b8ff" d="M607.51,-131.99C641.32,-123.28 694.76,-109.51 737,-98.62"/>
<polygon fill="#63b8ff" stroke="#63b8ff" points="738.12,-101.95 746.93,-96.06 736.37,-95.17 738.12,-101.95"/>
</a>
</g>
</g>
<!-- Node4 -->
<g id="Node000004" class="node">
<title>Node4</title>
<g id="a_Node000004"><a xlink:title=" ">
<polygon fill="#e0e0e0" stroke="#999999" points="119,-30 0,-30 0,0 119,0 119,-30"/>
<text text-anchor="start" x="8" y="-18" font-family="Helvetica,sans-Serif" font-size="10.00">public.sdk/source/vst</text>
<text text-anchor="middle" x="59.5" y="-7" font-family="Helvetica,sans-Serif" font-size="10.00">/vsteditcontroller.h</text>
</a>
</g>
</g>
<!-- Node3&#45;&gt;Node4 -->
<g id="edge3_Node000003_Node000004" class="edge">
<title>Node3&#45;&gt;Node4</title>
<g id="a_edge3_Node000003_Node000004"><a xlink:title=" ">
<path fill="none" stroke="#63b8ff" d="M242.04,-71.37C209.83,-61.6 156.54,-45.43 115.83,-33.09"/>
<polygon fill="#63b8ff" stroke="#63b8ff" points="116.62,-29.67 106.04,-30.12 114.59,-36.37 116.62,-29.67"/>
</a>
</g>
</g>
<!-- Node5 -->
<g id="Node000005" class="node">
<title>Node5</title>
<g id="a_Node000005"><a xlink:title=" ">
<polygon fill="#e0e0e0" stroke="#999999" points="259.5,-30 137.5,-30 137.5,0 259.5,0 259.5,-30"/>
<text text-anchor="start" x="145.5" y="-18" font-family="Helvetica,sans-Serif" font-size="10.00">vstgui4/vstgui/plugin</text>
<text text-anchor="middle" x="198.5" y="-7" font-family="Helvetica,sans-Serif" font-size="10.00">&#45;bindings/vst3editor.h</text>
</a>
</g>
</g>
<!-- Node3&#45;&gt;Node5 -->
<g id="edge4_Node000003_Node000005" class="edge">
<title>Node3&#45;&gt;Node5</title>
<g id="a_edge4_Node000003_Node000005"><a xlink:title=" ">
<path fill="none" stroke="#63b8ff" d="M260.79,-71.37C250.94,-62.61 235.3,-48.71 222.16,-37.04"/>
<polygon fill="#63b8ff" stroke="#63b8ff" points="224.18,-34.14 214.38,-30.12 219.53,-39.38 224.18,-34.14"/>
</a>
</g>
</g>
<!-- Node6 -->
<g id="Node000006" class="node">
<title>Node6</title>
<g id="a_Node000006"><a xlink:title=" ">
<polygon fill="#e0e0e0" stroke="#999999" points="407,-30 278,-30 278,0 407,0 407,-30"/>
<text text-anchor="start" x="286" y="-18" font-family="Helvetica,sans-Serif" font-size="10.00">public.sdk/source/main</text>
<text text-anchor="middle" x="342.5" y="-7" font-family="Helvetica,sans-Serif" font-size="10.00">/moduleinit.h</text>
</a>
</g>
</g>
<!-- Node3&#45;&gt;Node6 -->
<g id="edge5_Node000003_Node000006" class="edge">
<title>Node3&#45;&gt;Node6</title>
<g id="a_edge5_Node000003_Node000006"><a xlink:title=" ">
<path fill="none" stroke="#63b8ff" d="M280.21,-71.37C290.06,-62.61 305.7,-48.71 318.84,-37.04"/>
<polygon fill="#63b8ff" stroke="#63b8ff" points="321.47,-39.38 326.62,-30.12 316.82,-34.14 321.47,-39.38"/>
</a>
</g>
</g>
<!-- Node7 -->
<g id="Node000007" class="node">
<title>Node7</title>
<g id="a_Node000007"><a xlink:href="eqconstants_8hpp.html" target="_top" xlink:title=" ">
<polygon fill="white" stroke="#666666" points="522,-24.5 425,-24.5 425,-5.5 522,-5.5 522,-24.5"/>
<text text-anchor="middle" x="473.5" y="-12.5" font-family="Helvetica,sans-Serif" font-size="10.00">eqconstants.hpp</text>
</a>
</g>
</g>
<!-- Node3&#45;&gt;Node7 -->
<g id="edge6_Node000003_Node000007" class="edge">
<title>Node3&#45;&gt;Node7</title>
<g id="a_edge6_Node000003_Node000007"><a xlink:title=" ">
<path fill="none" stroke="#63b8ff" d="M297.88,-71.37C333.69,-60.08 396.59,-40.25 436.59,-27.64"/>
<polygon fill="#63b8ff" stroke="#63b8ff" points="437.75,-30.94 446.23,-24.6 435.64,-24.27 437.75,-30.94"/>
</a>
</g>
</g>
<!-- Node13 -->
<g id="Node000013" class="node">
<title>Node13</title>
<g id="a_Node000013"><a xlink:title=" ">
<polygon fill="#e0e0e0" stroke="#999999" points="953,-90.5 906,-90.5 906,-71.5 953,-71.5 953,-90.5"/>
<text text-anchor="middle" x="929.5" y="-78.5" font-family="Helvetica,sans-Serif" font-size="10.00">cmath</text>
</a>
</g>
</g>
<!-- Node12&#45;&gt;Node13 -->
<g id="edge12_Node000012_Node000013" class="edge">
<title>Node12&#45;&gt;Node13</title>
<g id="a_edge12_Node000012_Node000013"><a xlink:title=" ">
<path fill="none" stroke="#63b8ff" d="M822.68,-131.99C843.51,-122.25 877.87,-106.16 901.98,-94.88"/>
<polygon fill="#63b8ff" stroke="#63b8ff" points="903.73,-97.93 911.3,-90.52 900.76,-91.59 903.73,-97.93"/>
</a>
</g>
</g>
</g>
</svg>
