<?xml version="1.0" encoding="UTF-8" standalone="no"?>
<!DOCTYPE svg PUBLIC "-//W3C//DTD SVG 1.1//EN"
 "http://www.w3.org/Graphics/SVG/1.1/DTD/svg11.dtd">
<!-- Generated by graphviz version 2.43.0 (0)
 -->
<!-- Title: presetmenu.hpp Pages: 1 -->
<svg width="896pt" height="159pt"
 viewBox="0.00 0.00 896.00 159.00" xmlns="http://www.w3.org/2000/svg" xmlns:xlink="http://www.w3.org/1999/xlink">
<g id="graph0" class="graph" transform="scale(1 1) rotate(0) translate(4 155)">
<title>presetmenu.hpp</title>
<!-- Node1 -->
<g id="Node000001" class="node">
<title>Node1</title>
<g id="a_Node000001"><a xlink:title="Defines all classes related to the preset menu selector view object.">
<polygon fill="#999999" stroke="#666666" points="557.5,-151 461.5,-151 461.5,-132 557.5,-132 557.5,-151"/>
<text text-anchor="middle" x="509.5" y="-139" font-family="Helvetica,sans-Serif" font-size="10.00">presetmenu.hpp</text>
</a>
</g>
</g>
<!-- Node2 -->
<g id="Node000002" class="node">
<title>Node2</title>
<g id="a_Node000002"><a xlink:href="controller_8hpp.html" target="_top" xlink:title=" ">
<polygon fill="white" stroke="#666666" points="312,-90.5 229,-90.5 229,-71.5 312,-71.5 312,-90.5"/>
<text text-anchor="middle" x="270.5" y="-78.5" font-family="Helvetica,sans-Serif" font-size="10.00">controller.hpp</text>
</a>
</g>
</g>
<!-- Node1&#45;&gt;Node2 -->
<g id="edge1_Node000001_Node000002" class="edge">
<title>Node1&#45;&gt;Node2</title>
<g id="a_edge1_Node000001_Node000002"><a xlink:title=" ">
<path fill="none" stroke="#63b8ff" d="M471.59,-131.94C433.56,-123.26 373.33,-109.24 321.5,-96 317.96,-95.09 314.28,-94.13 310.6,-93.15"/>
<polygon fill="#63b8ff" stroke="#63b8ff" points="311.49,-89.77 300.93,-90.54 309.67,-96.53 311.49,-89.77"/>
</a>
</g>
</g>
<!-- Node7 -->
<g id="Node000007" class="node">
<title>Node7</title>
<g id="a_Node000007"><a xlink:title=" ">
<polygon fill="#e0e0e0" stroke="#999999" points="434.5,-96 330.5,-96 330.5,-66 434.5,-66 434.5,-96"/>
<text text-anchor="start" x="338.5" y="-84" font-family="Helvetica,sans-Serif" font-size="10.00">vstgui/lib/controls</text>
<text text-anchor="middle" x="382.5" y="-73" font-family="Helvetica,sans-Serif" font-size="10.00">/coptionmenu.h</text>
</a>
</g>
</g>
<!-- Node1&#45;&gt;Node7 -->
<g id="edge6_Node000001_Node000007" class="edge">
<title>Node1&#45;&gt;Node7</title>
<g id="a_edge6_Node000001_Node000007"><a xlink:title=" ">
<path fill="none" stroke="#63b8ff" d="M491.03,-131.99C473.14,-123.75 445.4,-110.98 422.45,-100.4"/>
<polygon fill="#63b8ff" stroke="#63b8ff" points="423.83,-97.18 413.28,-96.18 420.9,-103.54 423.83,-97.18"/>
</a>
</g>
</g>
<!-- Node8 -->
<g id="Node000008" class="node">
<title>Node8</title>
<g id="a_Node000008"><a xlink:title=" ">
<polygon fill="#e0e0e0" stroke="#999999" points="566,-96 453,-96 453,-66 566,-66 566,-96"/>
<text text-anchor="start" x="461" y="-84" font-family="Helvetica,sans-Serif" font-size="10.00">vstgui/uidescription</text>
<text text-anchor="middle" x="509.5" y="-73" font-family="Helvetica,sans-Serif" font-size="10.00">/iviewcreator.h</text>
</a>
</g>
</g>
<!-- Node1&#45;&gt;Node8 -->
<g id="edge7_Node000001_Node000008" class="edge">
<title>Node1&#45;&gt;Node8</title>
<g id="a_edge7_Node000001_Node000008"><a xlink:title=" ">
<path fill="none" stroke="#63b8ff" d="M509.5,-131.87C509.5,-125.11 509.5,-115.35 509.5,-106.26"/>
<polygon fill="#63b8ff" stroke="#63b8ff" points="513,-106.11 509.5,-96.11 506,-106.11 513,-106.11"/>
</a>
</g>
</g>
<!-- Node9 -->
<g id="Node000009" class="node">
<title>Node9</title>
<g id="a_Node000009"><a xlink:title=" ">
<polygon fill="#e0e0e0" stroke="#999999" points="697,-96 584,-96 584,-66 697,-66 697,-96"/>
<text text-anchor="start" x="592" y="-84" font-family="Helvetica,sans-Serif" font-size="10.00">vstgui/uidescription</text>
<text text-anchor="middle" x="640.5" y="-73" font-family="Helvetica,sans-Serif" font-size="10.00">/uiviewfactory.h</text>
</a>
</g>
</g>
<!-- Node1&#45;&gt;Node9 -->
<g id="edge8_Node000001_Node000009" class="edge">
<title>Node1&#45;&gt;Node9</title>
<g id="a_edge8_Node000001_Node000009"><a xlink:title=" ">
<path fill="none" stroke="#63b8ff" d="M528.55,-131.99C547.15,-123.68 576.06,-110.78 599.84,-100.16"/>
<polygon fill="#63b8ff" stroke="#63b8ff" points="601.3,-103.34 609.01,-96.06 598.45,-96.95 601.3,-103.34"/>
</a>
</g>
</g>
<!-- Node10 -->
<g id="Node000010" class="node">
<title>Node10</title>
<g id="a_Node000010"><a xlink:title=" ">
<polygon fill="#e0e0e0" stroke="#999999" points="888,-96 715,-96 715,-66 888,-66 888,-96"/>
<text text-anchor="start" x="723" y="-84" font-family="Helvetica,sans-Serif" font-size="10.00">vstgui/uidescription</text>
<text text-anchor="middle" x="801.5" y="-73" font-family="Helvetica,sans-Serif" font-size="10.00">/detail/uiviewcreatorattributes.h</text>
</a>
</g>
</g>
<!-- Node1&#45;&gt;Node10 -->
<g id="edge9_Node000001_Node000010" class="edge">
<title>Node1&#45;&gt;Node10</title>
<g id="a_edge9_Node000001_Node000010"><a xlink:title=" ">
<path fill="none" stroke="#63b8ff" d="M551.96,-131.99C596.26,-123.12 666.76,-108.99 721.54,-98.02"/>
<polygon fill="#63b8ff" stroke="#63b8ff" points="722.46,-101.4 731.58,-96.01 721.09,-94.54 722.46,-101.4"/>
</a>
</g>
</g>
<!-- Node3 -->
<g id="Node000003" class="node">
<title>Node3</title>
<g id="a_Node000003"><a xlink:title=" ">
<polygon fill="#e0e0e0" stroke="#999999" points="119,-30 0,-30 0,0 119,0 119,-30"/>
<text text-anchor="start" x="8" y="-18" font-family="Helvetica,sans-Serif" font-size="10.00">public.sdk/source/vst</text>
<text text-anchor="middle" x="59.5" y="-7" font-family="Helvetica,sans-Serif" font-size="10.00">/vsteditcontroller.h</text>
</a>
</g>
</g>
<!-- Node2&#45;&gt;Node3 -->
<g id="edge2_Node000002_Node000003" class="edge">
<title>Node2&#45;&gt;Node3</title>
<g id="a_edge2_Node000002_Node000003"><a xlink:title=" ">
<path fill="none" stroke="#63b8ff" d="M242.04,-71.37C209.83,-61.6 156.54,-45.43 115.83,-33.09"/>
<polygon fill="#63b8ff" stroke="#63b8ff" points="116.62,-29.67 106.04,-30.12 114.59,-36.37 116.62,-29.67"/>
</a>
</g>
</g>
<!-- Node4 -->
<g id="Node000004" class="node">
<title>Node4</title>
<g id="a_Node000004"><a xlink:title=" ">
<polygon fill="#e0e0e0" stroke="#999999" points="259.5,-30 137.5,-30 137.5,0 259.5,0 259.5,-30"/>
<text text-anchor="start" x="145.5" y="-18" font-family="Helvetica,sans-Serif" font-size="10.00">vstgui4/vstgui/plugin</text>
<text text-anchor="middle" x="198.5" y="-7" font-family="Helvetica,sans-Serif" font-size="10.00">&#45;bindings/vst3editor.h</text>
</a>
</g>
</g>
<!-- Node2&#45;&gt;Node4 -->
<g id="edge3_Node000002_Node000004" class="edge">
<title>Node2&#45;&gt;Node4</title>
<g id="a_edge3_Node000002_Node000004"><a xlink:title=" ">
<path fill="none" stroke="#63b8ff" d="M260.79,-71.37C250.94,-62.61 235.3,-48.71 222.16,-37.04"/>
<polygon fill="#63b8ff" stroke="#63b8ff" points="224.18,-34.14 214.38,-30.12 219.53,-39.38 224.18,-34.14"/>
</a>
</g>
</g>
<!-- Node5 -->
<g id="Node000005" class="node">
<title>Node5</title>
<g id="a_Node000005"><a xlink:title=" ">
<polygon fill="#e0e0e0" stroke="#999999" points="407,-30 278,-30 278,0 407,0 407,-30"/>
<text text-anchor="start" x="286" y="-18" font-family="Helvetica,sans-Serif" font-size="10.00">public.sdk/source/main</text>
<text text-anchor="middle" x="342.5" y="-7" font-family="Helvetica,sans-Serif" font-size="10.00">/moduleinit.h</text>
</a>
</g>
</g>
<!-- Node2&#45;&gt;Node5 -->
<g id="edge4_Node000002_Node000005" class="edge">
<title>Node2&#45;&gt;Node5</title>
<g id="a_edge4_Node000002_Node000005"><a xlink:title=" ">
<path fill="none" stroke="#63b8ff" d="M280.21,-71.37C290.06,-62.61 305.7,-48.71 318.84,-37.04"/>
<polygon fill="#63b8ff" stroke="#63b8ff" points="321.47,-39.38 326.62,-30.12 316.82,-34.14 321.47,-39.38"/>
</a>
</g>
</g>
<!-- Node6 -->
<g id="Node000006" class="node">
<title>Node6</title>
<g id="a_Node000006"><a xlink:href="eqconstants_8hpp.html" target="_top" xlink:title=" ">
<polygon fill="white" stroke="#666666" points="522,-24.5 425,-24.5 425,-5.5 522,-5.5 522,-24.5"/>
<text text-anchor="middle" x="473.5" y="-12.5" font-family="Helvetica,sans-Serif" font-size="10.00">eqconstants.hpp</text>
</a>
</g>
</g>
<!-- Node2&#45;&gt;Node6 -->
<g id="edge5_Node000002_Node000006" class="edge">
<title>Node2&#45;&gt;Node6</title>
<g id="a_edge5_Node000002_Node000006"><a xlink:title=" ">
<path fill="none" stroke="#63b8ff" d="M297.88,-71.37C333.69,-60.08 396.59,-40.25 436.59,-27.64"/>
<polygon fill="#63b8ff" stroke="#63b8ff" points="437.75,-30.94 446.23,-24.6 435.64,-24.27 437.75,-30.94"/>
</a>
</g>
</g>
</g>
</svg>
