<?xml version="1.0" encoding="UTF-8" standalone="no"?>
<!DOCTYPE svg PUBLIC "-//W3C//DTD SVG 1.1//EN"
 "http://www.w3.org/Graphics/SVG/1.1/DTD/svg11.dtd">
<!-- Generated by graphviz version 2.43.0 (0)
 -->
<!-- Title: processor.hpp Pages: 1 -->
<!--zoomable 280 -->

<svg id="main" version="1.1" xmlns="http://www.w3.org/2000/svg" xmlns:xlink="http://www.w3.org/1999/xlink" xml:space="preserve" onload="init(evt)">
<style type="text/css"><![CDATA[
.node, .edge {opacity: 0.7;}
.node.selected, .edge.selected {opacity: 1;}
.edge:hover path { stroke: red; }
.edge:hover polygon { stroke: red; fill: red; }
]]></style>

<defs>
  <circle id="rim" cx="0" cy="0" r="7"/>
  <circle id="rim2" cx="0" cy="0" r="3.5"/>
  <g id="zoomPlus">
    <use xlink:href="#rim" fill="#404040"><set attributeName="fill" to="#808080" begin="zoomplus.mouseover" end="zoomplus.mouseout"/></use>
    <path d="M-4,0h8M0,-4v8" fill="none" stroke="white" stroke-width="1.5" pointer-events="none"/>
  </g>
  <g id="zoomMin">
    <use xlink:href="#rim" fill="#404040"><set attributeName="fill" to="#808080" begin="zoomminus.mouseover" end="zoomminus.mouseout"/></use>
    <path d="M-4,0h8" fill="none" stroke="white" stroke-width="1.5" pointer-events="none"/>
  </g>
  <g id="arrowUp" transform="translate(30 24)">
    <use xlink:href="#rim"/>
    <path pointer-events="none" fill="none" stroke="white" stroke-width="1.5" d="M0,-3.0v7 M-2.5,-0.5L0,-3.0L2.5,-0.5"/>
  </g>
  <g id="arrowRight" transform="rotate(90) translate(36 -43)">
    <use xlink:href="#rim"/>
    <path pointer-events="none" fill="none" stroke="white" stroke-width="1.5" d="M0,-3.0v7 M-2.5,-0.5L0,-3.0L2.5,-0.5"/>
  </g>
  <g id="arrowDown" transform="rotate(180) translate(-30 -48)">
    <use xlink:href="#rim"/>
    <path pointer-events="none" fill="none" stroke="white" stroke-width="1.5" d="M0,-3.0v7 M-2.5,-0.5L0,-3.0L2.5,-0.5"/>
  </g>
  <g id="arrowLeft" transform="rotate(270) translate(-36 17)">
    <use xlink:href="#rim"/>
    <path pointer-events="none" fill="none" stroke="white" stroke-width="1.5" d="M0,-3.0v7 M-2.5,-0.5L0,-3.0L2.5,-0.5"/>
  </g>
  <g id="resetDef">
    <use xlink:href="#rim2" fill="#404040"><set attributeName="fill" to="#808080" begin="reset.mouseover" end="reset.mouseout"/></use>
  </g>
</defs>
<script type="application/ecmascript">
var viewWidth = 820;
var viewHeight = 280;
var sectionId = 'dynsection-0';
</script>
<script type="application/ecmascript" xlink:href="svg.min.js"/>
<svg id="graph" class="graph">
<g id="viewport">
<title>processor.hpp</title>
<!-- Node1 -->
<g id="Node000001" class="node">
<title>Node1</title>
<g id="a_Node000001"><a xlink:title=" ">
<polygon fill="#999999" stroke="#666666" points="567.5,-272 483.5,-272 483.5,-253 567.5,-253 567.5,-272"/>
<text text-anchor="middle" x="525.5" y="-260" font-family="Helvetica,sans-Serif" font-size="10.00">processor.hpp</text>
</a>
</g>
</g>
<!-- Node2 -->
<g id="Node000002" class="node">
<title>Node2</title>
<g id="a_Node000002"><a xlink:title=" ">
<polygon fill="#e0e0e0" stroke="#999999" points="119,-96 0,-96 0,-66 119,-66 119,-96"/>
<text text-anchor="start" x="8" y="-84" font-family="Helvetica,sans-Serif" font-size="10.00">public.sdk/source/vst</text>
<text text-anchor="middle" x="59.5" y="-73" font-family="Helvetica,sans-Serif" font-size="10.00">/vstaudioeffect.h</text>
</a>
</g>
</g>
<!-- Node1&#45;&gt;Node2 -->
<g id="edge1_Node000001_Node000002" class="edge">
<title>Node1&#45;&gt;Node2</title>
<g id="a_edge1_Node000001_Node000002"><a xlink:title=" ">
<path fill="none" stroke="#63b8ff" d="M503.34,-252.96C431.48,-225.28 203.92,-137.63 105.55,-99.74"/>
<polygon fill="#63b8ff" stroke="#63b8ff" points="106.75,-96.45 96.16,-96.12 104.23,-102.98 106.75,-96.45"/>
</a>
</g>
</g>
<!-- Node3 -->
<g id="Node000003" class="node">
<title>Node3</title>
<g id="a_Node000003"><a xlink:title=" ">
<polygon fill="#e0e0e0" stroke="#999999" points="743,-217 630,-217 630,-187 743,-187 743,-217"/>
<text text-anchor="start" x="638" y="-205" font-family="Helvetica,sans-Serif" font-size="10.00">pluginterfaces/base</text>
<text text-anchor="middle" x="686.5" y="-194" font-family="Helvetica,sans-Serif" font-size="10.00">/ustring.h</text>
</a>
</g>
</g>
<!-- Node1&#45;&gt;Node3 -->
<g id="edge2_Node000001_Node000003" class="edge">
<title>Node1&#45;&gt;Node3</title>
<g id="a_edge2_Node000001_Node000003"><a xlink:title=" ">
<path fill="none" stroke="#63b8ff" d="M548.91,-252.99C572.18,-244.54 608.57,-231.32 638.08,-220.59"/>
<polygon fill="#63b8ff" stroke="#63b8ff" points="639.59,-223.77 647.79,-217.06 637.2,-217.19 639.59,-223.77"/>
</a>
</g>
</g>
<!-- Node4 -->
<g id="Node000004" class="node">
<title>Node4</title>
<g id="a_Node000004"><a xlink:href="equalizer_8hpp.html" target="_top" xlink:title=" ">
<polygon fill="white" stroke="#666666" points="467.5,-151 385.5,-151 385.5,-132 467.5,-132 467.5,-151"/>
<text text-anchor="middle" x="426.5" y="-139" font-family="Helvetica,sans-Serif" font-size="10.00">equalizer.hpp</text>
</a>
</g>
</g>
<!-- Node1&#45;&gt;Node4 -->
<g id="edge3_Node000001_Node000004" class="edge">
<title>Node1&#45;&gt;Node4</title>
<g id="a_edge3_Node000001_Node000004"><a xlink:title=" ">
<path fill="none" stroke="#63b8ff" d="M511.57,-252.92C499.18,-244.78 481.11,-231.65 468.5,-217 453.72,-199.83 441.64,-176.66 434.29,-160.75"/>
<polygon fill="#63b8ff" stroke="#63b8ff" points="437.43,-159.18 430.16,-151.47 431.03,-162.03 437.43,-159.18"/>
</a>
</g>
</g>
<!-- Node18 -->
<g id="Node000018" class="node">
<title>Node18</title>
<g id="a_Node000018"><a xlink:href="fftprocessor_8hpp.html" target="_top" xlink:title=" ">
<polygon fill="white" stroke="#666666" points="573,-211.5 478,-211.5 478,-192.5 573,-192.5 573,-211.5"/>
<text text-anchor="middle" x="525.5" y="-199.5" font-family="Helvetica,sans-Serif" font-size="10.00">fftprocessor.hpp</text>
</a>
</g>
</g>
<!-- Node1&#45;&gt;Node18 -->
<g id="edge19_Node000001_Node000018" class="edge">
<title>Node1&#45;&gt;Node18</title>
<g id="a_edge19_Node000001_Node000018"><a xlink:title=" ">
<path fill="none" stroke="#63b8ff" d="M525.5,-252.87C525.5,-244.75 525.5,-232.31 525.5,-221.89"/>
<polygon fill="#63b8ff" stroke="#63b8ff" points="529,-221.67 525.5,-211.67 522,-221.67 529,-221.67"/>
</a>
</g>
</g>
<!-- Node20 -->
<g id="Node000020" class="node">
<title>Node20</title>
<g id="a_Node000020"><a xlink:title=" ">
<polygon fill="#e0e0e0" stroke="#999999" points="691,-151 644,-151 644,-132 691,-132 691,-151"/>
<text text-anchor="middle" x="667.5" y="-139" font-family="Helvetica,sans-Serif" font-size="10.00">vector</text>
</a>
</g>
</g>
<!-- Node1&#45;&gt;Node20 -->
<g id="edge25_Node000001_Node000020" class="edge">
<title>Node1&#45;&gt;Node20</title>
<g id="a_edge25_Node000001_Node000020"><a xlink:title=" ">
<path fill="none" stroke="#63b8ff" d="M537.01,-252.82C548.63,-243.99 567.02,-229.81 582.5,-217 606.41,-197.22 633.21,-173.45 650.21,-158.17"/>
<polygon fill="#63b8ff" stroke="#63b8ff" points="652.63,-160.7 657.71,-151.4 647.94,-155.5 652.63,-160.7"/>
</a>
</g>
</g>
<!-- Node4&#45;&gt;Node2 -->
<g id="edge7_Node000004_Node000002" class="edge">
<title>Node4&#45;&gt;Node2</title>
<g id="a_edge7_Node000004_Node000002"><a xlink:title=" ">
<path fill="none" stroke="#63b8ff" d="M385.27,-135.1C329.42,-127.62 226.36,-113.25 129.16,-96.24"/>
<polygon fill="#63b8ff" stroke="#63b8ff" points="129.62,-92.77 119.17,-94.48 128.41,-99.66 129.62,-92.77"/>
</a>
</g>
</g>
<!-- Node5 -->
<g id="Node000005" class="node">
<title>Node5</title>
<g id="a_Node000005"><a xlink:title=" ">
<polygon fill="#e0e0e0" stroke="#999999" points="672.5,-90.5 622.5,-90.5 622.5,-71.5 672.5,-71.5 672.5,-90.5"/>
<text text-anchor="middle" x="647.5" y="-78.5" font-family="Helvetica,sans-Serif" font-size="10.00">fftw3.h</text>
</a>
</g>
</g>
<!-- Node4&#45;&gt;Node5 -->
<g id="edge4_Node000004_Node000005" class="edge">
<title>Node4&#45;&gt;Node5</title>
<g id="a_edge4_Node000004_Node000005"><a xlink:title=" ">
<path fill="none" stroke="#63b8ff" d="M467.87,-132.6C506.1,-124.85 564.27,-111.88 613.5,-96 615.17,-95.46 616.87,-94.88 618.59,-94.26"/>
<polygon fill="#63b8ff" stroke="#63b8ff" points="620.2,-97.39 628.28,-90.53 617.69,-90.86 620.2,-97.39"/>
</a>
</g>
</g>
<!-- Node6 -->
<g id="Node000006" class="node">
<title>Node6</title>
<g id="a_Node000006"><a xlink:title=" ">
<polygon fill="#e0e0e0" stroke="#999999" points="772.5,-90.5 690.5,-90.5 690.5,-71.5 772.5,-71.5 772.5,-90.5"/>
<text text-anchor="middle" x="731.5" y="-78.5" font-family="Helvetica,sans-Serif" font-size="10.00">base/ftypes.h</text>
</a>
</g>
</g>
<!-- Node4&#45;&gt;Node6 -->
<g id="edge5_Node000004_Node000006" class="edge">
<title>Node4&#45;&gt;Node6</title>
<g id="a_edge5_Node000004_Node000006"><a xlink:title=" ">
<path fill="none" stroke="#63b8ff" d="M467.83,-134.59C518.47,-127.05 606.77,-112.94 681.5,-96 685.19,-95.16 689.01,-94.23 692.83,-93.24"/>
<polygon fill="#63b8ff" stroke="#63b8ff" points="694.05,-96.54 702.81,-90.57 692.24,-89.77 694.05,-96.54"/>
</a>
</g>
</g>
<!-- Node7 -->
<g id="Node000007" class="node">
<title>Node7</title>
<g id="a_Node000007"><a xlink:title=" ">
<polygon fill="#e0e0e0" stroke="#999999" points="503,-90.5 350,-90.5 350,-71.5 503,-71.5 503,-90.5"/>
<text text-anchor="middle" x="426.5" y="-78.5" font-family="Helvetica,sans-Serif" font-size="10.00">vst/ivstparameterchanges.h</text>
</a>
</g>
</g>
<!-- Node4&#45;&gt;Node7 -->
<g id="edge6_Node000004_Node000007" class="edge">
<title>Node4&#45;&gt;Node7</title>
<g id="a_edge6_Node000004_Node000007"><a xlink:title=" ">
<path fill="none" stroke="#63b8ff" d="M426.5,-131.87C426.5,-123.75 426.5,-111.31 426.5,-100.89"/>
<polygon fill="#63b8ff" stroke="#63b8ff" points="430,-100.67 426.5,-90.67 423,-100.67 430,-100.67"/>
</a>
</g>
</g>
<!-- Node8 -->
<g id="Node000008" class="node">
<title>Node8</title>
<g id="a_Node000008"><a xlink:href="controller_8hpp.html" target="_top" xlink:title=" ">
<polygon fill="white" stroke="#666666" points="604,-90.5 521,-90.5 521,-71.5 604,-71.5 604,-90.5"/>
<text text-anchor="middle" x="562.5" y="-78.5" font-family="Helvetica,sans-Serif" font-size="10.00">controller.hpp</text>
</a>
</g>
</g>
<!-- Node4&#45;&gt;Node8 -->
<g id="edge8_Node000004_Node000008" class="edge">
<title>Node4&#45;&gt;Node8</title>
<g id="a_edge8_Node000004_Node000008"><a xlink:title=" ">
<path fill="none" stroke="#63b8ff" d="M446.28,-131.99C469.14,-122.16 506.99,-105.88 533.26,-94.58"/>
<polygon fill="#63b8ff" stroke="#63b8ff" points="534.9,-97.68 542.7,-90.52 532.13,-91.25 534.9,-97.68"/>
</a>
</g>
</g>
<!-- Node12 -->
<g id="Node000012" class="node">
<title>Node12</title>
<g id="a_Node000012"><a xlink:href="eqconstants_8hpp.html" target="_top" xlink:title=" ">
<polygon fill="white" stroke="#666666" points="387,-24.5 290,-24.5 290,-5.5 387,-5.5 387,-24.5"/>
<text text-anchor="middle" x="338.5" y="-12.5" font-family="Helvetica,sans-Serif" font-size="10.00">eqconstants.hpp</text>
</a>
</g>
</g>
<!-- Node4&#45;&gt;Node12 -->
<g id="edge16_Node000004_Node000012" class="edge">
<title>Node4&#45;&gt;Node12</title>
<g id="a_edge16_Node000004_Node000012"><a xlink:title=" ">
<path fill="none" stroke="#63b8ff" d="M392.06,-131.93C373.41,-125.37 351.91,-114.24 340.5,-96 329.01,-77.64 330.77,-51.99 333.91,-34.72"/>
<polygon fill="#63b8ff" stroke="#63b8ff" points="337.37,-35.26 336.04,-24.75 330.52,-33.8 337.37,-35.26"/>
</a>
</g>
</g>
<!-- Node13 -->
<g id="Node000013" class="node">
<title>Node13</title>
<g id="a_Node000013"><a xlink:href="utils_8hpp.html" target="_top" xlink:title=" ">
<polygon fill="white" stroke="#666666" points="196,-90.5 137,-90.5 137,-71.5 196,-71.5 196,-90.5"/>
<text text-anchor="middle" x="166.5" y="-78.5" font-family="Helvetica,sans-Serif" font-size="10.00">utils.hpp</text>
</a>
</g>
</g>
<!-- Node4&#45;&gt;Node13 -->
<g id="edge13_Node000004_Node000013" class="edge">
<title>Node4&#45;&gt;Node13</title>
<g id="a_edge13_Node000004_Node000013"><a xlink:title=" ">
<path fill="none" stroke="#63b8ff" d="M385.13,-134.18C340.2,-126.86 266.54,-113.53 204.5,-96 202.22,-95.35 199.87,-94.64 197.53,-93.88"/>
<polygon fill="#63b8ff" stroke="#63b8ff" points="198.61,-90.54 188.01,-90.58 196.32,-97.16 198.61,-90.54"/>
</a>
</g>
</g>
<!-- Node16 -->
<g id="Node000016" class="node">
<title>Node16</title>
<g id="a_Node000016"><a xlink:href="eqshape_8hpp.html" target="_top" xlink:title=" ">
<polygon fill="white" stroke="#666666" points="293,-90.5 214,-90.5 214,-71.5 293,-71.5 293,-90.5"/>
<text text-anchor="middle" x="253.5" y="-78.5" font-family="Helvetica,sans-Serif" font-size="10.00">eqshape.hpp</text>
</a>
</g>
</g>
<!-- Node4&#45;&gt;Node16 -->
<g id="edge17_Node000004_Node000016" class="edge">
<title>Node4&#45;&gt;Node16</title>
<g id="a_edge17_Node000004_Node000016"><a xlink:title=" ">
<path fill="none" stroke="#63b8ff" d="M401.34,-131.99C371.62,-121.94 321.98,-105.16 288.51,-93.84"/>
<polygon fill="#63b8ff" stroke="#63b8ff" points="289.28,-90.4 278.69,-90.52 287.04,-97.04 289.28,-90.4"/>
</a>
</g>
</g>
<!-- Node9 -->
<g id="Node000009" class="node">
<title>Node9</title>
<g id="a_Node000009"><a xlink:title=" ">
<polygon fill="#e0e0e0" stroke="#999999" points="524,-30 405,-30 405,0 524,0 524,-30"/>
<text text-anchor="start" x="413" y="-18" font-family="Helvetica,sans-Serif" font-size="10.00">public.sdk/source/vst</text>
<text text-anchor="middle" x="464.5" y="-7" font-family="Helvetica,sans-Serif" font-size="10.00">/vsteditcontroller.h</text>
</a>
</g>
</g>
<!-- Node8&#45;&gt;Node9 -->
<g id="edge9_Node000008_Node000009" class="edge">
<title>Node8&#45;&gt;Node9</title>
<g id="a_edge9_Node000008_Node000009"><a xlink:title=" ">
<path fill="none" stroke="#63b8ff" d="M549.28,-71.37C535.36,-62.28 512.98,-47.66 494.7,-35.72"/>
<polygon fill="#63b8ff" stroke="#63b8ff" points="496.4,-32.65 486.11,-30.12 492.57,-38.51 496.4,-32.65"/>
</a>
</g>
</g>
<!-- Node10 -->
<g id="Node000010" class="node">
<title>Node10</title>
<g id="a_Node000010"><a xlink:title=" ">
<polygon fill="#e0e0e0" stroke="#999999" points="664.5,-30 542.5,-30 542.5,0 664.5,0 664.5,-30"/>
<text text-anchor="start" x="550.5" y="-18" font-family="Helvetica,sans-Serif" font-size="10.00">vstgui4/vstgui/plugin</text>
<text text-anchor="middle" x="603.5" y="-7" font-family="Helvetica,sans-Serif" font-size="10.00">&#45;bindings/vst3editor.h</text>
</a>
</g>
</g>
<!-- Node8&#45;&gt;Node10 -->
<g id="edge10_Node000008_Node000010" class="edge">
<title>Node8&#45;&gt;Node10</title>
<g id="a_edge10_Node000008_Node000010"><a xlink:title=" ">
<path fill="none" stroke="#63b8ff" d="M568.03,-71.37C573.34,-63.08 581.6,-50.18 588.82,-38.92"/>
<polygon fill="#63b8ff" stroke="#63b8ff" points="591.85,-40.67 594.3,-30.36 585.96,-36.89 591.85,-40.67"/>
</a>
</g>
</g>
<!-- Node11 -->
<g id="Node000011" class="node">
<title>Node11</title>
<g id="a_Node000011"><a xlink:title=" ">
<polygon fill="#e0e0e0" stroke="#999999" points="812,-30 683,-30 683,0 812,0 812,-30"/>
<text text-anchor="start" x="691" y="-18" font-family="Helvetica,sans-Serif" font-size="10.00">public.sdk/source/main</text>
<text text-anchor="middle" x="747.5" y="-7" font-family="Helvetica,sans-Serif" font-size="10.00">/moduleinit.h</text>
</a>
</g>
</g>
<!-- Node8&#45;&gt;Node11 -->
<g id="edge11_Node000008_Node000011" class="edge">
<title>Node8&#45;&gt;Node11</title>
<g id="a_edge11_Node000008_Node000011"><a xlink:title=" ">
<path fill="none" stroke="#63b8ff" d="M587.45,-71.37C615.4,-61.7 661.43,-45.77 696.97,-33.48"/>
<polygon fill="#63b8ff" stroke="#63b8ff" points="698.39,-36.69 706.7,-30.12 696.1,-30.08 698.39,-36.69"/>
</a>
</g>
</g>
<!-- Node8&#45;&gt;Node12 -->
<g id="edge12_Node000008_Node000012" class="edge">
<title>Node8&#45;&gt;Node12</title>
<g id="a_edge12_Node000008_Node000012"><a xlink:title=" ">
<path fill="none" stroke="#63b8ff" d="M532.29,-71.37C492.52,-60 422.49,-40 378.39,-27.4"/>
<polygon fill="#63b8ff" stroke="#63b8ff" points="379.16,-23.98 368.59,-24.6 377.24,-30.71 379.16,-23.98"/>
</a>
</g>
</g>
<!-- Node14 -->
<g id="Node000014" class="node">
<title>Node14</title>
<g id="a_Node000014"><a xlink:title=" ">
<polygon fill="#e0e0e0" stroke="#999999" points="128,-24.5 73,-24.5 73,-5.5 128,-5.5 128,-24.5"/>
<text text-anchor="middle" x="100.5" y="-12.5" font-family="Helvetica,sans-Serif" font-size="10.00">fstream</text>
</a>
</g>
</g>
<!-- Node13&#45;&gt;Node14 -->
<g id="edge14_Node000013_Node000014" class="edge">
<title>Node13&#45;&gt;Node14</title>
<g id="a_edge14_Node000013_Node000014"><a xlink:title=" ">
<path fill="none" stroke="#63b8ff" d="M157.6,-71.37C147.23,-61.31 129.87,-44.48 117.01,-32.01"/>
<polygon fill="#63b8ff" stroke="#63b8ff" points="119.3,-29.35 109.68,-24.91 114.43,-34.38 119.3,-29.35"/>
</a>
</g>
</g>
<!-- Node15 -->
<g id="Node000015" class="node">
<title>Node15</title>
<g id="a_Node000015"><a xlink:title=" ">
<polygon fill="#e0e0e0" stroke="#999999" points="196.5,-24.5 146.5,-24.5 146.5,-5.5 196.5,-5.5 196.5,-24.5"/>
<text text-anchor="middle" x="171.5" y="-12.5" font-family="Helvetica,sans-Serif" font-size="10.00">chrono</text>
</a>
</g>
</g>
<!-- Node13&#45;&gt;Node15 -->
<g id="edge15_Node000013_Node000015" class="edge">
<title>Node13&#45;&gt;Node15</title>
<g id="a_edge15_Node000013_Node000015"><a xlink:title=" ">
<path fill="none" stroke="#63b8ff" d="M167.17,-71.37C167.9,-62.07 169.08,-46.98 170.02,-34.9"/>
<polygon fill="#63b8ff" stroke="#63b8ff" points="173.51,-35.15 170.8,-24.91 166.54,-34.6 173.51,-35.15"/>
</a>
</g>
</g>
<!-- Node17 -->
<g id="Node000017" class="node">
<title>Node17</title>
<g id="a_Node000017"><a xlink:title=" ">
<polygon fill="#e0e0e0" stroke="#999999" points="272,-24.5 225,-24.5 225,-5.5 272,-5.5 272,-24.5"/>
<text text-anchor="middle" x="248.5" y="-12.5" font-family="Helvetica,sans-Serif" font-size="10.00">cmath</text>
</a>
</g>
</g>
<!-- Node16&#45;&gt;Node17 -->
<g id="edge18_Node000016_Node000017" class="edge">
<title>Node16&#45;&gt;Node17</title>
<g id="a_edge18_Node000016_Node000017"><a xlink:title=" ">
<path fill="none" stroke="#63b8ff" d="M252.83,-71.37C252.1,-62.07 250.92,-46.98 249.98,-34.9"/>
<polygon fill="#63b8ff" stroke="#63b8ff" points="253.46,-34.6 249.2,-24.91 246.49,-35.15 253.46,-34.6"/>
</a>
</g>
</g>
<!-- Node18&#45;&gt;Node4 -->
<g id="edge24_Node000018_Node000004" class="edge">
<title>Node18&#45;&gt;Node4</title>
<g id="a_edge24_Node000018_Node000004"><a xlink:title=" ">
<path fill="none" stroke="#63b8ff" d="M510.89,-192.37C494.81,-182.86 468.72,-167.45 449.8,-156.27"/>
<polygon fill="#63b8ff" stroke="#63b8ff" points="451.56,-153.24 441.17,-151.17 448,-159.27 451.56,-153.24"/>
</a>
</g>
</g>
<!-- Node18&#45;&gt;Node5 -->
<g id="edge20_Node000018_Node000005" class="edge">
<title>Node18&#45;&gt;Node5</title>
<g id="a_edge20_Node000018_Node000005"><a xlink:title=" ">
<path fill="none" stroke="#63b8ff" d="M521.56,-192.48C515.74,-178.5 506.83,-150.43 519.5,-132 544.85,-95.14 571.92,-112.52 613.5,-96 614.87,-95.45 616.27,-94.89 617.69,-94.32"/>
<polygon fill="#63b8ff" stroke="#63b8ff" points="619.09,-97.53 627.04,-90.52 616.46,-91.05 619.09,-97.53"/>
</a>
</g>
</g>
<!-- Node18&#45;&gt;Node6 -->
<g id="edge23_Node000018_Node000006" class="edge">
<title>Node18&#45;&gt;Node6</title>
<g id="a_edge23_Node000018_Node000006"><a xlink:title=" ">
<path fill="none" stroke="#63b8ff" d="M526.41,-192.41C528.41,-177.83 534.56,-148.22 552.5,-132 596.66,-92.08 624.17,-112.02 681.5,-96 684.67,-95.11 687.95,-94.2 691.25,-93.27"/>
<polygon fill="#63b8ff" stroke="#63b8ff" points="692.41,-96.58 701.09,-90.52 690.52,-89.84 692.41,-96.58"/>
</a>
</g>
</g>
<!-- Node19 -->
<g id="Node000019" class="node">
<title>Node19</title>
<g id="a_Node000019"><a xlink:title=" ">
<polygon fill="#e0e0e0" stroke="#999999" points="625.5,-151 561.5,-151 561.5,-132 625.5,-132 625.5,-151"/>
<text text-anchor="middle" x="593.5" y="-139" font-family="Helvetica,sans-Serif" font-size="10.00">algorithm</text>
</a>
</g>
</g>
<!-- Node18&#45;&gt;Node19 -->
<g id="edge21_Node000018_Node000019" class="edge">
<title>Node18&#45;&gt;Node19</title>
<g id="a_edge21_Node000018_Node000019"><a xlink:title=" ">
<path fill="none" stroke="#63b8ff" d="M535.53,-192.37C546.08,-183.3 562.89,-168.84 575.69,-157.82"/>
<polygon fill="#63b8ff" stroke="#63b8ff" points="578.13,-160.34 583.43,-151.17 573.56,-155.04 578.13,-160.34"/>
</a>
</g>
</g>
<!-- Node18&#45;&gt;Node20 -->
<g id="edge22_Node000018_Node000020" class="edge">
<title>Node18&#45;&gt;Node20</title>
<g id="a_edge22_Node000018_Node000020"><a xlink:title=" ">
<path fill="none" stroke="#63b8ff" d="M546.15,-192.49C570.13,-182.62 609.89,-166.23 637.33,-154.93"/>
<polygon fill="#63b8ff" stroke="#63b8ff" points="638.91,-158.06 646.83,-151.02 636.25,-151.59 638.91,-158.06"/>
</a>
</g>
</g>
</g>
</svg>

<g id="navigator" transform="translate(0 0)" fill="#404254">
  <rect fill="#f2f5e9" fill-opacity="0.5" stroke="#606060" stroke-width=".5" x="0" y="0" width="60" height="60"/>
  <use id="zoomplus" xlink:href="#zoomPlus" x="17" y="9" onmousedown="handleZoom(evt,'in')"/>
  <use id="zoomminus" xlink:href="#zoomMin" x="42" y="9" onmousedown="handleZoom(evt,'out')"/>
  <use id="reset" xlink:href="#resetDef" x="30" y="36" onmousedown="handleReset()"/>
   <use id="arrowup" xlink:href="#arrowUp" x="0" y="0" onmousedown="handlePan(0,-1)"/>
  <use id="arrowright" xlink:href="#arrowRight" x="0" y="0" onmousedown="handlePan(1,0)"/>
  <use id="arrowdown" xlink:href="#arrowDown" x="0" y="0" onmousedown="handlePan(0,1)"/>
  <use id="arrowleft" xlink:href="#arrowLeft" x="0" y="0" onmousedown="handlePan(-1,0)"/>
</g>
<svg viewBox="0 0 15 15" width="100%" height="30px" preserveAspectRatio="xMaxYMin meet">
 <g id="arrow_out" transform="scale(0.3 0.3)">
  <a xlink:href="processor_8hpp__incl_org.svg" target="_base">
   <rect id="button" ry="5" rx="5" y="6" x="6" height="38" width="38"
        fill="#f2f5e9" fill-opacity="0.5" stroke="#606060" stroke-width="1.0"/>
   <path id="arrow"
     d="M 11.500037,31.436501 C 11.940474,20.09759 22.043105,11.32322 32.158766,21.979434 L 37.068811,17.246167 C 37.068811,17.246167 37.088388,32 37.088388,32 L 22.160133,31.978069 C 22.160133,31.978069 26.997745,27.140456 26.997745,27.140456 C 18.528582,18.264221 13.291696,25.230495 11.500037,31.436501 z"
     style="fill:#404040;"/>
  </a>
 </g>
</svg>

<style type='text/css'>
<![CDATA[
[data-mouse-over-selected='false'] { opacity: 0.7; }
[data-mouse-over-selected='true']  { opacity: 1.0; }
]]>
</style>
<script type="application/ecmascript"><![CDATA[
document.addEventListener('DOMContentLoaded', (event) => {
  highlightEdges();
  highlightAdjacentNodes();
});
]]></script>
</svg>
