<?xml version="1.0" encoding="UTF-8" standalone="no"?>
<!DOCTYPE svg PUBLIC "-//W3C//DTD SVG 1.1//EN"
 "http://www.w3.org/Graphics/SVG/1.1/DTD/svg11.dtd">
<!-- Generated by graphviz version 2.43.0 (0)
 -->
<!-- Title: processor.cpp Pages: 1 -->
<svg width="941pt" height="335pt"
 viewBox="0.00 0.00 940.50 335.00" xmlns="http://www.w3.org/2000/svg" xmlns:xlink="http://www.w3.org/1999/xlink">
<g id="graph0" class="graph" transform="scale(1 1) rotate(0) translate(4 331)">
<title>processor.cpp</title>
<!-- Node1 -->
<g id="Node000001" class="node">
<title>Node1</title>
<g id="a_Node000001"><a xlink:title=" ">
<polygon fill="#999999" stroke="#666666" points="655.5,-327 572.5,-327 572.5,-308 655.5,-308 655.5,-327"/>
<text text-anchor="middle" x="614" y="-315" font-family="Helvetica,sans-Serif" font-size="10.00">processor.cpp</text>
</a>
</g>
</g>
<!-- Node2 -->
<g id="Node000002" class="node">
<title>Node2</title>
<g id="a_Node000002"><a xlink:href="processor_8hpp.html" target="_top" xlink:title=" ">
<polygon fill="white" stroke="#666666" points="412,-272 328,-272 328,-253 412,-253 412,-272"/>
<text text-anchor="middle" x="370" y="-260" font-family="Helvetica,sans-Serif" font-size="10.00">processor.hpp</text>
</a>
</g>
</g>
<!-- Node1&#45;&gt;Node2 -->
<g id="edge1_Node000001_Node000002" class="edge">
<title>Node1&#45;&gt;Node2</title>
<g id="a_edge1_Node000001_Node000002"><a xlink:title=" ">
<path fill="none" stroke="#63b8ff" d="M574.8,-307.98C532.59,-298.82 465.35,-284.21 419.52,-274.26"/>
<polygon fill="#63b8ff" stroke="#63b8ff" points="420.03,-270.78 409.51,-272.08 418.54,-277.63 420.03,-270.78"/>
</a>
</g>
</g>
<!-- Node8 -->
<g id="Node000008" class="node">
<title>Node8</title>
<g id="a_Node000008"><a xlink:title=" ">
<polygon fill="#e0e0e0" stroke="#999999" points="671.5,-90.5 518.5,-90.5 518.5,-71.5 671.5,-71.5 671.5,-90.5"/>
<text text-anchor="middle" x="595" y="-78.5" font-family="Helvetica,sans-Serif" font-size="10.00">vst/ivstparameterchanges.h</text>
</a>
</g>
</g>
<!-- Node1&#45;&gt;Node8 -->
<g id="edge29_Node000001_Node000008" class="edge">
<title>Node1&#45;&gt;Node8</title>
<g id="a_edge29_Node000001_Node000008"><a xlink:title=" ">
<path fill="none" stroke="#63b8ff" d="M613.3,-307.88C610.56,-273.98 600.46,-149.43 596.56,-101.22"/>
<polygon fill="#63b8ff" stroke="#63b8ff" points="600.02,-100.64 595.73,-90.95 593.04,-101.2 600.02,-100.64"/>
</a>
</g>
</g>
<!-- Node9 -->
<g id="Node000009" class="node">
<title>Node9</title>
<g id="a_Node000009"><a xlink:href="controller_8hpp.html" target="_top" xlink:title=" ">
<polygon fill="white" stroke="#666666" points="772.5,-90.5 689.5,-90.5 689.5,-71.5 772.5,-71.5 772.5,-90.5"/>
<text text-anchor="middle" x="731" y="-78.5" font-family="Helvetica,sans-Serif" font-size="10.00">controller.hpp</text>
</a>
</g>
</g>
<!-- Node1&#45;&gt;Node9 -->
<g id="edge27_Node000001_Node000009" class="edge">
<title>Node1&#45;&gt;Node9</title>
<g id="a_edge27_Node000001_Node000009"><a xlink:title=" ">
<path fill="none" stroke="#63b8ff" d="M618.3,-307.88C635.36,-273.7 698.41,-147.31 722.01,-100.02"/>
<polygon fill="#63b8ff" stroke="#63b8ff" points="725.2,-101.46 726.53,-90.95 718.94,-98.34 725.2,-101.46"/>
</a>
</g>
</g>
<!-- Node22 -->
<g id="Node000022" class="node">
<title>Node22</title>
<g id="a_Node000022"><a xlink:title=" ">
<polygon fill="#e0e0e0" stroke="#999999" points="795,-272 661,-272 661,-253 795,-253 795,-272"/>
<text text-anchor="middle" x="728" y="-260" font-family="Helvetica,sans-Serif" font-size="10.00">base/source/fstreamer.h</text>
</a>
</g>
</g>
<!-- Node1&#45;&gt;Node22 -->
<g id="edge28_Node000001_Node000022" class="edge">
<title>Node1&#45;&gt;Node22</title>
<g id="a_edge28_Node000001_Node000022"><a xlink:title=" ">
<path fill="none" stroke="#63b8ff" d="M632.32,-307.98C650.66,-299.46 679.11,-286.23 700.23,-276.41"/>
<polygon fill="#63b8ff" stroke="#63b8ff" points="701.76,-279.56 709.35,-272.17 698.81,-273.21 701.76,-279.56"/>
</a>
</g>
</g>
<!-- Node3 -->
<g id="Node000003" class="node">
<title>Node3</title>
<g id="a_Node000003"><a xlink:title=" ">
<polygon fill="#e0e0e0" stroke="#999999" points="500.5,-96 381.5,-96 381.5,-66 500.5,-66 500.5,-96"/>
<text text-anchor="start" x="389.5" y="-84" font-family="Helvetica,sans-Serif" font-size="10.00">public.sdk/source/vst</text>
<text text-anchor="middle" x="441" y="-73" font-family="Helvetica,sans-Serif" font-size="10.00">/vstaudioeffect.h</text>
</a>
</g>
</g>
<!-- Node2&#45;&gt;Node3 -->
<g id="edge2_Node000002_Node000003" class="edge">
<title>Node2&#45;&gt;Node3</title>
<g id="a_edge2_Node000002_Node000003"><a xlink:title=" ">
<path fill="none" stroke="#63b8ff" d="M379.56,-252.89C388.25,-244.55 400.78,-231.11 408,-217 426.45,-180.98 434.89,-134.2 438.51,-106.23"/>
<polygon fill="#63b8ff" stroke="#63b8ff" points="442.01,-106.5 439.72,-96.16 435.06,-105.67 442.01,-106.5"/>
</a>
</g>
</g>
<!-- Node4 -->
<g id="Node000004" class="node">
<title>Node4</title>
<g id="a_Node000004"><a xlink:title=" ">
<polygon fill="#e0e0e0" stroke="#999999" points="383.5,-217 270.5,-217 270.5,-187 383.5,-187 383.5,-217"/>
<text text-anchor="start" x="278.5" y="-205" font-family="Helvetica,sans-Serif" font-size="10.00">pluginterfaces/base</text>
<text text-anchor="middle" x="327" y="-194" font-family="Helvetica,sans-Serif" font-size="10.00">/ustring.h</text>
</a>
</g>
</g>
<!-- Node2&#45;&gt;Node4 -->
<g id="edge3_Node000002_Node000004" class="edge">
<title>Node2&#45;&gt;Node4</title>
<g id="a_edge3_Node000002_Node000004"><a xlink:title=" ">
<path fill="none" stroke="#63b8ff" d="M363.66,-252.87C358.31,-245.59 350.41,-234.85 343.32,-225.2"/>
<polygon fill="#63b8ff" stroke="#63b8ff" points="346.12,-223.1 337.37,-217.11 340.48,-227.25 346.12,-223.1"/>
</a>
</g>
</g>
<!-- Node5 -->
<g id="Node000005" class="node">
<title>Node5</title>
<g id="a_Node000005"><a xlink:href="equalizer_8hpp.html" target="_top" xlink:title=" ">
<polygon fill="white" stroke="#666666" points="376,-151 294,-151 294,-132 376,-132 376,-151"/>
<text text-anchor="middle" x="335" y="-139" font-family="Helvetica,sans-Serif" font-size="10.00">equalizer.hpp</text>
</a>
</g>
</g>
<!-- Node2&#45;&gt;Node5 -->
<g id="edge4_Node000002_Node000005" class="edge">
<title>Node2&#45;&gt;Node5</title>
<g id="a_edge4_Node000002_Node000005"><a xlink:title=" ">
<path fill="none" stroke="#63b8ff" d="M376.72,-252.9C386.95,-238.68 404.14,-209.58 393,-187 386.51,-173.85 374.07,-163.5 362.36,-156.11"/>
<polygon fill="#63b8ff" stroke="#63b8ff" points="364.07,-153.05 353.67,-151.03 360.54,-159.1 364.07,-153.05"/>
</a>
</g>
</g>
<!-- Node19 -->
<g id="Node000019" class="node">
<title>Node19</title>
<g id="a_Node000019"><a xlink:href="fftprocessor_8hpp.html" target="_top" xlink:title=" ">
<polygon fill="white" stroke="#666666" points="213.5,-211.5 118.5,-211.5 118.5,-192.5 213.5,-192.5 213.5,-211.5"/>
<text text-anchor="middle" x="166" y="-199.5" font-family="Helvetica,sans-Serif" font-size="10.00">fftprocessor.hpp</text>
</a>
</g>
</g>
<!-- Node2&#45;&gt;Node19 -->
<g id="edge20_Node000002_Node000019" class="edge">
<title>Node2&#45;&gt;Node19</title>
<g id="a_edge20_Node000002_Node000019"><a xlink:title=" ">
<path fill="none" stroke="#63b8ff" d="M340.34,-252.99C304.76,-242.79 244.98,-225.65 205.52,-214.33"/>
<polygon fill="#63b8ff" stroke="#63b8ff" points="206.28,-210.91 195.7,-211.52 204.35,-217.64 206.28,-210.91"/>
</a>
</g>
</g>
<!-- Node21 -->
<g id="Node000021" class="node">
<title>Node21</title>
<g id="a_Node000021"><a xlink:title=" ">
<polygon fill="#e0e0e0" stroke="#999999" points="265.5,-151 218.5,-151 218.5,-132 265.5,-132 265.5,-151"/>
<text text-anchor="middle" x="242" y="-139" font-family="Helvetica,sans-Serif" font-size="10.00">vector</text>
</a>
</g>
</g>
<!-- Node2&#45;&gt;Node21 -->
<g id="edge26_Node000002_Node000021" class="edge">
<title>Node2&#45;&gt;Node21</title>
<g id="a_edge26_Node000002_Node000021"><a xlink:title=" ">
<path fill="none" stroke="#63b8ff" d="M327.79,-253.58C305.3,-247.27 278.87,-236.19 262,-217 248.49,-201.64 243.99,-178.08 242.54,-161.58"/>
<polygon fill="#63b8ff" stroke="#63b8ff" points="246.03,-161.26 241.97,-151.47 239.04,-161.66 246.03,-161.26"/>
</a>
</g>
</g>
<!-- Node5&#45;&gt;Node3 -->
<g id="edge8_Node000005_Node000003" class="edge">
<title>Node5&#45;&gt;Node3</title>
<g id="a_edge8_Node000005_Node000003"><a xlink:title=" ">
<path fill="none" stroke="#63b8ff" d="M350.64,-131.87C365.29,-123.78 387.69,-111.42 406.52,-101.03"/>
<polygon fill="#63b8ff" stroke="#63b8ff" points="408.36,-104.01 415.42,-96.11 404.98,-97.88 408.36,-104.01"/>
</a>
</g>
</g>
<!-- Node6 -->
<g id="Node000006" class="node">
<title>Node6</title>
<g id="a_Node000006"><a xlink:title=" ">
<polygon fill="#e0e0e0" stroke="#999999" points="150,-90.5 100,-90.5 100,-71.5 150,-71.5 150,-90.5"/>
<text text-anchor="middle" x="125" y="-78.5" font-family="Helvetica,sans-Serif" font-size="10.00">fftw3.h</text>
</a>
</g>
</g>
<!-- Node5&#45;&gt;Node6 -->
<g id="edge5_Node000005_Node000006" class="edge">
<title>Node5&#45;&gt;Node6</title>
<g id="a_edge5_Node000005_Node000006"><a xlink:title=" ">
<path fill="none" stroke="#63b8ff" d="M295.31,-131.98C259.56,-123.93 205.76,-110.9 160,-96 158.33,-95.46 156.63,-94.87 154.92,-94.27"/>
<polygon fill="#63b8ff" stroke="#63b8ff" points="155.78,-90.85 145.19,-90.6 153.32,-97.4 155.78,-90.85"/>
</a>
</g>
</g>
<!-- Node7 -->
<g id="Node000007" class="node">
<title>Node7</title>
<g id="a_Node000007"><a xlink:title=" ">
<polygon fill="#e0e0e0" stroke="#999999" points="82,-90.5 0,-90.5 0,-71.5 82,-71.5 82,-90.5"/>
<text text-anchor="middle" x="41" y="-78.5" font-family="Helvetica,sans-Serif" font-size="10.00">base/ftypes.h</text>
</a>
</g>
</g>
<!-- Node5&#45;&gt;Node7 -->
<g id="edge6_Node000005_Node000007" class="edge">
<title>Node5&#45;&gt;Node7</title>
<g id="a_edge6_Node000005_Node000007"><a xlink:title=" ">
<path fill="none" stroke="#63b8ff" d="M293.75,-134.17C245.04,-126.43 161.7,-112.31 91,-96 87.31,-95.15 83.49,-94.2 79.68,-93.21"/>
<polygon fill="#63b8ff" stroke="#63b8ff" points="80.27,-89.75 69.7,-90.53 78.45,-96.51 80.27,-89.75"/>
</a>
</g>
</g>
<!-- Node5&#45;&gt;Node8 -->
<g id="edge7_Node000005_Node000008" class="edge">
<title>Node5&#45;&gt;Node8</title>
<g id="a_edge7_Node000005_Node000008"><a xlink:title=" ">
<path fill="none" stroke="#63b8ff" d="M372.81,-131.99C418.92,-121.62 496.93,-104.07 547.18,-92.76"/>
<polygon fill="#63b8ff" stroke="#63b8ff" points="548.16,-96.13 557.15,-90.52 546.62,-89.3 548.16,-96.13"/>
</a>
</g>
</g>
<!-- Node5&#45;&gt;Node9 -->
<g id="edge9_Node000005_Node000009" class="edge">
<title>Node5&#45;&gt;Node9</title>
<g id="a_edge9_Node000005_Node000009"><a xlink:title=" ">
<path fill="none" stroke="#63b8ff" d="M376.06,-137.16C441.18,-131.43 571.94,-118.16 681,-96 684.96,-95.2 689.07,-94.24 693.15,-93.22"/>
<polygon fill="#63b8ff" stroke="#63b8ff" points="694.37,-96.52 703.14,-90.57 692.58,-89.75 694.37,-96.52"/>
</a>
</g>
</g>
<!-- Node13 -->
<g id="Node000013" class="node">
<title>Node13</title>
<g id="a_Node000013"><a xlink:href="eqconstants_8hpp.html" target="_top" xlink:title=" ">
<polygon fill="white" stroke="#666666" points="502.5,-24.5 405.5,-24.5 405.5,-5.5 502.5,-5.5 502.5,-24.5"/>
<text text-anchor="middle" x="454" y="-12.5" font-family="Helvetica,sans-Serif" font-size="10.00">eqconstants.hpp</text>
</a>
</g>
</g>
<!-- Node5&#45;&gt;Node13 -->
<g id="edge17_Node000005_Node000013" class="edge">
<title>Node5&#45;&gt;Node13</title>
<g id="a_edge17_Node000005_Node000013"><a xlink:title=" ">
<path fill="none" stroke="#63b8ff" d="M337.7,-131.77C342.68,-116.84 354.5,-86.07 373,-66 387.42,-50.36 407.82,-37.8 424.54,-29.19"/>
<polygon fill="#63b8ff" stroke="#63b8ff" points="426.47,-32.14 433.89,-24.58 423.37,-25.86 426.47,-32.14"/>
</a>
</g>
</g>
<!-- Node14 -->
<g id="Node000014" class="node">
<title>Node14</title>
<g id="a_Node000014"><a xlink:href="utils_8hpp.html" target="_top" xlink:title=" ">
<polygon fill="white" stroke="#666666" points="324.5,-90.5 265.5,-90.5 265.5,-71.5 324.5,-71.5 324.5,-90.5"/>
<text text-anchor="middle" x="295" y="-78.5" font-family="Helvetica,sans-Serif" font-size="10.00">utils.hpp</text>
</a>
</g>
</g>
<!-- Node5&#45;&gt;Node14 -->
<g id="edge14_Node000005_Node000014" class="edge">
<title>Node5&#45;&gt;Node14</title>
<g id="a_edge14_Node000005_Node000014"><a xlink:title=" ">
<path fill="none" stroke="#63b8ff" d="M329.1,-131.87C323.25,-123.31 314.13,-109.97 306.79,-99.24"/>
<polygon fill="#63b8ff" stroke="#63b8ff" points="309.46,-96.95 300.93,-90.67 303.68,-100.9 309.46,-96.95"/>
</a>
</g>
</g>
<!-- Node17 -->
<g id="Node000017" class="node">
<title>Node17</title>
<g id="a_Node000017"><a xlink:href="eqshape_8hpp.html" target="_top" xlink:title=" ">
<polygon fill="white" stroke="#666666" points="247.5,-90.5 168.5,-90.5 168.5,-71.5 247.5,-71.5 247.5,-90.5"/>
<text text-anchor="middle" x="208" y="-78.5" font-family="Helvetica,sans-Serif" font-size="10.00">eqshape.hpp</text>
</a>
</g>
</g>
<!-- Node5&#45;&gt;Node17 -->
<g id="edge18_Node000005_Node000017" class="edge">
<title>Node5&#45;&gt;Node17</title>
<g id="a_edge18_Node000005_Node000017"><a xlink:title=" ">
<path fill="none" stroke="#63b8ff" d="M316.53,-131.99C295.28,-122.2 260.15,-106.02 235.63,-94.73"/>
<polygon fill="#63b8ff" stroke="#63b8ff" points="237.04,-91.52 226.49,-90.52 234.11,-97.88 237.04,-91.52"/>
</a>
</g>
</g>
<!-- Node10 -->
<g id="Node000010" class="node">
<title>Node10</title>
<g id="a_Node000010"><a xlink:title=" ">
<polygon fill="#e0e0e0" stroke="#999999" points="932.5,-30 813.5,-30 813.5,0 932.5,0 932.5,-30"/>
<text text-anchor="start" x="821.5" y="-18" font-family="Helvetica,sans-Serif" font-size="10.00">public.sdk/source/vst</text>
<text text-anchor="middle" x="873" y="-7" font-family="Helvetica,sans-Serif" font-size="10.00">/vsteditcontroller.h</text>
</a>
</g>
</g>
<!-- Node9&#45;&gt;Node10 -->
<g id="edge10_Node000009_Node000010" class="edge">
<title>Node9&#45;&gt;Node10</title>
<g id="a_edge10_Node000009_Node000010"><a xlink:title=" ">
<path fill="none" stroke="#63b8ff" d="M750.15,-71.37C771.14,-61.91 805.43,-46.45 832.46,-34.27"/>
<polygon fill="#63b8ff" stroke="#63b8ff" points="834,-37.42 841.68,-30.12 831.13,-31.03 834,-37.42"/>
</a>
</g>
</g>
<!-- Node11 -->
<g id="Node000011" class="node">
<title>Node11</title>
<g id="a_Node000011"><a xlink:title=" ">
<polygon fill="#e0e0e0" stroke="#999999" points="648,-30 526,-30 526,0 648,0 648,-30"/>
<text text-anchor="start" x="534" y="-18" font-family="Helvetica,sans-Serif" font-size="10.00">vstgui4/vstgui/plugin</text>
<text text-anchor="middle" x="587" y="-7" font-family="Helvetica,sans-Serif" font-size="10.00">&#45;bindings/vst3editor.h</text>
</a>
</g>
</g>
<!-- Node9&#45;&gt;Node11 -->
<g id="edge11_Node000009_Node000011" class="edge">
<title>Node9&#45;&gt;Node11</title>
<g id="a_edge11_Node000009_Node000011"><a xlink:title=" ">
<path fill="none" stroke="#63b8ff" d="M711.58,-71.37C690.29,-61.91 655.52,-46.45 628.11,-34.27"/>
<polygon fill="#63b8ff" stroke="#63b8ff" points="629.32,-30.98 618.76,-30.12 626.48,-37.38 629.32,-30.98"/>
</a>
</g>
</g>
<!-- Node12 -->
<g id="Node000012" class="node">
<title>Node12</title>
<g id="a_Node000012"><a xlink:title=" ">
<polygon fill="#e0e0e0" stroke="#999999" points="795.5,-30 666.5,-30 666.5,0 795.5,0 795.5,-30"/>
<text text-anchor="start" x="674.5" y="-18" font-family="Helvetica,sans-Serif" font-size="10.00">public.sdk/source/main</text>
<text text-anchor="middle" x="731" y="-7" font-family="Helvetica,sans-Serif" font-size="10.00">/moduleinit.h</text>
</a>
</g>
</g>
<!-- Node9&#45;&gt;Node12 -->
<g id="edge12_Node000009_Node000012" class="edge">
<title>Node9&#45;&gt;Node12</title>
<g id="a_edge12_Node000009_Node000012"><a xlink:title=" ">
<path fill="none" stroke="#63b8ff" d="M731,-71.37C731,-63.49 731,-51.45 731,-40.6"/>
<polygon fill="#63b8ff" stroke="#63b8ff" points="734.5,-40.36 731,-30.36 727.5,-40.36 734.5,-40.36"/>
</a>
</g>
</g>
<!-- Node9&#45;&gt;Node13 -->
<g id="edge13_Node000009_Node000013" class="edge">
<title>Node9&#45;&gt;Node13</title>
<g id="a_edge13_Node000009_Node000013"><a xlink:title=" ">
<path fill="none" stroke="#63b8ff" d="M701.46,-71.43C694.75,-69.57 687.65,-67.66 681,-66 608.6,-47.93 589.87,-46.09 517,-30 512.26,-28.95 507.32,-27.86 502.38,-26.76"/>
<polygon fill="#63b8ff" stroke="#63b8ff" points="502.83,-23.28 492.31,-24.53 501.31,-30.11 502.83,-23.28"/>
</a>
</g>
</g>
<!-- Node15 -->
<g id="Node000015" class="node">
<title>Node15</title>
<g id="a_Node000015"><a xlink:title=" ">
<polygon fill="#e0e0e0" stroke="#999999" points="378.5,-24.5 323.5,-24.5 323.5,-5.5 378.5,-5.5 378.5,-24.5"/>
<text text-anchor="middle" x="351" y="-12.5" font-family="Helvetica,sans-Serif" font-size="10.00">fstream</text>
</a>
</g>
</g>
<!-- Node14&#45;&gt;Node15 -->
<g id="edge15_Node000014_Node000015" class="edge">
<title>Node14&#45;&gt;Node15</title>
<g id="a_edge15_Node000014_Node000015"><a xlink:title=" ">
<path fill="none" stroke="#63b8ff" d="M302.55,-71.37C311.19,-61.5 325.53,-45.11 336.37,-32.72"/>
<polygon fill="#63b8ff" stroke="#63b8ff" points="339.26,-34.74 343.21,-24.91 333.99,-30.13 339.26,-34.74"/>
</a>
</g>
</g>
<!-- Node16 -->
<g id="Node000016" class="node">
<title>Node16</title>
<g id="a_Node000016"><a xlink:title=" ">
<polygon fill="#e0e0e0" stroke="#999999" points="305,-24.5 255,-24.5 255,-5.5 305,-5.5 305,-24.5"/>
<text text-anchor="middle" x="280" y="-12.5" font-family="Helvetica,sans-Serif" font-size="10.00">chrono</text>
</a>
</g>
</g>
<!-- Node14&#45;&gt;Node16 -->
<g id="edge16_Node000014_Node000016" class="edge">
<title>Node14&#45;&gt;Node16</title>
<g id="a_edge16_Node000014_Node000016"><a xlink:title=" ">
<path fill="none" stroke="#63b8ff" d="M292.98,-71.37C290.8,-62.07 287.26,-46.98 284.43,-34.9"/>
<polygon fill="#63b8ff" stroke="#63b8ff" points="287.78,-33.84 282.09,-24.91 280.96,-35.44 287.78,-33.84"/>
</a>
</g>
</g>
<!-- Node18 -->
<g id="Node000018" class="node">
<title>Node18</title>
<g id="a_Node000018"><a xlink:title=" ">
<polygon fill="#e0e0e0" stroke="#999999" points="231.5,-24.5 184.5,-24.5 184.5,-5.5 231.5,-5.5 231.5,-24.5"/>
<text text-anchor="middle" x="208" y="-12.5" font-family="Helvetica,sans-Serif" font-size="10.00">cmath</text>
</a>
</g>
</g>
<!-- Node17&#45;&gt;Node18 -->
<g id="edge19_Node000017_Node000018" class="edge">
<title>Node17&#45;&gt;Node18</title>
<g id="a_edge19_Node000017_Node000018"><a xlink:title=" ">
<path fill="none" stroke="#63b8ff" d="M208,-71.37C208,-62.16 208,-47.29 208,-35.27"/>
<polygon fill="#63b8ff" stroke="#63b8ff" points="211.5,-34.91 208,-24.91 204.5,-34.91 211.5,-34.91"/>
</a>
</g>
</g>
<!-- Node19&#45;&gt;Node5 -->
<g id="edge25_Node000019_Node000005" class="edge">
<title>Node19&#45;&gt;Node5</title>
<g id="a_edge25_Node000019_Node000005"><a xlink:title=" ">
<path fill="none" stroke="#63b8ff" d="M190.57,-192.49C219.61,-182.44 268.1,-165.66 300.8,-154.34"/>
<polygon fill="#63b8ff" stroke="#63b8ff" points="302.09,-157.6 310.4,-151.02 299.8,-150.98 302.09,-157.6"/>
</a>
</g>
</g>
<!-- Node19&#45;&gt;Node6 -->
<g id="edge21_Node000019_Node000006" class="edge">
<title>Node19&#45;&gt;Node6</title>
<g id="a_edge21_Node000019_Node000006"><a xlink:title=" ">
<path fill="none" stroke="#63b8ff" d="M156.18,-192.17C146.71,-182.96 132.97,-167.57 127,-151 121.17,-134.81 121.25,-115.07 122.45,-100.86"/>
<polygon fill="#63b8ff" stroke="#63b8ff" points="125.94,-101.14 123.55,-90.82 118.98,-100.38 125.94,-101.14"/>
</a>
</g>
</g>
<!-- Node19&#45;&gt;Node7 -->
<g id="edge24_Node000019_Node000007" class="edge">
<title>Node19&#45;&gt;Node7</title>
<g id="a_edge24_Node000019_Node000007"><a xlink:title=" ">
<path fill="none" stroke="#63b8ff" d="M157.01,-192.44C136.21,-172.64 84.5,-123.41 57.7,-97.9"/>
<polygon fill="#63b8ff" stroke="#63b8ff" points="59.9,-95.16 50.25,-90.8 55.07,-100.23 59.9,-95.16"/>
</a>
</g>
</g>
<!-- Node20 -->
<g id="Node000020" class="node">
<title>Node20</title>
<g id="a_Node000020"><a xlink:title=" ">
<polygon fill="#e0e0e0" stroke="#999999" points="200,-151 136,-151 136,-132 200,-132 200,-151"/>
<text text-anchor="middle" x="168" y="-139" font-family="Helvetica,sans-Serif" font-size="10.00">algorithm</text>
</a>
</g>
</g>
<!-- Node19&#45;&gt;Node20 -->
<g id="edge22_Node000019_Node000020" class="edge">
<title>Node19&#45;&gt;Node20</title>
<g id="a_edge22_Node000019_Node000020"><a xlink:title=" ">
<path fill="none" stroke="#63b8ff" d="M166.3,-192.37C166.57,-184.25 167,-171.81 167.35,-161.39"/>
<polygon fill="#63b8ff" stroke="#63b8ff" points="170.86,-161.28 167.7,-151.17 163.86,-161.04 170.86,-161.28"/>
</a>
</g>
</g>
<!-- Node19&#45;&gt;Node21 -->
<g id="edge23_Node000019_Node000021" class="edge">
<title>Node19&#45;&gt;Node21</title>
<g id="a_edge23_Node000019_Node000021"><a xlink:title=" ">
<path fill="none" stroke="#63b8ff" d="M177.21,-192.37C189.11,-183.21 208.14,-168.56 222.51,-157.51"/>
<polygon fill="#63b8ff" stroke="#63b8ff" points="224.95,-160.04 230.74,-151.17 220.68,-154.49 224.95,-160.04"/>
</a>
</g>
</g>
</g>
</svg>
